{
.appVersion = "3151";
.formatVersion = 3;
DisplayStrings = (
sct,
"©®™°",
"Matemasie
©2023 by Adam YeoType™ is a registred trademark.


",
"MTC©®T™°"
);
customParameters = (
{
name = glyphOrder;
value = (
A,
Aacute,
Abreve,
Acircumflex,
Adieresis,
Agrave,
Amacron,
Aogonek,
Aring,
Atilde,
AE,
B,
C,
Cacute,
Ccaron,
Ccedilla,
Cdotaccent,
D,
Dcaron,
Dcroat,
Eth,
E,
Eacute,
Ecaron,
Ecircumflex,
Edieresis,
Edotaccent,
Egrave,
Emacron,
Eogonek,
F,
G,
Gbreve,
Gcommaaccent,
Gdotaccent,
H,
Hbar,
I,
Iacute,
Icircumflex,
Idieresis,
Idotaccent,
Igrave,
Imacron,
Iogonek,
J,
K,
Kcommaaccent,
L,
Lacute,
Lcaron,
Lcommaaccent,
Lslash,
M,
N,
Nacute,
Ncaron,
Ncommaaccent,
Ntilde,
Eng,
O,
Oacute,
Ocircumflex,
Odieresis,
Ograve,
Ohungarumlaut,
Omacron,
Oslash,
Otilde,
OE,
P,
Thorn,
Q,
R,
Racute,
Rcaron,
Rcommaaccent,
S,
Sacute,
Scaron,
Scedilla,
Scommaaccent,
Germandbls,
T,
Tcaron,
Tcommaaccent,
U,
Uacute,
Ubreve,
Ucircumflex,
Udieresis,
Ugrave,
Uhungarumlaut,
Umacron,
Uogonek,
Uring,
V,
W,
Wacute,
Wcircumflex,
Wdieresis,
Wgrave,
X,
Y,
Yacute,
Ycircumflex,
Ydieresis,
Ygrave,
Z,
Zacute,
Zcaron,
Zdotaccent,
a,
aacute,
abreve,
acircumflex,
adieresis,
agrave,
amacron,
aogonek,
aring,
atilde,
ae,
b,
c,
cacute,
ccaron,
ccedilla,
cdotaccent,
d,
dcaron,
dcroat,
eth,
e,
eacute,
ecaron,
ecircumflex,
edieresis,
edotaccent,
egrave,
emacron,
eogonek,
f,
g,
gbreve,
gcommaaccent,
gdotaccent,
h,
hbar,
i,
idotless,
iacute,
icircumflex,
idieresis,
idotaccent,
igrave,
imacron,
iogonek,
j,
jdotless,
k,
kcommaaccent,
l,
lacute,
lcaron,
lcommaaccent,
lslash,
m,
n,
nacute,
ncaron,
ncommaaccent,
ntilde,
eng,
o,
oacute,
ocircumflex,
odieresis,
ograve,
ohungarumlaut,
omacron,
oslash,
otilde,
oe,
p,
thorn,
q,
r,
racute,
rcaron,
rcommaaccent,
s,
sacute,
scaron,
scedilla,
scommaaccent,
germandbls,
t,
tcaron,
tcommaaccent,
u,
uacute,
ubreve,
ucircumflex,
udieresis,
ugrave,
uhungarumlaut,
umacron,
uogonek,
uring,
v,
w,
wacute,
wcircumflex,
wdieresis,
wgrave,
x,
y,
yacute,
ycircumflex,
ydieresis,
ygrave,
z,
zacute,

glyphs = (
{
color = 10;
glyphname = A;
kernLeft = "20";
kernRight = "20";
lastChange = "2023-12-07 03:14:20 +0000";
layers = (
{
anchors = (
{
name = bottom;
pos = (414,0);
},
{
name = ogonek;
pos = (768,10);
},
{
name = top;
pos = (414,800);
}
);
associatedMasterId = "49F060A0-2273-4F54-8B81-08E0B15B03EC";
layerId = "429529E9-CF14-4CA2-9828-83EC560851CA";
name = "2 Dec 23 at 23:15";
shapes = (
{
closed = 1;
nodes = (
(480,290,ls),
(520,290,o),
(535,303,o),
(535,330,cs),
(535,355,o),
(533,456,o),
(425,456,cs),
(317,456,o),
(315,355,o),
(315,330,cs),
(315,294,o),
(345,290,o),
(373,290,cs),
(379,290,o),
(399,290,o),
(426,290,cs)
);
},
{
closed = 1;
nodes = (
(301,-11,o),
(294,-13,o),
(286,-13,cs),
(268,-13,o),
(251,-1,o),
(233,15,cs),
(159,81,o),
(25,255,o),
(25,462,cs),
(25,660,o),
(200,804,o),
(424,804,cs),
(650,804,o),
(825,660,o),
(825,462,cs),
(825,255,o),
(691,81,o),
(617,15,cs),
(599,-1,o),
(582,-13,o),
(564,-13,cs),
(556,-13,o),
(549,-11,o),
(541,-7,cs),
(522,4,o),
(513,22,o),
(513,42,cs),
(513,50,o),
(515,58,o),
(517,67,cs),
(521,81,o),
(533,123,o),
(533,143,cs),
(533,171,o),
(502,182,o),
(474,182,cs),
(466,182,o),
(438,182,o),
(373,182,cs),
(332,182,o),
(317,161,o),
(317,143,cs),
(317,123,o),
(329,81,o),
(333,67,cs),
(335,58,o),
(337,50,o),
(337,42,cs),
(337,22,o),
(328,4,o),
(309,-7,cs)
);
}
);
width = 850;
},
{
anchors = (
{
name = bottom;
pos = (428,5);
},
{
name = ogonek;
pos = (768,10);
},
{
name = top;
pos = (414,800);
}
);
layerId = "49F060A0-2273-4F54-8B81-08E0B15B03EC";
name = Regular;
shapes = (
{
closed = 1;
nodes = (
(336,9,o),
(310,-13,o),
(285,-13,cs),
(266,-13,o),
(249,0,o),
(231,16,cs),
(156,83,o),
(21,258,o),
(21,468,cs),
(21,668,o),
(198,814,o),
(424,814,cs),
(652,814,o),
(829,668,o),
(829,468,cs),
(829,258,o),
(694,83,o),
(619,16,cs),
(601,0,o),
(584,-13,o),
(565,-13,cs),
(540,-13,o),
(514,9,o),
(514,43,cs),
(514,70,o),
(534,115,o),
(534,145,cs),
(534,177,o),
(508,185,o),
(424,185,cs),
(332,185,o),
(316,174,o),
(316,145,cs),
(316,115,o),
(336,70,o),
(336,43,cs)
);
},
{
closed = 1;
nodes = (
(509,287,o),
(536,288,o),
(536,329,cs),
(536,355,o),
(534,457,o),
(425,457,cs),
(318,457,o),
(316,355,o),
(316,329,cs),
(316,288,o),
(343,287,o),
(426,289,c)
);
}
);
width = 850;
}
);
unicode = 65;
},
{
glyphname = Aacute;
kernLeft = "20";
kernRight = "20";
lastChange = "2023-11-24 14:14:04 +0000";
layers = (
{
anchors = (
{
name = top;
pos = (413,811);
}
);
layerId = "49F060A0-2273-4F54-8B81-08E0B15B03EC";
shapes = (
{
ref = A;
},
{
closed = 1;
nodes = (
(476,890,o),
(423,865,o),
(379,859,cs),
(349,855,o),
(320,857,o),
(307,882,cs),
(291,914,o),
(311,938,o),
(351,958,cs),
(416,991,o),
(421,1044,o),
(467,1070,cs),
(497,1087,o),
(532,1082,o),
(557,1049,cs),
(588,1008,o),
(569,960,o),
(516,920,cs)
);
}
);
width = 850;
}
);
unicode = 193;
},
{
glyphname = Abreve;
kernLeft = "20";
kernRight = "20";
lastChange = "2023-12-04 01:38:41 +0000";
layers = (
{
anchors = (
{
name = top;
pos = (425,1075);
}
);
hints = (
{
horizontal = 1;
place = (857, 183);
place = (857, 183);
type = Stem;
},
{
place = (205, 395);
place = (205, 395);
type = Stem;
}
);
layerId = "49F060A0-2273-4F54-8B81-08E0B15B03EC";
shapes = (
{
ref = A;
},
{
closed = 1;
nodes = (
(289,837,o),
(209,873,o),
(181,940,cs),
(156,1002,o),
(175,1059,o),
(227,1076,cs),
(271,1092,o),
(305,1056,o),
(317,1011,cs),
(334,950,o),
(371,938,o),
(420,938,cs),
(468,938,o),
(504,950,o),
(521,1011,cs),
(533,1056,o),
(566,1090,o),
(610,1076,cs),
(663,1059,o),
(682,1002,o),
(657,939,cs),
(629,871,o),
(545,837,o),
(420,837,cs)
);
}
);
width = 848;
}
);
unicode = 258;
},
{
glyphname = Acircumflex;
kernLeft = "20";
kernRight = "20";
lastChange = "2023-11-24 14:14:32 +0000";
layers = (
{
anchors = (
{
name = top;
pos = (418,1076);
}
);
layerId = "49F060A0-2273-4F54-8B81-08E0B15B03EC";
shapes = (
{
ref = A;
},
{
closed = 1;
nodes = (
(412,927,o),
(403,918,o),
(379,901,cs),
(326,862,l),
(292,838,o),
(267,820,o),
(248,838,cs),
(233,854,o),
(247,873,o),
(265,911,cs),
(278,936,o),
(295,968,o),
(315,1003,cs),
(342,1051,o),
(378,1081,o),
(422,1081,cs),
(466,1081,o),
(502,1051,o),
(529,1003,cs),
(549,968,o),
(566,936,o),
(579,911,cs),
(597,873,o),
(611,854,o),
(596,838,cs),
(577,820,o),
(552,838,o),
(518,862,cs),
(505,872,o),
(481,889,o),
(460,904,cs),
(442,917,o),
(432,927,o),
(422,927,cs)
);
}
);
width = 850;
},
{
anchors = (
{
name = _top;
pos = (436,1039);
}
);
associatedMasterId = "49F060A0-2273-4F54-8B81-08E0B15B03EC";
layerId = "7002ED80-2CE0-475E-9D40-5767B02273F6";
name = "2 Nov 23 at 05:38";
shapes = (
{
ref = A;
},
{
closed = 1;
nodes = (
(452,921,o),
(464,915,o),
(486,893,cs),
(530,847,o),
(562,827,o),
(584,827,cs),
(600,827,o),
(608,841,o),
(608,855,cs),
(608,896,o),
(590,929,o),
(549,974,cs),
(509,1018,o),
(464,1039,o),
(436,1039,cs),
(407,1039,o),
(362,1018,o),
(322,974,cs),
(281,929,o),
(263,896,o),
(263,855,cs),
(263,841,o),
(271,827,o),
(287,827,cs),
(309,827,o),
(341,847,o),
(385,893,cs),
(407,915,o),
(419,921,o),
(436,921,cs)
);
}
);
width = 886;
}
);
unicode = 194;
},
{
glyphname = Adieresis;
kernLeft = "20";
kernRight = "20";
lastChange = "2023-12-01 01:35:33 +0000";
layers = (
{
anchors = (
{
name = top;
pos = (417,1082);
}
);
layerId = "49F060A0-2273-4F54-8B81-08E0B15B03EC";
shapes = (
{
ref = A;
},
{
closed = 1;
nodes = (
(243,920,o),
(273,891,o),
(319,891,cs),
(365,891,o),
(395,920,o),
(395,965,cs),
(395,1009,o),
(365,1037,o),
(319,1037,cs),
(273,1037,o),
(243,1009,o),
(243,965,cs)
);
},
{
closed = 1;
nodes = (
(439,920,o),
(469,891,o),
(515,891,cs),
(561,891,o),
(591,920,o),
(591,965,cs),
(591,1009,o),
(561,1037,o),
(515,1037,cs),
(469,1037,o),
(439,1009,o),
(439,965,cs)
);
}
);
width = 850;
}
);
unicode = 196;
},
{
glyphname = Agrave;
kernLeft = "20";
kernRight = "20";
lastChange = "2023-11-19 01:47:48 +0000";
layers = (
{
anchors = (
{
name = top;
pos = (382,1086);
}
);
layerId = "49F060A0-2273-4F54-8B81-08E0B15B03EC";
shapes = (
{
ref = A;
},
{
closed = 1;
nodes = (
(291,961,o),
(272,1009,o),
(303,1050,cs),
(328,1083,o),
(363,1088,o),
(393,1071,cs),
(439,1045,o),
(444,992,o),
(509,959,cs),
(549,939,o),
(569,915,o),
(553,883,cs),
(540,858,o),
(511,856,o),
(481,860,cs),
(437,866,o),
(384,891,o),
(344,921,cs)
);
}
);
width = 848;
}
);
unicode = 192;
},
{
glyphname = Amacron;
kernLeft = "20";
kernRight = "20";
lastChange = "2023-12-01 01:43:53 +0000";
layers = (
{
anchors = (
{
name = top;
pos = (416,1079);
}
);
layerId = "49F060A0-2273-4F54-8B81-08E0B15B03EC";
shapes = (
{
ref = A;
},
{
closed = 1;
nodes = (
(225,884,o),
(187,917,o),
(187,964,cs),
(187,1009,o),
(223,1045,o),
(351,1045,cs),
(458,1045,o),
(543,1031,o),
(565,1027,cs),
(651,1010,o),
(678,995,o),
(678,969,cs),
(678,943,o),
(648,923,o),
(571,907,cs),
(535,899,o),
(449,884,o),
(355,884,cs)
);
}
);
width = 848;
}
);
unicode = 256;
},
{
glyphname = Aogonek;
kernLeft = "20";
kernRight = "20";
lastChange = "2023-12-06 04:05:10 +0000";
layers = (
{
anchors = (
{
name = "botto=";
pos = (395,-19);
}
);
associatedMasterId = "49F060A0-2273-4F54-8B81-08E0B15B03EC";
layerId = "0C9E8A55-9EB4-499A-AE6C-EF632FA1B72F";
name = "4 Dec 23 at 19:31";
shapes = (
{
ref = A;
},
{
closed = 1;
nodes = (
(618,-191,o),
(630,-183,o),
(630,-170,cs),
(630,-157,o),
(618,-150,o),
(600,-150,cs),
(570,-150,o),
(552,-139,o),
(552,-117,cs),
(552,-103,o),
(566,-92,o),
(578,-82,cs),
(601,-63,o),
(611,-39,o),
(585,-13,cs),
(564,6,o),
(527,-2,o),
(499,-33,cs),
(459,-78,o),
(465,-135,o),
(505,-170,cs),
(530,-192,o),
(560,-200,o),
(601,-194,c)
);
},
{
closed = 1;
nodes = (
(598,-27,o),
(603,-17,o),
(603,-9,cs),
(603,-1,o),
(597,4,o),
(585,4,cs),
(540,4,o),
(484,-66,o),
(484,-120,cs),
(484,-166,o),
(524,-197,o),
(580,-197,cs),
(635,-197,o),
(670,-168,o),
(670,-135,cs),
(670,-111,o),
(656,-95,o),
(638,-95,cs),
(614,-95,o),
(611,-117,o),
(588,-117,cs),
(574,-117,o),
(564,-106,o),
(564,-93,cs),
(564,-73,o),
(582,-50,o),
(589,-40,cs)
);
}
);
width = 848;
},
{
anchors = (
{
name = "botto=";
pos = (395,-19);
},
{
name = bottom;
pos = (428,5);
},
{
name = ogonek;
pos = (768,10);
},
{
name = top;
pos = (414,800);
}
);
layerId = "49F060A0-2273-4F54-8B81-08E0B15B03EC";
name = Regular;
shapes = (
{
closed = 1;
nodes = (
(310,-13,o),
(336,9,o),
(336,43,cs),
(336,70,o),
(316,115,o),
(316,145,cs),
(316,174,o),
(332,186,o),
(424,186,cs),
(508,186,o),
(534,177,o),
(534,145,cs),
(534,97,o),
(497,49,o),
(524,10,cs),
(531,-2,o),
(531,-8,o),
(520,-16,cs),
(489,-40,o),
(463,-85,o),
(463,-122,cs),
(463,-168,o),
(503,-199,o),
(559,-199,cs),
(614,-199,o),
(649,-170,o),
(649,-137,cs),
(649,-113,o),
(635,-97,o),
(617,-97,cs),
(593,-97,o),
(590,-119,o),
(567,-119,cs),
(553,-119,o),
(543,-108,o),
(543,-95,cs),
(543,-75,o),
(561,-52,o),
(568,-42,cs),
(574,-33,o),
(578,-26,o),
(580,-19,cs),
(582,-13,o),
(585,-9,o),
(590,-6,cs),
(679,46,o),
(829,260,o),
(829,468,cs),
(829,668,o),
(652,814,o),
(424,814,cs),
(198,814,o),
(21,668,o),
(21,468,cs),
(21,258,o),
(156,83,o),
(231,16,cs),
(249,0,o),
(266,-13,o),
(285,-13,cs)
);
},
{
closed = 1;
nodes = (
(316,355,o),
(318,457,o),
(425,457,cs),
(534,457,o),
(536,355,o),
(536,329,cs),
(536,288,o),
(509,287,o),
(426,289,cs),
(343,287,o),
(316,288,o),
(316,329,cs)
);
}
);
width = 848;
},
{
anchors = (
{
name = "botto=";
pos = (395,-19);
},
{
name = bottom;
pos = (428,5);
},
{
name = ogonek;
pos = (768,10);
},
{
name = top;
pos = (414,800);
}
);
associatedMasterId = "49F060A0-2273-4F54-8B81-08E0B15B03EC";
layerId = "9F17C3EA-7F62-45D2-978E-BFB795C594A8";
name = "6 Dec 23 at 05:04";
shapes = (
{
closed = 1;
nodes = (
(310,-13,o),
(336,9,o),
(336,43,cs),
(336,70,o),
(316,115,o),
(316,145,cs),
(316,174,o),
(332,186,o),
(424,186,cs),
(508,186,o),
(534,177,o),
(534,145,cs),
(534,97,o),
(497,49,o),
(524,10,cs),
(531,-2,o),
(531,-8,o),
(520,-16,cs),
(489,-40,o),
(463,-85,o),
(463,-122,cs),
(463,-168,o),
(503,-199,o),
(559,-199,cs),
(614,-199,o),
(649,-170,o),
(649,-137,cs),
(649,-113,o),
(635,-97,o),
(617,-97,cs),
(593,-97,o),
(590,-119,o),
(567,-119,cs),
(553,-119,o),
(543,-108,o),
(543,-95,cs),
(543,-75,o),
(580,-11,o),
(590,-6,cs),
(669,31,o),
(829,260,o),
(829,468,cs),
(829,668,o),
(652,814,o),
(424,814,cs),
(198,814,o),
(21,668,o),
(21,468,cs),
(21,258,o),
(156,83,o),
(231,16,cs),
(249,0,o),
(266,-13,o),
(285,-13,cs)
);
},
{
closed = 1;
nodes = (
(316,355,o),
(318,457,o),
(425,457,cs),
(534,457,o),
(536,355,o),
(536,329,cs),
(536,288,o),
(509,287,o),
(426,289,cs),
(343,287,o),
(316,288,o),
(316,329,cs)
);
}
);
width = 848;
}
);
unicode = 260;
},
{
glyphname = Aring;
kernLeft = "20";
kernRight = "20";
lastChange = "2023-12-01 01:30:37 +0000";
layers = (
{
anchors = (
{
name = top;
pos = (426,1082);
}
);
layerId = "49F060A0-2273-4F54-8B81-08E0B15B03EC";
shapes = (
{
ref = A;
},
{
closed = 1;
nodes = (
(516,836,o),
(578,889,o),
(578,960,cs),
(578,1032,o),
(516,1083,o),
(427,1083,cs),
(342,1083,o),
(279,1032,o),
(279,960,cs),
(279,889,o),
(342,836,o),
(427,836,cs)
);
},
{
closed = 1;
nodes = (
(403,881,o),
(388,899,o),
(388,921,cs),
(388,945,o),
(403,964,o),
(429,964,cs),
(452,964,o),
(470,945,o),
(470,921,cs),
(470,899,o),
(452,881,o),
(429,881,cs)
);
}
);
width = 850;
}
);
unicode = 197;
},
{
glyphname = Atilde;
kernLeft = "20";
kernRight = "20";
lastChange = "2023-12-01 01:41:17 +0000";
layers = (
{
anchors = (
{
name = top;
pos = (398,1007);
}
);
hints = (
{
horizontal = 1;
place = (904, 72);
place = (904, 72);
type = Stem;
},
{
horizontal = 1;
place = (848, 72);
place = (848, 72);
type = Stem;
},
{
place = (251, 320);
place = (251, 320);
type = Stem;
}
);
layerId = "49F060A0-2273-4F54-8B81-08E0B15B03EC";
shapes = (
{
ref = A;
},
{
closed = 1;
nodes = (
(471,867,o),
(550,849,o),
(612,887,cs),
(681,930,o),
(698,980,o),
(663,1038,cs),
(620,1105,o),
(590,1058,o),
(526,1011,cs),
(502,999,o),
(484,997,o),
(471,1007,cs),
(376,1082,o),
(297,1100,o),
(235,1061,cs),
(166,1020,o),
(150,969,o),
(186,911,cs),
(206,878,o),
(232,872,o),
(266,891,cs),
(280,900,o),
(308,927,o),
(322,936,cs),
(343,949,o),
(361,951,o),
(376,941,cs)
);
}
);
width = 848;
}
);
unicode = 195;
},
{
glyphname = AE;
lastChange = "2023-12-03 04:52:38 +0000";
layers = (
{
associatedMasterId = "49F060A0-2273-4F54-8B81-08E0B15B03EC";
layerId = "B1101CB1-7B42-47B4-B3F0-88D2D9224A40";
name = "2 Dec 23 at 16:27";
shapes = (
{
closed = 1;
nodes = (
(356,8,o),
(363,36,o),
(354,67,cs),
(350,81,o),
(338,123,o),
(338,143,cs),
(338,161,o),
(353,182,o),
(394,182,cs),
(459,182,o),
(487,182,o),
(495,182,cs),
(523,182,o),
(554,171,o),
(554,143,cs),
(554,123,o),
(542,81,o),
(538,67,cs),
(529,36,o),
(536,8,o),
(562,-7,cs),
(590,-22,o),
(613,-7,o),
(638,15,cs),
(712,81,o),
(846,255,o),
(846,462,cs),
(846,660,o),
(671,804,o),
(447,804,cs),
(445,804,ls),
(221,804,o),
(46,660,o),
(46,462,cs),
(46,255,o),
(180,81,o),
(254,15,cs),
(279,-7,o),
(302,-22,o),
(330,-7,cs)
);
},
{
closed = 1;
nodes = (
(366,290,o),
(336,294,o),
(336,330,cs),
(336,355,o),
(338,456,o),
(446,456,cs),
(554,456,o),
(556,355,o),
(556,330,cs),
(556,303,o),
(541,290,o),
(501,290,cs),
(447,290,ls),
(420,290,o),
(400,290,o),
(394,290,cs)
);
},
{
closed = 1;
nodes = (
(1028,-11,o),
(1090,0,o),
(1128,17,cs),
(1191,47,o),
(1205,85,o),
(1191,117,cs),
(1180,142,o),
(1139,170,o),
(1093,139,cs),
(1052,110,o),
(1026,94,o),
(980,94,cs),
(906,94,o),
(824,135,o),
(824,212,cs),
(824,224,o),
(833,231,o),
(846,233,cs),
(891,241,o),
(931,229,o),
(968,229,cs),
(1013,229,o),
(1046,241,o),
(1046,284,cs),
(1046,327,o),
(1013,339,o),
(968,339,cs),
(931,339,o),
(891,332,o),
(846,339,cs),
(833,341,o),
(824,348,o),
(824,360,cs),
(824,435,o),
(901,479,o),
(966,479,cs),
(1026,479,o),
(1068,449,o),
(1124,449,cs),
(1220,449,o),
(1283,527,o),
(1283,600,cs),
(1283,747,o),
(1152,815,o),
(1001,815,cs),
(795,815,o),
(551,688,o),
(551,402,cs),
(551,160,o),
(750,-11,o),
(969,-11,cs)
);
},
{
closed = 1;
nodes = (
(891,241,o),
(931,229,o),
(968,229,cs),
(1013,229,o),
(1046,241,o),
(1046,284,cs),
(1046,327,o),
(1013,339,o),
(968,339,cs),
(931,339,o),
(891,332,o),
(846,339,cs),
(833,341,o),
(824,348,o),
(824,360,cs),
(824,435,o),
(901,479,o),
(966,479,cs),
(1026,479,o),
(1068,449,o),
(1124,449,cs),
(1220,449,o),
(1283,527,o),
(1283,600,cs),
(1283,747,o),
(1152,815,o),
(1001,815,cs),
(795,815,o),
(551,688,o),
(551,402,cs),
(551,160,o),
(750,-11,o),
(969,-11,cs),
(1028,-11,o),
(1090,0,o),
(1128,17,cs),
(1191,47,o),
(1205,85,o),
(1191,117,cs),
(1180,142,o),
(1139,170,o),
(1093,139,cs),
(1052,110,o),
(1026,94,o),
(980,94,cs),
(906,94,o),
(824,135,o),
(824,212,cs),
(824,224,o),
(833,231,o),
(846,233,cs)
);
}
);
width = 1296;
},
{
associatedMasterId = "49F060A0-2273-4F54-8B81-08E0B15B03EC";
layerId = "701C50CC-41C4-48C7-B4B1-6927E6B0033F";
name = "2 Dec 23 at 20:56";
shapes = (
{
closed = 1;
nodes = (
(914,-13,o),
(975,-2,o),
(1014,15,cs),
(1073,41,o),
(1092,84,o),
(1077,115,cs),
(1068,134,o),
(1036,171,o),
(978,136,cs),
(951,120,o),
(925,91,o),
(867,91,cs),
(792,91,o),
(710,139,o),
(710,198,cs),
(710,257,o),
(825,227,o),
(854,227,cs),
(899,227,o),
(932,239,o),
(932,282,cs),
(932,325,o),
(899,337,o),
(854,337,cs),
(825,337,o),
(710,316,o),
(710,368,cs),
(710,418,o),
(774,477,o),
(853,477,cs),
(910,477,o),
(954,447,o),
(1011,447,cs),
(1093,447,o),
(1169,508,o),
(1169,608,cs),
(1169,736,o),
(1045,813,o),
(885,813,cs),
(814,813,o),
(733,798,o),
(662,764,cs),
(651,759,o),
(640,759,o),
(628,765,cs),
(571,795,o),
(501,812,o),
(426,812,cs),
(424,812,ls),
(200,812,o),
(25,666,o),
(25,451,cs),
(25,262,o),
(159,81,o),
(233,15,cs),
(262,-11,o),
(283,-21,o),
(310,-6,cs),
(365,24,o),
(317,88,o),
(317,143,cs),
(317,158,o),
(317,184,o),
(426,184,cs),
(520,184,o),
(533,165,o),
(533,143,cs),
(533,88,o),
(485,23,o),
(540,-6,cs),
(583,-28,o),
(610,10,o),
(632,29,cs),
(640,36,o),
(652,40,o),
(672,30,cs),
(728,3,o),
(787,-13,o),
(856,-13,cs)
);
},
{
closed = 1;
nodes = (
(336,287,o),
(315,303,o),
(315,340,cs),
(315,356,o),
(319,456,o),
(425,456,cs),
(532,456,o),
(535,355,o),
(535,336,cs),
(535,303,o),
(526,287,o),
(423,287,c)
);
}
);
width = 1185;
},
{
layerId = "49F060A0-2273-4F54-8B81-08E0B15B03EC";
name = Regular;
shapes = (
{
closed = 1;
nodes = (
(993,-14,o),
(1055,-3,o),
(1093,14,cs),
(1156,44,o),
(1170,82,o),
(1156,114,cs),
(1145,139,o),
(1104,167,o),
(1058,136,cs),
(1017,107,o),
(991,91,o),
(945,91,cs),
(871,91,o),
(789,132,o),
(789,204,cs),
(789,250,o),
(892,226,o),
(933,226,cs),
(978,226,o),
(1011,238,o),
(1011,281,cs),
(1011,324,o),
(978,336,o),
(933,336,cs),
(896,336,o),
(789,320,o),
(789,363,cs),
(789,432,o),
(866,476,o),
(931,476,cs),
(991,476,o),
(1033,446,o),
(1089,446,cs),
(1185,446,o),
(1248,524,o),
(1248,597,cs),
(1248,744,o),
(1117,812,o),
(966,812,cs),
(881,812,o),
(788,797,o),
(710,752,cs),
(698,745,o),
(684,744,o),
(672,751,cs),
(608,787,o),
(531,808,o),
(447,808,cs),
(221,808,o),
(46,663,o),
(46,464,cs),
(46,256,o),
(180,82,o),
(254,15,cs),
(279,-7,o),
(302,-22,o),
(330,-7,cs),
(356,8,o),
(363,36,o),
(354,67,cs),
(350,82,o),
(338,124,o),
(338,144,cs),
(338,162,o),
(342,184,o),
(442,184,cs),
(528,184,o),
(554,172,o),
(554,144,cs),
(554,124,o),
(542,82,o),
(538,67,cs),
(529,36,o),
(536,8,o),
(562,-7,cs),
(601,-28,o),
(640,14,o),
(665,41,cs),
(679,57,o),
(699,59,o),
(717,48,cs),
(781,9,o),
(856,-14,o),
(934,-14,cs)
);
},
{
closed = 1;
nodes = (
(357,289,o),
(336,296,o),
(336,332,cs),
(336,357,o),
(338,458,o),
(446,458,cs),
(554,458,o),
(556,357,o),
(556,332,cs),
(556,296,o),
(541,287,o),
(442,288,cs)
);
}
);
width = 1261;
}
);
unicode = 198;
},
{
color = 10;
glyphname = B;
lastChange = "2023-12-16 15:31:51 +0000";
layers = (
{
layerId = "49F060A0-2273-4F54-8B81-08E0B15B03EC";
shapes = (
{
closed = 1;
nodes = (
(569,273,o),
(569,286,cs),
(569,294,o),
(576,299,o),
(583,300,cs),
(592,301,o),
(804,325,o),
(804,518,cs),
(804,688,o),
(641,812,o),
(434,812,cs),
(189,812,o),
(20,637,o),
(20,405,cs),
(20,165,o),
(200,-14,o),
(430,-14,cs),
(576,-14,o),
(696,67,o),
(696,168,cs),
(696,228,o),
(654,269,o),
(592,272,cs),
(581,272,o)
);
},
{
closed = 1;
nodes = (
(376,89,o),
(343,111,o),
(343,138,cs),
(343,165,o),
(376,185,o),
(416,185,cs),
(456,185,o),
(488,165,o),
(488,138,cs),
(488,111,o),
(456,89,o),
(416,89,cs)
);
},
{
closed = 1;
nodes = (
(350,274,o),
(245,275,o),
(245,347,cs),
(245,388,o),
(283,424,o),
(337,450,cs),
(401,482,o),
(512,485,o),
(512,414,cs),
(512,380,o),
(482,344,o),
(425,314,cs)
);
}
);
width = 819;
}
);
unicode = 66;
},
{
color = 10;
glyphname = C;
lastChange = "2023-12-07 03:14:00 +0000";
layers = (
{
layerId = "49F060A0-2273-4F54-8B81-08E0B15B03EC";
shapes = (
{
closed = 1;
nodes = (
(752,744,o),
(621,812,o),
(470,812,cs),
(250,812,o),
(20,685,o),
(20,399,cs),
(20,157,o),
(219,-14,o),
(438,-14,cs),
(497,-14,o),
(559,-3,o),
(597,14,cs),
(660,44,o),
(674,82,o),
(660,114,cs),
(649,139,o),
(608,167,o),
(562,136,cs),
(521,107,o),
(495,90,o),
(438,90,cs),
(353,90,o),
(283,132,o),
(283,260,cs),
(283,340,o),
(347,426,o),
(435,426,cs),
(495,426,o),
(537,396,o),
(593,396,cs),
(689,396,o),
(752,474,o),
(752,585,cs)
);
}
);
width = 762;
}
);
unicode = 67;
},
{
glyphname = Cacute;
lastChange = "2023-12-01 01:41:26 +0000";
layers = (
{
layerId = "49F060A0-2273-4F54-8B81-08E0B15B03EC";
shapes = (
{
ref = C;
},
{
closed = 1;
nodes = (
(457,891,o),
(404,866,o),
(360,860,cs),
(330,856,o),
(301,858,o),
(288,883,cs),
(272,915,o),
(292,939,o),
(332,959,cs),
(397,992,o),
(402,1045,o),
(448,1071,cs),
(478,1088,o),
(513,1083,o),
(538,1050,cs),
(569,1009,o),
(550,961,o),
(497,921,cs)
);
}
);
width = 762;
}
);
unicode = 262;
},
{
glyphname = Ccaron;
lastChange = "2023-11-19 01:39:11 +0000";
layers = (
{
anchors = (
{
name = top;
pos = (412,1071);
}
);
layerId = "49F060A0-2273-4F54-8B81-08E0B15B03EC";
shapes = (
{
ref = C;
},
{
closed = 1;
nodes = (
(378,984,o),
(366,990,o),
(344,1012,cs),
(300,1058,o),
(268,1078,o),
(246,1078,cs),
(230,1078,o),
(222,1064,o),
(222,1050,cs),
(222,1009,o),
(240,976,o),
(281,931,cs),
(321,887,o),
(366,866,o),
(395,866,cs),
(423,866,o),
(468,887,o),
(508,931,cs),
(549,976,o),
(567,1009,o),
(567,1050,cs),
(567,1064,o),
(559,1078,o),
(543,1078,cs),
(521,1078,o),
(489,1058,o),
(445,1012,cs),
(423,990,o),
(411,984,o),
(395,984,cs)
);
}
);
width = 762;
}
);
unicode = 268;
},
{
glyphname = Ccedilla;
lastChange = "2023-12-04 20:30:08 +0000";
layers = (
{
anchors = (
{
name = bottom;
pos = (381,-24);
}
);
layerId = "49F060A0-2273-4F54-8B81-08E0B15B03EC";
shapes = (
{
ref = C;
},
{
closed = 1;
nodes = (
(488,-110,o),
(487,-93,o),
(482,-80,cs),
(462,-16,o),
(393,14,o),
(359,-9,cs),
(348,-17,o),
(331,-34,o),
(331,-59,cs),
(331,-77,o),
(340,-88,o),
(353,-93,cs),
(366,-100,o),
(383,-103,o),
(393,-111,cs),
(401,-116,o),
(406,-123,o),
(406,-134,cs),
(406,-146,o),
(391,-155,o),
(360,-155,cs),
(345,-155,o),
(334,-163,o),
(334,-175,cs),
(334,-194,o),
(350,-197,o),
(375,-197,cs),
(394,-197,o),
(421,-195,o),
(441,-188,cs),
(469,-175,o),
(488,-155,o),
(488,-119,c)
);
}
);
width = 762;
},
{
anchors = (
{
name = bottom;
pos = (381,-24);
}
);
associatedMasterId = "49F060A0-2273-4F54-8B81-08E0B15B03EC";
layerId = "CA900E51-6159-46BC-A4C8-DFD6DEC783BC";
name = "4 Dec 23 at 21:28";
shapes = (
{
closed = 1;
nodes = (
(752,743,o),
(621,811,o),
(470,811,cs),
(250,811,o),
(20,684,o),
(20,398,cs),
(20,184,o),
(175,26,o),
(363,-8,cs),
(375,-10,o),
(379,-17,o),
(385,-28,cs),
(387,-32,o),
(390,-37,o),
(394,-43,cs),
(401,-53,o),
(419,-76,o),
(419,-96,cs),
(419,-109,o),
(409,-120,o),
(395,-120,cs),
(372,-120,o),
(369,-98,o),
(345,-98,cs),
(327,-98,o),
(313,-114,o),
(313,-138,cs),
(313,-171,o),
(348,-200,o),
(403,-200,cs),
(459,-200,o),
(499,-169,o),
(499,-123,cs),
(499,-94,o),
(483,-60,o),
(460,-35,cs),
(449,-22,o),
(452,-15,o),
(469,-14,cs),
(518,-11,o),
(565,-1,o),
(597,13,cs),
(660,43,o),
(674,81,o),
(660,113,cs),
(649,138,o),
(608,166,o),
(562,135,cs),
(521,106,o),
(495,90,o),
(438,90,cs),
(353,90,o),
(283,131,o),
(283,259,cs),
(283,339,o),
(347,425,o),
(435,425,cs),
(495,425,o),
(537,395,o),
(593,395,cs),
(689,395,o),
(752,473,o),
(752,584,cs)
);
}
);
width = 762;
}
);
unicode = 199;
},
{
glyphname = Cdotaccent;
lastChange = "2023-11-16 23:28:50 +0000";
layers = (
{
anchors = (
{
name = top;
pos = (421,1071);
}
);
layerId = "49F060A0-2273-4F54-8B81-08E0B15B03EC";
shapes = (
{
closed = 1;
nodes = (
(338,960,o),
(368,931,o),
(414,931,cs),
(460,931,o),
(490,960,o),
(490,1005,cs),
(490,1049,o),
(460,1077,o),
(414,1077,cs),
(368,1077,o),
(338,1049,o),
(338,1005,cs)
);
},
{
ref = C;
}
);
width = 744;
}
);
unicode = 266;
},
{
color = 10;
glyphname = D;
lastChange = "2023-12-16 15:32:12 +0000";
layers = (
{
layerId = "49F060A0-2273-4F54-8B81-08E0B15B03EC";
shapes = (
{
closed = 1;
nodes = (
(591,-14,o),
(758,205,o),
(758,438,cs),
(758,689,o),
(565,815,o),
(299,815,cs),
(81,815,o),
(18,731,o),
(18,439,cs),
(18,112,o),
(97,-14,o),
(309,-14,cs)
);
},
{
closed = 1;
nodes = (
(193,89,o),
(175,179,o),
(175,286,cs),
(175,397,o),
(194,457,o),
(295,457,cs),
(396,457,o),
(449,400,o),
(449,294,cs),
(449,174,o),
(379,89,o),
(287,89,c)
);
}
);
width = 778;
}
);
unicode = 68;
},
{
glyphname = Dcaron;
lastChange = "2023-11-20 22:52:48 +0000";
layers = (
{
anchors = (
{
name = top;
pos = (316,1082);
}
);
layerId = "49F060A0-2273-4F54-8B81-08E0B15B03EC";
shapes = (
{
ref = D;
},
{
closed = 1;
nodes = (
(334,988,o),
(344,997,o),
(362,1010,cs),
(383,1025,o),
(407,1043,o),
(420,1053,cs),
(454,1077,o),
(479,1095,o),
(498,1077,cs),
(513,1061,o),
(499,1042,o),
(481,1004,cs),
(468,979,o),
(451,947,o),
(431,912,cs),
(404,864,o),
(368,834,o),
(324,834,cs),
(280,834,o),
(244,864,o),
(217,912,cs),
(197,947,o),
(180,979,o),
(167,1004,cs),
(149,1042,o),
(135,1061,o),
(150,1077,cs),
(169,1095,o),
(194,1077,o),
(228,1053,c),
(281,1014,ls),
(305,997,o),
(314,988,o),
(324,988,cs)
);
}
);
width = 773;
}
);
unicode = 270;
},
{
glyphname = Dcroat;
lastChange = "2023-12-03 21:15:36 +0000";
layers = (
{
associatedMasterId = "49F060A0-2273-4F54-8B81-08E0B15B03EC";
backgroundImage = {
imagePath = "/Volumes/ADAM-DOC/DOCUMENTS/Google-project_african languages/20octobre/23 October2023/28 October2023/maremasie2/correctionlisa23-12-1/Screenshot 2023-12-03 at 22.06.12.png";
pos = (-38,-130);
scale = (8.8285,8.8285);
};
layerId = "F1349B71-B770-4B4E-B948-5EAF2BE6EF1F";
name = "3 Dec 23 at 22:15";
shapes = (
{
closed = 1;
nodes = (
(748,-11,o),
(915,205,o),
(915,438,cs),
(915,689,o),
(722,815,o),
(456,815,cs),
(183,815,o),
(175,653,o),
(175,404,cs),
(175,396,o),
(172,390,o),
(164,390,cs),
(36,390,o),
(0,354,o),
(0,309,cs),
(0,262,o),
(38,229,o),
(168,229,cs),
(171,229,o),
(173,229,o),
(177,229,cs),
(185,229,o),
(192,225,o),
(195,210,cs),
(227,55,o),
(311,-11,o),
(466,-11,cs)
);
},
{
closed = 0;
nodes = (
(353,211,l)
);
},
{
closed = 1;
nodes = (
(364,244,o),
(376,247,o),
(386,249,cs),
(463,265,o),
(493,285,o),
(493,311,cs),
(493,337,o),
(466,352,o),
(380,369,cs),
(374,370,o),
(365,372,o),
(352,374,cs),
(349,375,o),
(343,377,o),
(346,384,c),
(360,432,o),
(391,457,o),
(456,457,cs),
(557,457,o),
(610,400,o),
(610,294,cs),
(610,174,o),
(540,94,o),
(448,94,c),
(370,94,o),
(344,153,o),
(338,231,c),
(338,238,o),
(342,241,o),
(347,241,c)
);
},
{
closed = 1;
nodes = (
(258,188,o),
(344,203,o),
(380,211,cs),
(457,227,o),
(487,247,o),
(487,273,cs),
(487,299,o),
(460,314,o),
(374,331,cs),
(352,335,o),
(267,349,o),
(160,349,cs),
(32,349,o),
(-4,313,o),
(-4,268,cs),
(-4,221,o),
(34,188,o),
(164,188,cs)
);
}
);
width = 921;
},
{
layerId = "49F060A0-2273-4F54-8B81-08E0B15B03EC";
name = Regular;
shapes = (
{
closed = 1;
nodes = (
(96,184,o),
(195,186,cs),
(208,186,o),
(215,181,o),
(219,169,cs),
(259,40,o),
(341,-13,o),
(480,-13,cs),
(762,-13,o),
(929,203,o),
(929,436,cs),
(929,687,o),
(736,813,o),
(470,813,cs),
(180,813,o),
(190,638,o),
(190,365,cs),
(190,354,o),
(184,347,o),
(174,347,cs),
(46,347,o),
(10,311,o),
(10,266,cs),
(10,200,o)
);
},
{
closed = 1;
nodes = (
(373,455,o),
(466,455,cs),
(567,455,o),
(623,398,o),
(623,292,cs),
(623,172,o),
(550,92,o),
(458,92,cs),
(398,92,o),
(369,127,o),
(355,180,cs),
(352,194,o),
(359,202,o),
(372,205,cs),
(397,209,o),
(501,230,o),
(501,271,cs),
(501,302,o),
(391,329,o),
(369,332,cs),
(357,334,o),
(348,340,o),
(350,350,cs),
(356,385,o)
);
}
);
width = 935;
}
);
unicode = 272;
},
{
glyphname = Eth;
lastChange = "2023-12-03 21:15:03 +0000";
layers = (
{
associatedMasterId = "49F060A0-2273-4F54-8B81-08E0B15B03EC";
layerId = "CBC9909A-69DE-407B-816D-3CA3C7338C6B";
name = "3 Dec 23 at 22:15";
shapes = (
{
closed = 1;
nodes = (
(758,-10,o),
(925,206,o),
(925,439,cs),
(925,690,o),
(732,816,o),
(466,816,cs),
(248,816,o),
(185,732,o),
(185,440,cs),
(185,428,o),
(185,416,o),
(185,405,cs),
(185,397,o),
(182,391,o),
(174,391,cs),
(46,391,o),
(10,355,o),
(10,310,cs),
(10,263,o),
(48,230,o),
(178,230,cs),
(181,230,o),
(183,230,o),
(187,230,cs),
(195,230,o),
(201,226,o),
(203,220,c),
(237,56,o),
(321,-10,o),
(476,-10,cs)
);
},
{
closed = 1;
nodes = (
(380,95,o),
(345,147,o),
(345,222,cs),
(345,227,o),
(349,230,o),
(354,230,cs),
(484,230,o),
(522,263,o),
(522,310,cs),
(522,354,o),
(487,390,o),
(365,391,cs),
(360,391,o),
(354,394,o),
(357,401,cs),
(373,438,o),
(404,458,o),
(462,458,cs),
(563,458,o),
(616,401,o),
(616,295,cs),
(616,175,o),
(546,95,o),
(454,95,cs)
);
}
);
width = 931;
},
{
layerId = "49F060A0-2273-4F54-8B81-08E0B15B03EC";
name = Regular;
shapes = (
{
closed = 1;
nodes = (
(96,186,o),
(195,188,cs),
(208,188,o),
(215,183,o),
(219,171,cs),
(259,42,o),
(341,-11,o),
(480,-11,cs),
(762,-11,o),
(929,205,o),
(929,438,cs),
(929,689,o),
(736,815,o),
(470,815,cs),
(180,815,o),
(190,640,o),
(190,367,cs),
(190,356,o),
(184,349,o),
(174,349,cs),
(46,349,o),
(10,313,o),
(10,268,cs),
(10,202,o)
);
},
{
closed = 1;
nodes = (
(373,457,o),
(466,457,cs),
(567,457,o),
(623,400,o),
(623,294,cs),
(623,174,o),
(550,94,o),
(458,94,cs),
(398,94,o),
(369,129,o),
(355,182,cs),
(352,196,o),
(359,204,o),
(372,207,cs),
(397,211,o),
(501,232,o),
(501,273,cs),
(501,304,o),
(391,331,o),
(369,334,cs),
(357,336,o),
(348,342,o),
(350,352,cs),
(356,387,o)
);
}
);
width = 935;
}
);
unicode = 208;
},
{
color = 10;
glyphname = E;
lastChange = "2023-12-16 15:32:04 +0000";
layers = (
{
layerId = "49F060A0-2273-4F54-8B81-08E0B15B03EC";
shapes = (
{
closed = 1;
nodes = (
(360,237,o),
(400,225,o),
(437,225,cs),
(482,225,o),
(515,237,o),
(515,280,cs),
(515,323,o),
(482,335,o),
(437,335,cs),
(400,335,o),
(360,328,o),
(315,335,cs),
(302,337,o),
(293,344,o),
(293,356,cs),
(293,431,o),
(370,475,o),
(435,475,cs),
(495,475,o),
(537,445,o),
(593,445,cs),
(689,445,o),
(752,523,o),
(752,596,cs),
(752,743,o),
(621,811,o),
(470,811,cs),
(264,811,o),
(20,684,o),
(20,398,cs),
(20,156,o),
(219,-15,o),
(438,-15,cs),
(497,-15,o),
(559,-4,o),
(597,13,cs),
(660,43,o),
(674,81,o),
(660,113,cs),
(649,138,o),
(608,166,o),
(562,135,cs),
(521,106,o),
(495,89,o),
(449,89,cs),
(375,89,o),
(293,131,o),
(293,208,cs),
(293,220,o),
(302,227,o),
(315,229,cs)
);
}
);
width = 765;
}
);
unicode = 69;
},
{
glyphname = Eacute;
lastChange = "2023-11-16 23:28:50 +0000";
layers = (
{
layerId = "49F060A0-2273-4F54-8B81-08E0B15B03EC";
shapes = (
{
ref = E;
},
{
closed = 1;
nodes = (
(438,890,o),
(385,865,o),
(341,859,cs),
(311,855,o),
(282,857,o),
(269,882,cs),
(253,914,o),
(273,938,o),
(313,958,cs),
(378,991,o),
(383,1044,o),
(429,1070,cs),
(459,1087,o),
(494,1082,o),
(519,1049,cs),
(550,1008,o),
(531,960,o),
(478,920,cs)
);
}
);
width = 744;
}
);
unicode = 201;
},
{
glyphname = Ecaron;
lastChange = "2023-11-24 14:25:43 +0000";
layers = (
{
anchors = (
{
name = top;
pos = (408,1080);
}
);
layerId = "49F060A0-2273-4F54-8B81-08E0B15B03EC";
shapes = (
{
ref = E;
},
{
closed = 1;
nodes = (
(413,986,o),
(423,995,o),
(441,1008,cs),
(462,1023,o),
(486,1041,o),
(499,1051,cs),
(533,1075,o),
(558,1093,o),
(577,1075,cs),
(592,1059,o),
(578,1040,o),
(560,1002,cs),
(547,977,o),
(530,945,o),
(510,910,cs),
(483,862,o),
(447,832,o),
(403,832,cs),
(359,832,o),
(323,862,o),
(296,910,cs),
(276,945,o),
(259,977,o),
(246,1002,cs),
(228,1040,o),
(214,1059,o),
(229,1075,cs),
(248,1093,o),
(273,1075,o),
(307,1051,c),
(360,1012,ls),
(384,995,o),
(393,986,o),
(403,986,cs)
);
}
);
width = 763;
}
);
unicode = 282;
},
{
glyphname = Ecircumflex;
lastChange = "2023-11-16 23:28:50 +0000";
layers = (
{
anchors = (
{
name = top;
pos = (418,1081);
}
);
layerId = "49F060A0-2273-4F54-8B81-08E0B15B03EC";
shapes = (
{
ref = E;
},
{
closed = 1;
nodes = (
(410,928,o),
(401,919,o),
(377,902,cs),
(324,863,l),
(290,839,o),
(265,821,o),
(246,839,cs),
(231,855,o),
(245,874,o),
(263,912,cs),
(276,937,o),
(293,969,o),
(313,1004,cs),
(340,1052,o),
(376,1082,o),
(420,1082,cs),
(464,1082,o),
(500,1052,o),
(527,1004,cs),
(547,969,o),
(564,937,o),
(577,912,cs),
(595,874,o),
(609,855,o),
(594,839,cs),
(575,821,o),
(550,839,o),
(516,863,cs),
(503,873,o),
(479,891,o),
(458,906,cs),
(440,919,o),
(430,928,o),
(420,928,cs)
);
}
);
width = 744;
}
);
unicode = 202;
},
{
glyphname = Edieresis;
lastChange = "2023-12-01 01:39:57 +0000";
layers = (
{
anchors = (
{
name = top;
pos = (424,1020);
}
);
layerId = "49F060A0-2273-4F54-8B81-08E0B15B03EC";
shapes = (
{
ref = E;
},
{
closed = 1;
nodes = (
(250,920,o),
(280,891,o),
(326,891,cs),
(372,891,o),
(402,920,o),
(402,965,cs),
(402,1009,o),
(372,1037,o),
(326,1037,cs),
(280,1037,o),
(250,1009,o),
(250,965,cs)
);
},
{
closed = 1;
nodes = (
(446,920,o),
(476,891,o),
(522,891,cs),
(568,891,o),
(598,920,o),
(598,965,cs),
(598,1009,o),
(568,1037,o),
(522,1037,cs),
(476,1037,o),
(446,1009,o),
(446,965,cs)
);
}
);
width = 744;
}
);
unicode = 203;
},
{
glyphname = Edotaccent;
lastChange = "2023-12-01 01:39:47 +0000";
layers = (
{
anchors = (
{
name = top;
pos = (408,1037);
}
);
layerId = "49F060A0-2273-4F54-8B81-08E0B15B03EC";
shapes = (
{
ref = E;
},
{
closed = 1;
nodes = (
(332,920,o),
(362,891,o),
(408,891,cs),
(454,891,o),
(484,920,o),
(484,965,cs),
(484,1009,o),
(454,1037,o),
(408,1037,cs),
(362,1037,o),
(332,1009,o),
(332,965,cs)
);
}
);
width = 744;
}
);
unicode = 278;
},
{
glyphname = Egrave;
lastChange = "2023-11-16 23:28:50 +0000";
layers = (
{
anchors = (
{
name = top;
pos = (454,1061);
}
);
layerId = "49F060A0-2273-4F54-8B81-08E0B15B03EC";
shapes = (
{
ref = E;
},
{
closed = 1;
nodes = (
(268,961,o),
(249,1009,o),
(280,1050,cs),
(305,1083,o),
(340,1088,o),
(370,1071,cs),
(416,1045,o),
(421,992,o),
(486,959,cs),
(526,939,o),
(546,915,o),
(530,883,cs),
(517,858,o),
(488,856,o),
(458,860,cs),
(414,866,o),
(361,891,o),
(321,921,cs)
);
}
);
width = 744;
}
);
unicode = 200;
},
{
glyphname = Emacron;
lastChange = "2023-12-01 01:40:34 +0000";
layers = (
{
anchors = (
{
name = top;
pos = (380,1045);
}
);
layerId = "49F060A0-2273-4F54-8B81-08E0B15B03EC";
shapes = (
{
ref = E;
},
{
closed = 1;
nodes = (
(209,883,o),
(171,916,o),
(171,963,cs),
(171,1008,o),
(207,1044,o),
(335,1044,cs),
(442,1044,o),
(527,1030,o),
(549,1026,cs),
(635,1009,o),
(662,994,o),
(662,968,cs),
(662,942,o),
(632,922,o),
(555,906,cs),
(519,898,o),
(433,883,o),
(339,883,cs)
);
}
);
width = 744;
}
);
unicode = 274;
},
{
glyphname = Eogonek;
lastChange = "2023-12-04 18:10:16 +0000";
layers = (
{
anchors = (
{
name = bottom;
pos = (407,-3);
}
);
associatedMasterId = "49F060A0-2273-4F54-8B81-08E0B15B03EC";
layerId = "7CDA0D0C-1325-4967-BE1E-2342BF4E1B67";
name = "4 Dec 23 at 19:10";
shapes = (
{
pos = (0,-3);
ref = E;
},
{
closed = 1;
nodes = (
(485,-186,o),
(497,-178,o),
(497,-165,cs),
(497,-152,o),
(485,-145,o),
(467,-145,cs),
(437,-145,o),
(419,-134,o),
(419,-112,cs),
(419,-98,o),
(433,-87,o),
(445,-77,cs),
(468,-58,o),
(478,-34,o),
(452,-8,cs),
(431,11,o),
(394,3,o),
(366,-28,cs),
(326,-73,o),
(332,-130,o),
(372,-165,cs),
(397,-187,o),
(427,-195,o),
(468,-189,c)
);
}
);
width = 744;
},
{
layerId = "49F060A0-2273-4F54-8B81-08E0B15B03EC";
name = Regular;
shapes = (
{
closed = 1;
nodes = (
(235,-20,o),
(448,-20,cs),
(466,-20,o),
(468,-26,o),
(457,-40,cs),
(437,-64,o),
(423,-96,o),
(423,-123,cs),
(423,-169,o),
(463,-200,o),
(519,-200,cs),
(574,-200,o),
(609,-171,o),
(609,-138,cs),
(609,-114,o),
(595,-98,o),
(577,-98,cs),
(553,-98,o),
(550,-120,o),
(527,-120,cs),
(513,-120,o),
(503,-109,o),
(503,-96,cs),
(503,-76,o),
(521,-53,o),
(528,-43,cs),
(537,-30,o),
(542,-20,o),
(542,-12,cs),
(542,-10,o),
(549,-8,o),
(561,-5,cs),
(604,6,o),
(688,46,o),
(661,108,cs),
(650,133,o),
(609,161,o),
(563,130,cs),
(522,101,o),
(496,85,o),
(450,85,cs),
(376,85,o),
(294,126,o),
(294,203,cs),
(294,215,o),
(303,222,o),
(316,224,cs),
(361,232,o),
(401,220,o),
(438,220,cs),
(483,220,o),
(516,232,o),
(516,275,cs),
(516,318,o),
(483,330,o),
(438,330,cs),
(401,330,o),
(361,323,o),
(316,330,cs),
(303,332,o),
(294,339,o),
(294,351,cs),
(294,426,o),
(371,470,o),
(436,470,cs),
(496,470,o),
(538,440,o),
(594,440,cs),
(690,440,o),
(753,518,o),
(753,591,cs),
(753,738,o),
(622,806,o),
(471,806,cs),
(265,806,o),
(21,679,o),
(21,393,cs),
(21,141,o)
);
}
);
width = 766;
}
);
unicode = 280;
},
{
color = 10;
glyphname = F;
lastChange = "2023-12-07 03:15:38 +0000";
layers = (
{
layerId = "49F060A0-2273-4F54-8B81-08E0B15B03EC";
shapes = (
{
closed = 1;
nodes = (
(314,239,o),
(325,240,o),
(334,240,cs),
(368,240,o),
(398,234,o),
(428,234,cs),
(473,234,o),
(506,247,o),
(506,290,cs),
(506,333,o),
(473,346,o),
(428,346,cs),
(402,346,o),
(377,343,o),
(349,343,cs),
(335,343,o),
(319,344,o),
(304,346,cs),
(291,347,o),
(283,352,o),
(283,364,cs),
(283,437,o),
(358,477,o),
(422,477,cs),
(481,477,o),
(522,451,o),
(578,451,cs),
(672,451,o),
(732,527,o),
(732,599,cs),
(732,742,o),
(604,810,o),
(457,810,cs),
(255,810,o),
(15,685,o),
(15,404,cs),
(15,207,o),
(136,67,o),
(198,10,cs),
(216,-5,o),
(234,-16,o),
(253,-16,cs),
(273,-16,o),
(302,0,o),
(302,39,cs),
(302,48,o),
(301,56,o),
(298,65,cs),
(290,91,o),
(283,117,o),
(283,168,cs),
(283,230,o),
(291,237,o),
(304,238,c)
);
}
);
width = 739;
},
{
associatedMasterId = "49F060A0-2273-4F54-8B81-08E0B15B03EC";
layerId = "AA9DCBA4-9BA2-4348-B17E-0CF0C5F33271";
name = "3 Dec 23 at 00:44";
shapes = (
{
closed = 1;
nodes = (
(343,245,o),
(388,233,o),
(427,233,cs),
(472,233,o),
(505,245,o),
(505,288,cs),
(505,331,o),
(472,343,o),
(427,343,cs),
(377,343,o),
(354,339,o),
(305,343,cs),
(292,344,o),
(284,349,o),
(284,361,cs),
(284,434,o),
(358,476,o),
(422,476,cs),
(480,476,o),
(521,447,o),
(576,447,cs),
(669,447,o),
(729,523,o),
(729,594,cs),
(729,736,o),
(602,803,o),
(456,803,cs),
(256,803,o),
(18,679,o),
(18,401,cs),
(18,206,o),
(138,67,o),
(200,11,cs),
(218,-4,o),
(235,-15,o),
(254,-15,cs),
(278,-15,o),
(303,4,o),
(303,39,cs),
(303,67,o),
(253,226,o),
(305,237,cs)
);
}
);
width = 739;
}
);
unicode = 70;
},
{
color = 10;
glyphname = G;
lastChange = "2023-12-07 03:12:47 +0000";
layers = (
{
associatedMasterId = "49F060A0-2273-4F54-8B81-08E0B15B03EC";
hints = (
{
place = (16, 592);
place = (16, 592);
type = Stem;
}
);
layerId = "519D810E-9C69-4543-868D-C7114570BC18";
name = "3 Dec 23 at 04:15";
shapes = (
{
closed = 1;
locked = 1;
nodes = (
(322,436,o),
(277,344,o),
(277,239,cs),
(277,115,o),
(340,56,o),
(421,56,cs),
(482,56,o),
(519,91,o),
(519,125,cs),
(519,167,o),
(502,181,o),
(487,181,cs),
(460,181,o),
(441,181,o),
(422,181,cs),
(378,181,o),
(355,204,o),
(355,234,cs),
(355,264,o),
(378,288,o),
(421,288,cs),
(483,288,o),
(510,288,o),
(540,288,cs),
(569,288,o),
(596,288,o),
(658,288,cs),
(701,288,o),
(724,264,o),
(724,209,cs),
(724,75,o),
(585,-13,o),
(416,-13,cs),
(205,-13,o),
(18,156,o),
(18,381,cs),
(18,629,o),
(184,812,o),
(447,812,cs),
(615,812,o),
(759,735,o),
(759,571,cs),
(759,490,o),
(689,403,o),
(584,403,cs),
(528,403,o),
(485,436,o),
(431,436,cs)
);
}
);
width = 772;
},
{
associatedMasterId = "49F060A0-2273-4F54-8B81-08E0B15B03EC";
layerId = "C29891FC-0058-4263-8C6F-F317610128E4";
name = "7 Dec 23 at 04:06";
shapes = (
{
closed = 1;
locked = 1;
nodes = (
(324,436,o),
(279,344,o),
(279,239,cs),
(279,115,o),
(341,65,o),
(422,65,cs),
(483,65,o),
(536,92,o),
(536,142,cs),
(536,217,o),
(475,186,o),
(439,174,cs),
(383,155,o),
(345,191,o),
(345,228,cs),
(345,306,o),
(485,303,o),
(521,303,cs),
(584,303,o),
(710,284,o),
(710,193,cs),
(710,75,o),
(587,-13,o),
(418,-13,cs),
(207,-13,o),
(20,156,o),
(20,381,cs),
(20,629,o),
(186,812,o),
(449,812,cs),
(617,812,o),
(761,735,o),
(761,571,cs),
(761,490,o),
(691,403,o),
(586,403,cs),
(530,403,o),
(487,436,o),
(433,436,cs)
);
}
);
width = 774;
},
{
layerId = "49F060A0-2273-4F54-8B81-08E0B15B03EC";
name = Regular;
shapes = (
{
closed = 1;
nodes = (
(329,476,o),
(284,384,o),
(284,279,cs),
(284,155,o),
(352,91,o),
(433,91,cs),
(487,91,o),
(537,102,o),
(537,145,cs),
(537,183,o),
(521,191,o),
(501,191,cs),
(470,191,o),
(441,169,o),
(409,169,cs),
(370,169,o),
(345,198,o),
(345,228,cs),
(345,300,o),
(466,303,o),
(512,303,cs),
(570,303,o),
(710,289,o),
(710,193,cs),
(710,75,o),
(587,-13,o),
(418,-13,cs),
(207,-13,o),
(20,156,o),
(20,381,cs),
(20,629,o),
(186,812,o),
(449,812,cs),
(617,812,o),
(752,743,o),
(752,606,cs),
(752,525,o),
(696,443,o),
(591,443,cs),
(535,443,o),
(492,476,o),
(438,476,cs)
);
}
);
width = 765;
}
);
unicode = 71;
},
{
glyphname = Gbreve;
lastChange = "2023-12-04 01:39:28 +0000";
layers = (
{
anchors = (
{
name = top;
pos = (427,936);
}
);
layerId = "49F060A0-2273-4F54-8B81-08E0B15B03EC";
shapes = (
{
ref = G;
},
{
closed = 1;
nodes = (
(296,836,o),
(216,872,o),
(188,939,cs),
(163,1001,o),
(182,1058,o),
(234,1075,cs),
(278,1091,o),
(312,1055,o),
(324,1010,cs),
(341,949,o),
(378,937,o),
(427,937,cs),
(475,937,o),
(511,949,o),
(528,1010,cs),
(540,1055,o),
(573,1089,o),
(617,1075,cs),
(670,1058,o),
(689,1001,o),
(664,938,cs),
(636,870,o),
(552,836,o),
(427,836,cs)
);
}
);
width = 726;
}
);
unicode = 286;
},
{
glyphname = Gcommaaccent;
lastChange = "2023-11-19 01:35:14 +0000";
layers = (
{
anchors = (
{
name = bottom;
pos = (495,-31);
}
);
layerId = "49F060A0-2273-4F54-8B81-08E0B15B03EC";
shapes = (
{
pos = (1,0);
ref = G;
},
{
closed = 1;
nodes = (
(411,-225,o),
(358,-250,o),
(314,-256,cs),
(284,-260,o),
(255,-258,o),
(242,-233,cs),
(226,-201,o),
(246,-177,o),
(286,-157,cs),
(351,-124,o),
(356,-71,o),
(402,-45,cs),
(432,-28,o),
(467,-33,o),
(492,-66,cs),
(523,-107,o),
(504,-155,o),
(451,-195,cs)
);
}
);
width = 741;
}
);
unicode = 290;
},
{
glyphname = Gdotaccent;
lastChange = "2023-12-01 01:40:48 +0000";
layers = (
{
anchors = (
{
name = op;
pos = (408,1038);
}
);
layerId = "49F060A0-2273-4F54-8B81-08E0B15B03EC";
shapes = (
{
ref = G;
},
{
closed = 1;
nodes = (
(332,921,o),
(362,892,o),
(408,892,cs),
(454,892,o),
(484,921,o),
(484,966,cs),
(484,1010,o),
(454,1038,o),
(408,1038,cs),
(362,1038,o),
(332,1010,o),
(332,966,cs)
);
}
);
width = 759;
}
);
unicode = 288;
},
{
color = 10;
glyphname = H;
lastChange = "2023-12-07 03:15:23 +0000";
layers = (
{
associatedMasterId = "49F060A0-2273-4F54-8B81-08E0B15B03EC";
layerId = "995C19E3-602E-4284-B1F4-432C6036B48F";
name = "2 Dec 23 at 21:17";
width = 860;
},
{
associatedMasterId = "49F060A0-2273-4F54-8B81-08E0B15B03EC";
layerId = "6CC951F3-B2F8-4C76-8A71-13D97A0870C4";
name = "2 Dec 23 at 21:41";
shapes = (
{
closed = 1;
nodes = (
(453,512,o),
(453,630,cs),
(453,749,o),
(529,800,o),
(626,800,cs),
(741,800,o),
(840,701,o),
(840,500,cs),
(840,261,o),
(703,81,o),
(626,13,cs),
(601,-10,o),
(576,-25,o),
(548,-9,cs),
(522,6,o),
(514,35,o),
(523,67,cs),
(545,134,o),
(552,184,o),
(482,184,cs),
(469,184,o),
(386,184,o),
(376,184,cs),
(312,184,o),
(312,135,o),
(337,67,cs),
(346,34,o),
(338,5,o),
(312,-10,cs),
(284,-25,o),
(259,-11,o),
(234,12,cs),
(118,115,o),
(20,261,o),
(20,499,cs),
(20,628,o),
(73,800,o),
(234,800,cs),
(331,800,o),
(407,748,o),
(407,629,cs),
(407,512,o),
(319,457,o),
(319,340,cs),
(319,303,o),
(347,288,o),
(378,288,cs),
(394,288,o),
(430,288,o),
(482,288,cs),
(513,288,o),
(541,304,o),
(541,341,cs),
(541,454,o)
);
}
);
width = 860;
},
{
associatedMasterId = "49F060A0-2273-4F54-8B81-08E0B15B03EC";
layerId = "8619F705-B48F-4E5E-BFE2-15477CFDE70B";
name = "3 Dec 23 at 02:00";
shapes = (
{
closed = 1;
nodes = (
(384,184,o),
(378,184,cs),
(308,184,o),
(315,134,o),
(337,67,cs),
(346,35,o),
(338,6,o),
(312,-9,cs),
(284,-25,o),
(259,-10,o),
(234,13,cs),
(157,81,o),
(20,261,o),
(20,500,cs),
(20,701,o),
(119,800,o),
(234,800,cs),
(331,800,o),
(407,749,o),
(407,630,cs),
(407,512,o),
(319,454,o),
(319,341,cs),
(319,304,o),
(347,288,o),
(378,288,cs),
(398,288,o),
(464,288,o),
(484,288,cs),
(515,288,o),
(543,304,o),
(543,341,cs),
(543,454,o),
(455,512,o),
(455,630,cs),
(455,749,o),
(531,800,o),
(628,800,cs),
(743,800,o),
(842,701,o),
(842,500,cs),
(842,261,o),
(705,81,o),
(628,13,cs),
(603,-10,o),
(578,-25,o),
(550,-9,cs),
(524,6,o),
(516,35,o),
(525,67,cs),
(547,134,o),
(554,184,o),
(484,184,cs),
(478,184,o)
);
}
);
width = 862;
},
{
layerId = "49F060A0-2273-4F54-8B81-08E0B15B03EC";
name = Regular;
shapes = (
{
closed = 1;
nodes = (
(427,183,cs),
(335,183,o),
(320,165,o),
(320,136,cs),
(320,97,o),
(339,81,o),
(339,45,cs),
(339,8,o),
(311,-14,o),
(287,-14,cs),
(268,-14,o),
(250,-1,o),
(232,15,cs),
(154,84,o),
(15,266,o),
(15,508,cs),
(15,712,o),
(115,812,o),
(232,812,cs),
(330,812,o),
(407,760,o),
(407,640,cs),
(407,520,o),
(318,458,o),
(318,343,cs),
(318,306,o),
(346,287,o),
(427,287,cs),
(516,287,o),
(544,306,o),
(544,343,cs),
(544,458,o),
(455,520,o),
(455,640,cs),
(455,760,o),
(532,812,o),
(630,812,cs),
(747,812,o),
(847,712,o),
(847,508,cs),
(847,266,o),
(708,84,o),
(630,15,cs),
(612,-1,o),
(594,-14,o),
(575,-14,cs),
(551,-14,o),
(523,8,o),
(523,45,cs),
(523,81,o),
(542,97,o),
(542,136,cs),
(542,165,o),
(527,183,o)
);
}
);
width = 862;
}
);
unicode = 72;
},
{
glyphname = Hbar;
lastChange = "2023-12-02 20:55:00 +0000";
layers = (
{
associatedMasterId = "49F060A0-2273-4F54-8B81-08E0B15B03EC";
layerId = "8C372F12-5143-4FAF-AAA0-292236B985A9";
name = "2 Dec 23 at 21:44";
shapes = (
{
closed = 1;
nodes = (
(185,0,o),
(204,41,o),
(222,158,cs),
(223,165,o),
(229,190,o),
(229,235,cs),
(229,240,o),
(232,243,o),
(237,243,cs),
(241,243,o),
(245,243,o),
(249,243,cs),
(304,243,o),
(360,255,o),
(396,255,cs),
(406,255,o),
(407,254,o),
(408,248,cs),
(414,203,o),
(416,190,o),
(420,158,cs),
(436,43,o),
(457,0,o),
(486,0,cs),
(513,0,o),
(531,39,o),
(550,161,cs),
(556,199,o),
(574,320,o),
(574,470,cs),
(574,485,o),
(574,498,o),
(574,511,cs),
(574,516,o),
(576,519,o),
(579,520,cs),
(611,532,o),
(625,545,o),
(625,561,cs),
(625,578,o),
(611,590,o),
(573,601,cs),
(569,602,o),
(565,606,o),
(565,610,cs),
(565,684,o),
(522,708,o),
(489,708,cs),
(459,708,o),
(434,690,o),
(418,634,cs),
(417,630,o),
(416,628,o),
(401,628,cs),
(371,628,o),
(302,636,o),
(238,637,c),
(233,638,o),
(230,640,o),
(228,645,cs),
(212,691,o),
(188,708,o),
(162,708,cs),
(121,708,o),
(97,668,o),
(90,634,cs),
(89,629,o),
(89,628,o),
(82,626,cs),
(27,612,o),
(7,585,o),
(7,556,cs),
(7,530,o),
(22,508,o),
(63,494,cs),
(69,492,o),
(71,489,o),
(71,485,cs),
(71,480,o),
(71,474,o),
(71,468,cs),
(71,336,o),
(83,219,o),
(92,156,cs),
(108,45,o),
(129,0,o),
(158,0,cs)
);
},
{
closed = 1;
nodes = (
(358,399,o),
(310,404,o),
(262,404,cs),
(259,404,o),
(255,404,o),
(252,404,cs),
(248,404,o),
(245,407,o),
(245,412,cs),
(245,431,o),
(246,452,o),
(246,471,cs),
(246,475,o),
(249,478,o),
(254,478,cs),
(305,478,o),
(352,481,o),
(390,484,c),
(395,484,o),
(399,482,o),
(399,477,cs),
(399,474,o),
(399,473,o),
(399,469,cs),
(399,446,o),
(399,424,o),
(399,407,cs),
(399,399,o),
(397,396,o),
(385,397,c)
);
},
{
closed = 0;
nodes = (
(390,484,l)
);
},
{
closed = 0;
nodes = (
(238,638,l)
);
}
);
width = 634;
},
{
associatedMasterId = "49F060A0-2273-4F54-8B81-08E0B15B03EC";
layerId = "30B74D28-E783-41FE-9DA6-8EC1076B4EA4";
name = "2 Dec 23 at 21:54";
shapes = (
{
closed = 1;
nodes = (
(593,596,o),
(590,613,o),
(590,630,cs),
(590,768,o),
(691,800,o),
(758,800,cs),
(859,800,o),
(941,729,o),
(968,594,cs),
(970,584,o),
(978,576,o),
(990,574,cs),
(1082,560,o),
(1116,546,o),
(1116,523,cs),
(1116,499,o),
(1082,481,o),
(996,465,cs),
(984,463,o),
(976,454,o),
(975,442,cs),
(956,230,o),
(834,76,o),
(763,13,cs),
(736,-11,o),
(713,-25,o),
(685,-9,cs),
(654,9,o),
(653,44,o),
(660,67,cs),
(663,77,o),
(677,115,o),
(677,137,cs),
(677,161,o),
(660,184,o),
(569,184,cs),
(474,184,o),
(457,159,o),
(457,136,cs),
(457,115,o),
(471,77,o),
(474,67,cs),
(483,37,o),
(475,6,o),
(449,-9,cs),
(421,-25,o),
(398,-11,o),
(371,13,cs),
(300,76,o),
(178,230,o),
(159,442,cs),
(158,454,o),
(150,463,o),
(138,465,cs),
(52,481,o),
(18,499,o),
(18,523,cs),
(18,546,o),
(52,560,o),
(144,574,cs),
(156,576,o),
(164,584,o),
(166,594,cs),
(193,729,o),
(275,800,o),
(376,800,cs),
(443,800,o),
(544,768,o),
(544,630,cs),
(544,613,o),
(541,596,o),
(567,596,cs)
);
},
{
closed = 1;
nodes = (
(491,436,o),
(476,433,o),
(468,411,cs),
(463,397,o),
(456,361,o),
(456,337,cs),
(456,304,o),
(469,288,o),
(564,288,cs),
(658,288,o),
(678,304,o),
(678,339,cs),
(678,360,o),
(671,397,o),
(666,411,cs),
(658,433,o),
(639,435,o),
(567,438,c)
);
}
);
width = 1134;
},
{
layerId = "49F060A0-2273-4F54-8B81-08E0B15B03EC";
name = Regular;
shapes = (
{
closed = 1;
nodes = (
(481,9,o),
(482,44,o),
(475,67,cs),
(472,77,o),
(458,115,o),
(458,137,cs),
(458,161,o),
(475,184,o),
(568,184,cs),
(661,184,o),
(678,161,o),
(678,137,cs),
(678,115,o),
(664,77,o),
(661,67,cs),
(654,44,o),
(655,9,o),
(686,-9,cs),
(714,-25,o),
(737,-11,o),
(764,13,cs),
(835,76,o),
(957,230,o),
(976,442,cs),
(977,454,o),
(986,463,o),
(998,465,cs),
(1084,481,o),
(1118,499,o),
(1118,523,cs),
(1118,546,o),
(1084,560,o),
(992,574,cs),
(979,576,o),
(971,584,o),
(969,594,cs),
(942,729,o),
(860,801,o),
(759,801,cs),
(692,801,o),
(591,768,o),
(591,630,cs),
(591,613,o),
(594,596,o),
(568,596,cs),
(542,596,o),
(545,613,o),
(545,630,cs),
(545,768,o),
(444,801,o),
(377,801,cs),
(279,801,o),
(199,734,o),
(170,608,cs),
(168,600,o),
(161,594,o),
(151,593,cs),
(47,582,o),
(16,553,o),
(16,517,cs),
(16,482,o),
(47,455,o),
(142,444,cs),
(153,443,o),
(160,436,o),
(161,425,cs),
(185,222,o),
(303,74,o),
(372,13,cs),
(399,-11,o),
(422,-25,o),
(450,-9,cs)
);
},
{
closed = 1;
nodes = (
(464,288,o),
(444,302,o),
(458,376,cs),
(469,436,o),
(496,437,o),
(568,440,c),
(640,437,o),
(667,436,o),
(678,376,cs),
(692,302,o),
(672,288,o),
(568,288,cs)
);
}
);
width = 1136;
}
);
unicode = 294;
},
{
color = 10;
glyphname = I;
lastChange = "2023-11-20 12:50:09 +0000";
layers = (
{
layerId = "49F060A0-2273-4F54-8B81-08E0B15B03EC";
shapes = (
{
closed = 1;
nodes = (
(103,809,o),
(25,731,o),
(25,589,cs),
(25,398,o),
(66,202,o),
(100,83,cs),
(119,20,o),
(145,-17,o),
(194,-17,cs),
(243,-17,o),
(269,20,o),
(288,83,cs),
(322,202,o),
(363,398,o),
(363,589,cs),
(363,731,o),
(285,809,o),
(194,809,c)
);
}
);
width = 388;
}
);
unicode = 73;
},
{
glyphname = Iacute;
lastChange = "2023-11-19 01:18:09 +0000";
layers = (
{
anchors = (
{
name = "new anchor";
pos = (204,1068);
}
);
layerId = "49F060A0-2273-4F54-8B81-08E0B15B03EC";
shapes = (
{
ref = I;
},
{
closed = 1;
nodes = (
(234,893,o),
(181,868,o),
(137,862,cs),
(107,858,o),
(78,860,o),
(65,885,cs),
(49,917,o),
(69,941,o),
(109,961,cs),
(174,994,o),
(179,1047,o),
(225,1073,cs),
(255,1090,o),
(290,1085,o),
(315,1052,cs),
(346,1011,o),
(327,963,o),
(274,923,cs)
);
}
);
width = 384;
}
);
unicode = 205;
},
{
glyphname = Icircumflex;
lastChange = "2023-11-16 23:28:50 +0000";
layers = (
{
anchors = (
{
name = top;
pos = (198,1076);
}
);
layerId = "49F060A0-2273-4F54-8B81-08E0B15B03EC";
shapes = (
{
ref = I;
},
{
closed = 1;
nodes = (
(187,928,o),
(178,919,o),
(154,902,cs),
(101,863,l),
(67,839,o),
(42,821,o),
(23,839,cs),
(8,855,o),
(22,874,o),
(40,912,cs),
(53,937,o),
(70,969,o),
(90,1004,cs),
(117,1052,o),
(153,1082,o),
(197,1082,cs),
(241,1082,o),
(277,1052,o),
(304,1004,cs),
(324,969,o),
(341,937,o),
(354,912,cs),
(372,874,o),
(386,855,o),
(371,839,cs),
(352,821,o),
(327,839,o),
(293,863,cs),
(280,873,o),
(256,891,o),
(235,906,cs),
(217,919,o),
(207,928,o),
(197,928,cs)
);
}
);
width = 398;
}
);
unicode = 206;
},
{
glyphname = Idieresis;
lastChange = "2023-12-01 01:44:36 +0000";
layers = (
{
anchors = (
{
name = top;
pos = (192,994);
}
);
layerId = "49F060A0-2273-4F54-8B81-08E0B15B03EC";
shapes = (
{
ref = I;
},
{
closed = 1;
nodes = (
(18,920,o),
(48,891,o),
(94,891,cs),
(140,891,o),
(170,920,o),
(170,965,cs),
(170,1009,o),
(140,1037,o),
(94,1037,cs),
(48,1037,o),
(18,1009,o),
(18,965,cs)
);
},
{
closed = 1;
nodes = (
(214,920,o),
(244,891,o),
(290,891,cs),
(336,891,o),
(366,920,o),
(366,965,cs),
(366,1009,o),
(336,1037,o),
(290,1037,cs),
(244,1037,o),
(214,1009,o),
(214,965,cs)
);
}
);
width = 411;
}
);
unicode = 207;
},
{
glyphname = Idotaccent;
lastChange = "2023-12-01 01:44:51 +0000";
layers = (
{
anchors = (
{
name = top;
pos = (195,1037);
}
);
layerId = "49F060A0-2273-4F54-8B81-08E0B15B03EC";
shapes = (
{
ref = I;
},
{
closed = 1;
nodes = (
(119,920,o),
(149,891,o),
(195,891,cs),
(241,891,o),
(271,920,o),
(271,965,cs),
(271,1009,o),
(241,1037,o),
(195,1037,cs),
(149,1037,o),
(119,1009,o),
(119,965,cs)
);
}
);
width = 398;
}
);
unicode = 304;
},
{
glyphname = Igrave;
lastChange = "2023-11-16 23:28:50 +0000";
layers = (
{
layerId = "49F060A0-2273-4F54-8B81-08E0B15B03EC";
shapes = (
{
ref = I;
},
{
closed = 1;
nodes = (
(85,961,o),
(66,1009,o),
(97,1050,cs),
(122,1083,o),
(157,1088,o),
(187,1071,cs),
(233,1045,o),
(238,992,o),
(303,959,cs),
(343,939,o),
(363,915,o),
(347,883,cs),
(334,858,o),
(305,856,o),
(275,860,cs),
(231,866,o),
(178,891,o),
(138,921,cs)
);
}
);
width = 405;
}
);
unicode = 204;
},
{
glyphname = Imacron;
lastChange = "2023-12-01 01:45:04 +0000";
layers = (
{
anchors = (
{
name = top;
pos = (216,1082);
}
);
layerId = "49F060A0-2273-4F54-8B81-08E0B15B03EC";
shapes = (
{
pos = (18,0);
ref = I;
},
{
closed = 1;
nodes = (
(29,884,o),
(-9,917,o),
(-9,964,cs),
(-9,1009,o),
(27,1045,o),
(155,1045,cs),
(262,1045,o),
(347,1031,o),
(369,1027,cs),
(455,1010,o),
(482,995,o),
(482,969,cs),
(482,943,o),
(452,923,o),
(375,907,cs),
(339,899,o),
(253,884,o),
(159,884,cs)
);
}
);
width = 473;
}
);
unicode = 298;
},
{
glyphname = Iogonek;
lastChange = "2023-11-20 21:41:53 +0000";
layers = (
{
anchors = (
{
name = bottom;
pos = (199,0);
}
);
layerId = "49F060A0-2273-4F54-8B81-08E0B15B03EC";
shapes = (
{
ref = I;
},
{
closed = 1;
nodes = (
(264,-190,o),
(276,-182,o),
(276,-169,cs),
(276,-156,o),
(264,-149,o),
(246,-149,cs),
(216,-149,o),
(198,-138,o),
(198,-116,cs),
(198,-102,o),
(212,-91,o),
(224,-81,cs),
(247,-62,o),
(257,-38,o),
(231,-12,cs),
(210,7,o),
(173,-1,o),
(145,-32,cs),
(105,-77,o),
(111,-134,o),
(151,-169,cs),
(176,-191,o),
(206,-199,o),
(247,-193,c)
);
}
);
width = 398;
}
);
unicode = 302;
},
{
color = 10;
glyphname = J;
lastChange = "2023-12-07 03:52:02 +0000";
layers = (
{
layerId = "49F060A0-2273-4F54-8B81-08E0B15B03EC";
shapes = (
{
closed = 1;
nodes = (
(96,-15,o),
(134,-15,o),
(166,-15,cs),
(178,-15,o),
(231,-12,o),
(283,21,cs),
(383,85,o),
(482,269,o),
(482,481,cs),
(482,707,o),
(369,811,o),
(252,811,cs),
(152,811,o),
(79,735,o),
(93,638,cs),
(101,584,o),
(141,485,o),
(166,425,cs),
(207,327,o),
(223,260,o),
(223,209,cs),
(223,105,o),
(157,90,o),
(128,90,cs),
(102,90,o),
(78,90,o),
(65,90,cs),
(28,90,o),
(10,67,o),
(10,38,cs),
(10,10,o),
(31,-4,o),
(64,-10,cs)
);
}
);
width = 500;
}
);
unicode = 74;
},
{
color = 10;
glyphname = K;
lastChange = "2023-12-16 15:29:59 +0000";
layers = (
{
layerId = "49F060A0-2273-4F54-8B81-08E0B15B03EC";
shapes = (
{
closed = 1;
locked = 1;
nodes = (
(506,260,o),
(506,289,cs),
(506,305,o),
(515,322,o),
(531,334,cs),
(558,351,o),
(705,447,o),
(684,434,cs),
(757,481,o),
(827,551,o),
(827,641,cs),
(827,734,o),
(752,812,o),
(659,812,cs),
(564,812,o),
(511,731,o),
(488,638,cs),
(478,598,o),
(430,402,o),
(406,368,cs),
(396,354,o),
(382,347,o),
(368,347,cs),
(348,347,o),
(321,361,o),
(321,397,cs),
(321,466,o),
(421,510,o),
(421,629,cs),
(421,737,o),
(344,813,o),
(243,813,cs),
(159,813,o),
(18,741,o),
(18,541,cs),
(18,278,o),
(148,80,o),
(224,12,cs),
(242,-5,o),
(260,-17,o),
(279,-17,cs),
(309,-17,o),
(329,10,o),
(329,40,cs),
(329,67,o),
(310,110,o),
(310,148,cs),
(310,168,o),
(319,194,o),
(335,205,cs),
(344,212,o),
(355,216,o),
(367,216,cs),
(387,216,o),
(410,203,o),
(427,168,cs),
(450,121,o),
(509,37,o),
(523,22,cs),
(538,5,o),
(569,-16,o),
(601,-16,cs),
(640,-16,o),
(671,20,o),
(671,54,cs),
(671,73,o),
(663,94,o),
(640,115,cs),
(619,135,o)
);
}
);
width = 835;
},
{
associatedMasterId = "49F060A0-2273-4F54-8B81-08E0B15B03EC";
layerId = "00AE1B4D-90BE-44C2-B809-E0523B4F52EB";
name = "3 Dec 23 at 01:22";
shapes = (
{
closed = 1;
nodes = (
(587,178,o),
(508,245,o),
(508,297,cs),
(508,347,o),
(601,383,o),
(673,427,cs),
(755,475,o),
(832,552,o),
(832,644,cs),
(832,735,o),
(756,812,o),
(662,812,cs),
(566,812,o),
(512,732,o),
(489,641,cs),
(479,600,o),
(430,408,o),
(406,375,cs),
(396,361,o),
(382,354,o),
(367,354,cs),
(346,354,o),
(319,369,o),
(319,403,cs),
(319,471,o),
(421,514,o),
(421,632,cs),
(421,738,o),
(343,813,o),
(241,813,cs),
(156,813,o),
(13,742,o),
(13,545,cs),
(13,272,o),
(187,-12,o),
(277,-12,cs),
(310,-12,o),
(328,18,o),
(328,50,cs),
(328,76,o),
(311,119,o),
(311,156,cs),
(311,218,o),
(352,225,o),
(366,225,cs),
(389,225,o),
(410,208,o),
(427,177,cs),
(455,127,o),
(529,-12,o),
(601,-12,cs),
(645,-12,o),
(674,28,o),
(674,64,cs),
(674,83,o),
(666,105,o),
(643,126,cs)
);
}
);
width = 835;
}
);
unicode = 75;
},
{
glyphname = Kcommaaccent;
lastChange = "2023-11-16 23:28:50 +0000";
layers = (
{
anchors = (
{
name = bottom;
pos = (456,-35);
}
);
layerId = "49F060A0-2273-4F54-8B81-08E0B15B03EC";
shapes = (
{
ref = K;
},
{
closed = 1;
nodes = (
(377,-225,o),
(324,-250,o),
(280,-256,cs),
(250,-260,o),
(221,-258,o),
(208,-233,cs),
(192,-201,o),
(212,-177,o),
(252,-157,cs),
(317,-124,o),
(322,-71,o),
(368,-45,cs),
(398,-28,o),
(433,-33,o),
(458,-66,cs),
(489,-107,o),
(470,-155,o),
(417,-195,cs)
);
}
);
width = 841;
}
);
unicode = 310;
},
{
color = 10;
glyphname = L;
lastChange = "2023-12-16 15:32:38 +0000";
layers = (
{
associatedMasterId = "49F060A0-2273-4F54-8B81-08E0B15B03EC";
layerId = "A33F79CB-A68F-4D9F-9A07-ACA488F2D0AA";
name = "22 Nov 23 at 08:28";
shapes = (
{
closed = 1;
nodes = (
(360,505,o),
(405,614,o),
(405,664,cs),
(405,759,o),
(326,811,o),
(245,811,cs),
(128,811,o),
(15,711,o),
(15,494,cs),
(15,275,o),
(115,95,o),
(230,20,cs),
(271,-6,o),
(320,-15,o),
(387,-15,cs),
(451,-15,o),
(487,-7,o),
(505,-3,cs),
(535,4,o),
(555,19,o),
(555,47,cs),
(555,74,o),
(534,97,o),
(499,97,cs),
(447,97,o),
(336,88,o),
(300,129,cs),
(267,167,o),
(251,247,o),
(329,432,cs)
);
}
);
visible = 1;
width = 565;
},
{
associatedMasterId = "49F060A0-2273-4F54-8B81-08E0B15B03EC";
backgroundImage = {
imagePath = "/Volumes/ADAM-DOC/DOCUMENTS/Google-project_african languages/20octobre/23 October2023/28 October2023/maremasie2/correction2023-11-20/Screenshot 2023-11-22 at 08.11.17.png";
pos = (-385,-2372);
scale = (13.1772,13.1772);
};
layerId = "FF1DE1CB-7997-4267-AC6F-8973EE21F95A";
name = "3 Dec 23 at 02:35";
shapes = (
{
closed = 1;
nodes = (
(449,-15,o),
(574,13,o),
(574,131,cs),
(574,178,o),
(554,223,o),
(528,223,cs),
(507,223,o),
(491,192,o),
(469,161,cs),
(447,130,o),
(427,110,o),
(405,99,cs),
(355,74,o),
(281,83,o),
(247,123,cs),
(205,172,o),
(249,234,o),
(335,432,cs),
(388,555,o),
(411,624,o),
(411,669,cs),
(411,735,o),
(360,811,o),
(240,811,cs),
(157,811,o),
(18,749,o),
(18,398,cs),
(18,118,o),
(92,-15,o),
(335,-15,cs)
);
}
);
width = 584;
},
{
layerId = "49F060A0-2273-4F54-8B81-08E0B15B03EC";
name = Regular;
shapes = (
{
closed = 1;
nodes = (
(302,89,o),
(264,99,o),
(246,124,cs),
(180,216,o),
(411,513,o),
(411,663,cs),
(411,735,o),
(358,811,o),
(249,811,cs),
(157,811,o),
(18,757,o),
(18,391,cs),
(18,124,o),
(92,-15,o),
(330,-15,cs),
(394,-15,o),
(453,-5,o),
(494,13,cs),
(553,39,o),
(572,82,o),
(557,113,cs),
(549,129,o),
(518,171,o),
(458,134,cs),
(432,118,o),
(403,89,o),
(339,89,cs)
);
}
);
width = 572;
}
);
unicode = 76;
},
{
glyphname = Lacute;
lastChange = "2023-11-16 23:28:50 +0000";
layers = (
{
anchors = (
{
name = top;
pos = (304,1075);
}
);
layerId = "49F060A0-2273-4F54-8B81-08E0B15B03EC";
shapes = (
{
ref = L;
},
{
closed = 1;
nodes = (
(280,890,o),
(227,865,o),
(183,859,cs),
(153,855,o),
(124,857,o),
(111,882,cs),
(95,914,o),
(115,938,o),
(155,958,cs),
(220,991,o),
(225,1044,o),
(271,1070,cs),
(301,1087,o),
(336,1082,o),
(361,1049,cs),
(392,1008,o),
(373,960,o),
(320,920,cs)
);
}
);
width = 537;
}
);
unicode = 313;
},
{
glyphname = Lcaron;
lastChange = "2023-11-28 13:29:55 +0000";
layers = (
{
anchors = (
{
name = topright;
pos = (240,811);
}
);
layerId = "49F060A0-2273-4F54-8B81-08E0B15B03EC";
shapes = (
{
ref = L;
},
{
closed = 1;
nodes = (
(464,643,o),
(430,642,o),
(430,614,cs),
(430,582,o),
(468,573,o),
(491,573,cs),
(561,573,o),
(619,623,o),
(619,703,cs),
(619,782,o),
(581,799,o),
(548,799,cs),
(521,799,o),
(497,783,o),
(497,752,cs),
(497,740,o),
(503,710,o),
(503,697,cs),
(503,680,o),
(495,670,o),
(485,661,cs)
);
}
);
width = 610;
}
);
unicode = 317;
},
{
glyphname = Lcommaaccent;
lastChange = "2023-11-23 00:10:48 +0000";
layers = (
{
anchors = (
{
name = bottom;
pos = (298,-38);
}
);
layerId = "49F060A0-2273-4F54-8B81-08E0B15B03EC";
shapes = (
{
ref = L;
},
{
closed = 1;
nodes = (
(338,-225,o),
(285,-250,o),
(241,-256,cs),
(211,-260,o),
(182,-258,o),
(169,-233,cs),
(153,-201,o),
(173,-177,o),
(213,-157,cs),
(278,-124,o),
(283,-71,o),
(329,-45,cs),
(359,-28,o),
(394,-33,o),
(419,-66,cs),
(450,-107,o),
(431,-155,o),
(378,-195,cs)
);
}
);
width = 611;
}
);
unicode = 315;
},
{
glyphname = Lslash;
lastChange = "2023-12-03 04:34:25 +0000";
layers = (
{
associatedMasterId = "49F060A0-2273-4F54-8B81-08E0B15B03EC";
layerId = "A1882019-A6D6-4BE4-BB34-EE3A261D0BF5";
name = "24 Nov 23 at 15:00";
shapes = (
{
closed = 1;
nodes = (
(450,628,o),
(463,618,o),
(472,600,cs),
(491,559,o),
(477,511,o),
(368,454,cs),
(364,452,o),
(362,447,o),
(361,445,cs),
(360,442,o),
(357,436,o),
(355,432,cs),
(277,247,o),
(293,167,o),
(326,129,cs),
(362,88,o),
(473,97,o),
(525,97,cs),
(560,97,o),
(581,74,o),
(581,47,cs),
(581,19,o),
(561,4,o),
(531,-3,cs),
(513,-7,o),
(477,-15,o),
(413,-15,cs),
(346,-15,o),
(297,-6,o),
(256,20,cs),
(170,76,o),
(93,191,o),
(59,338,cs),
(58,342,o),
(55,345,o),
(51,345,cs),
(21,345,o),
(7,350,o),
(0,365,cs),
(-10,385,o),
(0,410,o),
(39,445,cs),
(42,447,o),
(42,453,o),
(42,457,cs),
(42,469,o),
(41,481,o),
(41,494,cs),
(41,711,o),
(154,811,o),
(271,811,cs),
(352,811,o),
(431,759,o),
(431,664,cs),
(431,657,o),
(430,654,o),
(430,646,cs),
(430,643,o),
(430,637,o),
(437,634,c)
);
},
{
closed = 0;
nodes = (
(42,444,l)
);
}
);
width = 567;
},
{
associatedMasterId = "49F060A0-2273-4F54-8B81-08E0B15B03EC";
layerId = "CAB34D65-5DE1-4668-94A6-41FC7C4F6DD0";
name = "3 Dec 23 at 05:17";
shapes = (
{
closed = 1;
nodes = (
(473,501,o),
(525,528,o),
(567,550,cs),
(663,605,o),
(675,657,o),
(649,704,cs),
(622,751,o),
(571,767,o),
(475,711,cs),
(472,709,o),
(469,707,o),
(466,705,cs),
(460,701,o),
(455,707,o),
(449,721,cs),
(429,769,o),
(378,811,o),
(289,811,cs),
(210,811,o),
(83,756,o),
(69,454,cs),
(68,442,o),
(64,434,o),
(55,428,cs),
(7,394,o),
(-43,359,o),
(-95,321,cs),
(-129,294,o),
(-135,278,o),
(-125,258,cs),
(-113,238,o),
(-97,236,o),
(-55,252,c),
(47,298,ls),
(61,304,o),
(71,298,o),
(72,282,cs),
(93,82,o),
(178,-15,o),
(384,-15,cs),
(443,-15,o),
(505,-4,o),
(543,13,cs),
(606,43,o),
(620,81,o),
(606,113,cs),
(595,138,o),
(554,166,o),
(508,135,cs),
(467,106,o),
(441,90,o),
(384,90,cs),
(349,91,o),
(316,99,o),
(296,123,cs),
(254,172,o),
(298,234,o),
(384,432,cs),
(387,438,o),
(389,444,o),
(391,449,cs),
(395,459,o),
(401,465,o),
(410,470,cs)
);
}
);
width = 645;
},
{
associatedMasterId = "49F060A0-2273-4F54-8B81-08E0B15B03EC";
layerId = "C6177F3D-5626-498A-B4CD-8C743291C317";
name = "3 Dec 23 at 05:34";
shapes = (
{
closed = 1;
nodes = (
(80,342,o),
(77,345,o),
(73,345,cs),
(43,345,o),
(29,350,o),
(22,365,cs),
(13,385,o),
(23,413,o),
(59,443,cs),
(64,447,o),
(64,452,o),
(64,457,cs),
(64,471,o),
(63,477,o),
(63,497,cs),
(63,709,o),
(176,811,o),
(292,811,cs),
(374,811,o),
(453,759,o),
(453,666,cs),
(453,655,o),
(452,655,o),
(452,646,cs),
(452,643,o),
(452,637,o),
(459,634,c),
(472,628,o),
(485,618,o),
(494,600,cs),
(513,562,o),
(501,512,o),
(390,454,cs),
(387,452,o),
(385,449,o),
(383,445,cs),
(353,370,o),
(274,180,o),
(308,123,cs),
(326,93,o),
(407,70,o),
(466,99,cs),
(488,110,o),
(508,130,o),
(530,161,cs),
(552,192,o),
(569,223,o),
(589,223,cs),
(615,223,o),
(635,178,o),
(635,131,cs),
(635,13,o),
(510,-15,o),
(396,-15,cs),
(170,-15,o),
(83,96,o),
(81,338,c)
);
}
);
width = 645;
},
{
layerId = "49F060A0-2273-4F54-8B81-08E0B15B03EC";
name = Regular;
shapes = (
{
closed = 1;
nodes = (
(584,-15,o),
(646,-4,o),
(684,13,cs),
(747,43,o),
(761,81,o),
(747,113,cs),
(736,138,o),
(695,166,o),
(649,135,cs),
(608,106,o),
(582,90,o),
(525,90,cs),
(490,91,o),
(457,99,o),
(437,123,cs),
(402,163,o),
(426,213,o),
(484,340,cs),
(489,351,o),
(495,356,o),
(506,360,cs),
(592,390,o),
(663,415,o),
(718,436,cs),
(820,479,o),
(838,530,o),
(817,580,cs),
(796,629,o),
(747,651,o),
(645,608,cs),
(634,603,o),
(623,598,o),
(612,593,cs),
(596,585,o),
(588,593,o),
(592,610,cs),
(598,633,o),
(601,653,o),
(601,669,cs),
(601,735,o),
(550,811,o),
(430,811,cs),
(347,811,o),
(208,749,o),
(208,398,cs),
(208,389,o),
(203,383,o),
(193,377,cs),
(32,289,ls),
(-5,267,o),
(-13,252,o),
(-5,231,cs),
(4,210,o),
(21,206,o),
(63,217,cs),
(108,231,o),
(152,244,o),
(193,258,cs),
(207,262,o),
(216,256,o),
(218,242,cs),
(246,69,o),
(332,-15,o),
(525,-15,cs)
);
}
);
width = 813;
}
);
unicode = 321;
},
{
color = 10;
glyphname = M;
kernLeft = "10";
kernRight = "10";
lastChange = "2023-12-07 03:10:08 +0000";
layers = (
{
associatedMasterId = "49F060A0-2273-4F54-8B81-08E0B15B03EC";
layerId = "DB092CDE-D404-4469-ACDE-CA452963F63A";
name = "3 Dec 23 at 03:07";
shapes = (
{
closed = 0;
nodes = (
(852,904,l)
);
},
{
closed = 1;
nodes = (
(492,237,o),
(497,265,o),
(497,307,cs),
(497,322,o),
(497,339,o),
(496,357,cs),
(496,419,o),
(497,451,o),
(503,552,cs),
(516,751,o),
(600,804,o),
(691,804,cs),
(815,804,o),
(911,704,o),
(911,503,cs),
(911,264,o),
(774,84,o),
(697,16,cs),
(678,-1,o),
(661,-13,o),
(642,-13,cs),
(634,-13,o),
(626,-11,o),
(618,-6,cs),
(600,5,o),
(591,22,o),
(591,44,cs),
(591,52,o),
(592,61,o),
(595,71,cs),
(615,142,o),
(640,234,o),
(640,303,cs),
(640,329,o),
(637,343,o),
(633,356,cs),
(626,379,o),
(618,389,o),
(600,389,cs),
(591,389,o),
(574,383,o),
(570,351,cs),
(567,328,o),
(567,307,o),
(567,288,cs),
(567,141,o),
(536,90,o),
(467,90,cs),
(398,90,o),
(367,141,o),
(367,288,cs),
(367,307,o),
(367,328,o),
(364,351,cs),
(360,383,o),
(343,389,o),
(334,389,cs),
(316,389,o),
(308,379,o),
(301,356,cs),
(297,343,o),
(294,329,o),
(294,303,cs),
(294,234,o),
(319,142,o),
(339,71,cs),
(342,61,o),
(343,52,o),
(343,44,cs),
(343,22,o),
(334,5,o),
(316,-6,cs),
(308,-11,o),
(300,-13,o),
(292,-13,cs),
(273,-13,o),
(256,-1,o),
(237,16,cs),
(160,84,o),
(23,264,o),
(23,503,cs),
(23,704,o),
(119,804,o),
(243,804,cs),
(334,804,o),
(418,751,o),
(431,552,cs),
(437,451,o),
(438,419,o),
(438,357,cs),
(437,339,o),
(437,322,o),
(437,307,cs),
(437,265,o),
(442,237,o),
(467,237,c)
);
},
{
closed = 0;
nodes = (
(944,904,l)
);
}
);
width = 931;
},
{
associatedMasterId = "49F060A0-2273-4F54-8B81-08E0B15B03EC";
layerId = "8CDA7CF6-C1E1-462E-A5BE-A5B1674C8582";
name = "3 Dec 23 at 03:08";
shapes = (
{
closed = 1;
nodes = (
(351,185,o),
(366,321,o),
(359,360,cs),
(356,377,o),
(345,389,o),
(331,389,cs),
(313,389,o),
(305,379,o),
(298,356,cs),
(294,343,o),
(291,329,o),
(291,303,cs),
(291,234,o),
(316,142,o),
(336,71,cs),
(347,32,o),
(334,7,o),
(313,-6,cs),
(283,-24,o),
(257,-5,o),
(234,16,cs),
(156,86,o),
(20,264,o),
(20,503,cs),
(20,704,o),
(116,804,o),
(240,804,cs),
(331,804,o),
(396,751,o),
(407,629,cs),
(410,596,o),
(420,432,o),
(428,351,cs),
(429,340,o),
(436,310,o),
(466,310,cs),
(495,310,o),
(502,340,o),
(503,351,cs),
(511,432,o),
(521,596,o),
(524,629,cs),
(535,751,o),
(600,804,o),
(691,804,cs),
(815,804,o),
(911,704,o),
(911,503,cs),
(911,264,o),
(774,84,o),
(697,16,cs),
(670,-8,o),
(646,-23,o),
(618,-6,cs),
(593,9,o),
(585,37,o),
(595,71,cs),
(615,142,o),
(640,234,o),
(640,303,cs),
(640,329,o),
(637,343,o),
(633,356,cs),
(626,379,o),
(618,389,o),
(600,389,cs),
(591,389,o),
(576,383,o),
(572,360,cs),
(565,320,o),
(580,185,o),
(466,185,cs)
);
}
);
width = 931;
},
{
layerId = "49F060A0-2273-4F54-8B81-08E0B15B03EC";
name = Regular;
shapes = (
{
closed = 0;
nodes = (
(849,904,l)
);
},
{
closed = 1;
nodes = (
(498,238,o),
(494,266,o),
(494,309,cs),
(494,538,o),
(490,387,o),
(500,554,cs),
(512,758,o),
(598,812,o),
(690,812,cs),
(816,812,o),
(913,710,o),
(913,507,cs),
(913,266,o),
(776,88,o),
(700,18,cs),
(675,-5,o),
(658,-15,o),
(640,-15,cs),
(602,-15,o),
(582,27,o),
(593,70,cs),
(599,94,o),
(639,217,o),
(639,305,cs),
(639,362,o),
(622,392,o),
(602,392,cs),
(568,392,o),
(565,310,o),
(565,289,cs),
(565,141,o),
(533,90,o),
(464,90,cs),
(395,90,o),
(363,141,o),
(363,289,cs),
(363,310,o),
(360,392,o),
(326,392,cs),
(306,392,o),
(289,362,o),
(289,305,cs),
(289,217,o),
(329,94,o),
(335,70,cs),
(346,27,o),
(326,-15,o),
(288,-15,cs),
(270,-15,o),
(253,-5,o),
(228,18,cs),
(152,88,o),
(15,266,o),
(15,507,cs),
(15,710,o),
(112,812,o),
(238,812,cs),
(330,812,o),
(417,758,o),
(428,557,cs),
(437,389,o),
(434,471,o),
(434,309,cs),
(434,266,o),
(432,238,o),
(464,238,c)
);
},
{
closed = 0;
nodes = (
(941,904,l)
);
}
);
width = 928;
}
);
unicode = 77;
},
{
color = 10;
glyphname = N;
kernLeft = "10";
kernRight = "10";
lastChange = "2023-12-07 03:18:23 +0000";
layers = (
{
associatedMasterId = "49F060A0-2273-4F54-8B81-08E0B15B03EC";
layerId = "864EA412-A1B0-4732-9889-1B61E932ACFA";
name = "3 Dec 23 at 02:14";
shapes = (
{
closed = 1;
nodes = (
(339,278,o),
(323,288,o),
(306,288,cs),
(285,288,o),
(267,270,o),
(267,248,cs),
(267,231,o),
(268,212,o),
(295,154,cs),
(337,64,ls),
(349,37,o),
(339,0,o),
(312,-12,cs),
(277,-28,o),
(259,-13,o),
(234,10,cs),
(157,78,o),
(20,258,o),
(20,497,cs),
(20,698,o),
(119,798,o),
(234,798,cs),
(331,798,o),
(397,746,o),
(407,616,cs),
(412,558,o),
(423,457,o),
(431,393,cs),
(444,293,o),
(466,182,o),
(487,133,cs),
(495,115,o),
(503,97,o),
(523,97,cs),
(543,97,o),
(556,113,o),
(559,146,cs),
(566,234,o),
(529,387,o),
(520,517,cs),
(505,729,o),
(592,798,o),
(689,798,cs),
(804,798,o),
(879,698,o),
(879,497,cs),
(879,258,o),
(705,-13,o),
(543,-13,cs),
(439,-13,o),
(371,178,o),
(354,230,cs)
);
}
);
width = 894;
},
{
layerId = "49F060A0-2273-4F54-8B81-08E0B15B03EC";
name = Regular;
shapes = (
{
closed = 1;
nodes = (
(422,-13,o),
(371,141,o),
(350,236,cs),
(339,286,o),
(324,291,o),
(310,291,cs),
(276,291,o),
(267,264,o),
(267,247,cs),
(267,230,o),
(268,210,o),
(295,154,cs),
(328,85,ls),
(337,65,o),
(341,48,o),
(341,34,cs),
(341,2,o),
(320,-15,o),
(296,-15,cs),
(196,-15,o),
(15,256,o),
(15,512,cs),
(15,686,o),
(99,811,o),
(240,811,cs),
(332,811,o),
(395,758,o),
(410,626,cs),
(420,538,o),
(455,234,o),
(490,133,cs),
(500,104,o),
(510,91,o),
(528,91,cs),
(553,91,o),
(565,116,o),
(565,169,cs),
(565,268,o),
(523,453,o),
(523,576,cs),
(523,747,o),
(605,811,o),
(695,811,cs),
(814,811,o),
(890,698,o),
(890,527,cs),
(890,255,o),
(698,-13,o),
(541,-13,cs)
);
}
);
width = 905;
}
);
unicode = 78;
},
{
glyphname = Nacute;
kernLeft = "10";
kernRight = "10";
lastChange = "2023-11-24 14:28:59 +0000";
layers = (
{
anchors = (
{
name = top;
pos = (609,1082);
}
);
layerId = "49F060A0-2273-4F54-8B81-08E0B15B03EC";
shapes = (
{
ref = N;
},
{
closed = 1;
nodes = (
(487,893,o),
(434,868,o),
(390,862,cs),
(360,858,o),
(331,860,o),
(318,885,cs),
(302,917,o),
(322,941,o),
(362,961,cs),
(427,994,o),
(432,1047,o),
(478,1073,cs),
(508,1090,o),
(543,1085,o),
(568,1052,cs),
(599,1011,o),
(580,963,o),
(527,923,cs)
);
}
);
width = 898;
}
);
unicode = 323;
},
{
glyphname = Ncaron;
kernLeft = "10";
kernRight = "10";
lastChange = "2023-11-24 12:37:04 +0000";
layers = (
{
anchors = (
{
name = top;
pos = (459,986);
}
);
layerId = "49F060A0-2273-4F54-8B81-08E0B15B03EC";
shapes = (
{
ref = N;
},
{
closed = 1;
nodes = (
(457,982,o),
(467,991,o),
(485,1004,cs),
(506,1019,o),
(530,1037,o),
(543,1047,cs),
(577,1071,o),
(602,1089,o),
(621,1071,cs),
(636,1055,o),
(622,1036,o),
(604,998,cs),
(591,973,o),
(574,941,o),
(554,906,cs),
(527,858,o),
(491,828,o),
(447,828,cs),
(403,828,o),
(367,858,o),
(340,906,cs),
(320,941,o),
(303,973,o),
(290,998,cs),
(272,1036,o),
(258,1055,o),
(273,1071,cs),
(292,1089,o),
(317,1071,o),
(351,1047,c),
(404,1008,ls),
(428,991,o),
(437,982,o),
(447,982,cs)
);
}
);
width = 898;
}
);
unicode = 327;
},
{
glyphname = Ncommaaccent;
kernLeft = "10";
kernRight = "10";
lastChange = "2023-11-19 02:02:48 +0000";
layers = (
{
anchors = (
{
name = bottom;
pos = (403,-32);
}
);
layerId = "49F060A0-2273-4F54-8B81-08E0B15B03EC";
shapes = (
{
ref = N;
},
{
closed = 1;
nodes = (
(455,-225,o),
(402,-250,o),
(358,-256,cs),
(328,-260,o),
(299,-258,o),
(286,-233,cs),
(270,-201,o),
(290,-177,o),
(330,-157,cs),
(395,-124,o),
(400,-71,o),
(446,-45,cs),
(476,-28,o),
(511,-33,o),
(536,-66,cs),
(567,-107,o),
(548,-155,o),
(495,-195,cs)
);
}
);
width = 898;
}
);
unicode = 325;
},
{
glyphname = Ntilde;
kernLeft = "10";
kernRight = "10";
lastChange = "2023-11-27 14:14:10 +0000";
layers = (
{
anchors = (
{
name = top;
pos = (479,1081);
}
);
layerId = "49F060A0-2273-4F54-8B81-08E0B15B03EC";
shapes = (
{
ref = N;
},
{
closed = 1;
nodes = (
(487,901,o),
(539,889,o),
(591,921,cs),
(639,952,o),
(656,1002,o),
(631,1042,cs),
(616,1065,o),
(589,1071,o),
(567,1057,cs),
(556,1050,o),
(533,1028,o),
(522,1020,cs),
(504,1010,o),
(491,1009,o),
(479,1018,cs),
(397,1082,o),
(345,1094,o),
(292,1059,cs),
(244,1031,o),
(227,980,o),
(252,940,cs),
(266,918,o),
(293,911,o),
(316,925,cs),
(326,932,o),
(350,954,o),
(361,960,cs),
(378,973,o),
(390,973,o),
(404,964,cs)
);
}
);
width = 898;
}
);
unicode = 209;
},
{
glyphname = Eng;
kernLeft = "10";
kernRight = "10";
lastChange = "2023-12-08 15:01:45 +0000";
layers = (
{
associatedMasterId = "49F060A0-2273-4F54-8B81-08E0B15B03EC";
layerId = "7E4B3E24-45FB-4E6A-9828-6C0B2EBD7B13";
name = "7 Dec 23 at 00:56";
shapes = (
{
closed = 1;
nodes = (
(548,-10,o),
(547,-16,cs),
(530,-79,o),
(480,-90,o),
(456,-90,cs),
(392,-90,ls),
(355,-90,o),
(337,-113,o),
(337,-142,cs),
(337,-170,o),
(358,-184,o),
(391,-190,cs),
(423,-196,o),
(462,-195,o),
(494,-195,cs),
(506,-195,o),
(562,-191,o),
(611,-159,cs),
(711,-93,o),
(821,115,o),
(855,330,cs),
(864,388,o),
(872,469,o),
(869,519,c),
(868,696,o),
(793,802,o),
(676,802,cs),
(582,802,o),
(496,733,o),
(510,521,cs),
(518,402,o),
(557,230,o),
(549,151,cs),
(546,121,o),
(536,101,o),
(513,101,cs),
(494,101,o),
(486,116,o),
(477,137,cs),
(455,188,o),
(433,305,o),
(421,397,cs),
(413,459,o),
(402,564,o),
(397,622,cs),
(386,750,o),
(321,802,o),
(231,802,cs),
(106,802,o),
(10,702,o),
(10,501,cs),
(10,262,o),
(147,82,o),
(224,14,cs),
(250,-9,o),
(274,-24,o),
(302,-8,cs),
(337,12,o),
(332,54,o),
(327,68,cs),
(323,80,o),
(297,133,o),
(288,152,cs),
(274,180,o),
(257,213,o),
(257,252,cs),
(257,274,o),
(275,292,o),
(296,292,cs),
(324,292,o),
(335,260,o),
(344,234,cs),
(385,115,o),
(442,-9,o),
(539,-9,cs),
(545,-9,o)
);
}
);
width = 875;
},
{
layerId = "49F060A0-2273-4F54-8B81-08E0B15B03EC";
name = Regular;
shapes = (
{
closed = 1;
nodes = (
(10,712,o),
(108,812,o),
(227,812,cs),
(323,812,o),
(388,745,o),
(423,620,cs),
(442,551,o),
(526,229,o),
(552,163,cs),
(564,133,o),
(573,127,o),
(583,127,c),
(606,127,o),
(615,143,o),
(615,169,cs),
(615,262,o),
(520,477,o),
(510,569,cs),
(494,711,o),
(574,812,o),
(685,812,cs),
(793,812,o),
(869,710,o),
(869,525,cs),
(869,475,o),
(863,392,o),
(855,334,cs),
(821,77,o),
(711,-96,o),
(611,-162,cs),
(562,-195,o),
(506,-199,o),
(494,-199,cs),
(449,-199,o),
(373,-199,o),
(373,-143,cs),
(373,-116,o),
(391,-92,o),
(431,-92,cs),
(443,-92,o),
(467,-95,o),
(481,-95,cs),
(529,-95,o),
(548,-72,o),
(548,-39,cs),
(548,88,o),
(365,294,o),
(289,294,cs),
(269,294,o),
(257,280,o),
(257,247,cs),
(257,215,o),
(279,172,o),
(288,153,cs),
(322,85,ls),
(355,19,o),
(325,-16,o),
(290,-16,cs),
(190,-16,o),
(9,259,o),
(10,513,cs)
);
}
);
width = 874;
}
);
unicode = 330;
},
{
color = 10;
glyphname = O;
kernLeft = "15";
kernRight = "15";
lastChange = "2023-12-07 03:16:21 +0000";
layers = (
{
layerId = "49F060A0-2273-4F54-8B81-08E0B15B03EC";
shapes = (
{
closed = 1;
nodes = (
(169,811,o),
(20,680,o),
(20,451,cs),
(20,171,o),
(207,-14,o),
(437,-14,cs),
(658,-14,o),
(840,170,o),
(840,448,cs),
(840,679,o),
(690,811,o),
(429,811,cs)
);
},
{
closed = 1;
nodes = (
(334,90,o),
(287,156,o),
(287,275,cs),
(287,390,o),
(334,455,o),
(433,455,cs),
(526,455,o),
(573,390,o),
(573,275,cs),
(573,156,o),
(526,90,o),
(433,90,cs)
);
}
);
width = 860;
}
);
unicode = 79;
},
{
glyphname = Oacute;
kernLeft = "15";
kernRight = "15";
lastChange = "2023-11-20 22:58:38 +0000";
layers = (
{
layerId = "49F060A0-2273-4F54-8B81-08E0B15B03EC";
shapes = (
{
ref = O;
},
{
closed = 1;
nodes = (
(464,891,o),
(411,866,o),
(367,860,cs),
(337,856,o),
(308,858,o),
(295,883,cs),
(279,915,o),
(299,939,o),
(339,959,cs),
(404,992,o),
(409,1045,o),
(455,1071,cs),
(485,1088,o),
(520,1083,o),
(545,1050,cs),
(576,1009,o),
(557,961,o),
(504,921,cs)
);
}
);
width = 868;
}
);
unicode = 211;
},
{
glyphname = Ocircumflex;
kernLeft = "15";
kernRight = "15";
lastChange = "2023-11-24 12:40:05 +0000";
layers = (
{
anchors = (
{
name = top;
pos = (412,1082);
}
);
layerId = "49F060A0-2273-4F54-8B81-08E0B15B03EC";
shapes = (
{
ref = O;
},
{
closed = 1;
nodes = (
(410,929,o),
(401,920,o),
(377,903,cs),
(324,864,l),
(290,840,o),
(265,822,o),
(246,840,cs),
(231,856,o),
(245,875,o),
(263,913,cs),
(276,938,o),
(293,970,o),
(313,1005,cs),
(340,1053,o),
(376,1083,o),
(420,1083,cs),
(464,1083,o),
(500,1053,o),
(527,1005,cs),
(547,970,o),
(564,938,o),
(577,913,cs),
(595,875,o),
(609,856,o),
(594,840,cs),
(575,822,o),
(550,840,o),
(516,864,cs),
(503,874,o),
(479,892,o),
(458,907,cs),
(440,920,o),
(430,929,o),
(420,929,cs)
);
}
);
width = 868;
}
);
unicode = 212;
},
{
glyphname = Odieresis;
kernLeft = "15";
kernRight = "15";
lastChange = "2023-12-01 01:45:30 +0000";
layers = (
{
anchors = (
{
name = top;
pos = (425,1041);
}
);
layerId = "49F060A0-2273-4F54-8B81-08E0B15B03EC";
shapes = (
{
ref = O;
},
{
closed = 1;
nodes = (
(251,920,o),
(281,891,o),
(327,891,cs),
(373,891,o),
(403,920,o),
(403,965,cs),
(403,1009,o),
(373,1037,o),
(327,1037,cs),
(281,1037,o),
(251,1009,o),
(251,965,cs)
);
},
{
closed = 1;
nodes = (
(447,920,o),
(477,891,o),
(523,891,cs),
(569,891,o),
(599,920,o),
(599,965,cs),
(599,1009,o),
(569,1037,o),
(523,1037,cs),
(477,1037,o),
(447,1009,o),
(447,965,cs)
);
}
);
width = 868;
}
);
unicode = 214;
},
{
glyphname = Ograve;
kernLeft = "15";
kernRight = "15";
lastChange = "2023-11-20 22:58:57 +0000";
layers = (
{
anchors = (
{
name = top;
pos = (430,1064);
}
);
layerId = "49F060A0-2273-4F54-8B81-08E0B15B03EC";
shapes = (
{
ref = O;
},
{
closed = 1;
nodes = (
(291,961,o),
(272,1009,o),
(303,1050,cs),
(328,1083,o),
(363,1088,o),
(393,1071,cs),
(439,1045,o),
(444,992,o),
(509,959,cs),
(549,939,o),
(569,915,o),
(553,883,cs),
(540,858,o),
(511,856,o),
(481,860,cs),
(437,866,o),
(384,891,o),
(344,921,cs)
);
}
);
width = 868;
}
);
unicode = 210;
},
{
glyphname = Ohungarumlaut;
kernLeft = "15";
kernRight = "15";
lastChange = "2023-12-01 01:45:49 +0000";
layers = (
{
anchors = (
{
name = top;
pos = (491,1068);
}
);
layerId = "49F060A0-2273-4F54-8B81-08E0B15B03EC";
shapes = (
{
ref = O;
},
{
closed = 1;
nodes = (
(465,1040,o),
(468,1001,o),
(426,955,cs),
(390,915,o),
(352,889,o),
(331,875,cs),
(282,843,o),
(260,838,o),
(243,852,cs),
(227,867,o),
(230,890,o),
(257,942,cs),
(269,964,o),
(291,1005,o),
(327,1045,cs),
(368,1091,o),
(407,1092,o),
(436,1066,cs)
);
},
{
closed = 1;
nodes = (
(671,1040,o),
(673,1001,o),
(632,955,cs),
(596,915,o),
(557,889,o),
(537,875,cs),
(488,843,o),
(465,837,o),
(449,852,cs),
(432,867,o),
(436,889,o),
(463,942,cs),
(474,964,o),
(496,1004,o),
(532,1045,cs),
(574,1091,o),
(613,1092,o),
(642,1066,cs)
);
}
);
width = 868;
}
);
unicode = 336;
},
{
glyphname = Omacron;
kernLeft = "15";
kernRight = "15";
lastChange = "2023-12-01 01:46:01 +0000";
layers = (
{
anchors = (
{
name = top;
pos = (445,1082);
}
);
layerId = "49F060A0-2273-4F54-8B81-08E0B15B03EC";
shapes = (
{
closed = 1;
nodes = (
(238,885,o),
(200,918,o),
(200,965,cs),
(200,1010,o),
(236,1046,o),
(364,1046,cs),
(471,1046,o),
(556,1032,o),
(578,1028,cs),
(664,1011,o),
(691,996,o),
(691,970,cs),
(691,944,o),
(661,924,o),
(584,908,cs),
(548,900,o),
(462,885,o),
(368,885,cs)
);
},
{
closed = 1;
nodes = (
(173,811,o),
(24,680,o),
(24,451,cs),
(24,171,o),
(211,-14,o),
(441,-14,cs),
(662,-14,o),
(844,170,o),
(844,448,cs),
(844,679,o),
(694,811,o),
(433,811,cs)
);
},
{
closed = 1;
nodes = (
(338,94,o),
(291,156,o),
(291,275,cs),
(291,390,o),
(338,455,o),
(437,455,cs),
(530,455,o),
(577,390,o),
(577,275,cs),
(577,156,o),
(530,94,o),
(437,94,cs)
);
}
);
width = 868;
}
);
unicode = 332;
},
{
glyphname = Oslash;
kernLeft = "15";
kernRight = "15";
lastChange = "2023-11-20 22:51:31 +0000";
layers = (
{
layerId = "49F060A0-2273-4F54-8B81-08E0B15B03EC";
shapes = (
{
closed = 1;
nodes = (
(99,-32,o),
(120,-28,o),
(160,0,c),
(174,11,o),
(187,21,o),
(202,34,cs),
(211,42,o),
(220,44,o),
(232,38,cs),
(288,7,o),
(353,-10,o),
(421,-10,cs),
(636,-10,o),
(813,170,o),
(813,440,cs),
(813,476,o),
(810,509,o),
(803,540,cs),
(800,553,o),
(808,560,o),
(817,570,cs),
(879,636,o),
(875,685,o),
(841,719,cs),
(812,750,o),
(774,757,o),
(722,723,c),
(706,713,o),
(699,710,o),
(681,723,cs),
(615,770,o),
(524,794,o),
(413,794,cs),
(160,794,o),
(15,666,o),
(15,443,cs),
(15,312,o),
(56,203,o),
(125,125,cs),
(133,115,o),
(135,111,o),
(126,100,cs),
(116,89,o),
(106,78,o),
(96,66,c),
(67,26,o),
(63,7,o),
(82,-13,cs)
);
},
{
closed = 0;
nodes = (
(202,33,l)
);
},
{
closed = 1;
nodes = (
(320,91,o),
(274,151,o),
(274,267,cs),
(274,379,o),
(320,442,o),
(417,442,cs),
(507,442,o),
(553,379,o),
(553,267,cs),
(553,151,o),
(507,91,o),
(417,91,cs)
);
}
);
width = 880;
}
);
unicode = 216;
},
{
glyphname = Otilde;
kernLeft = "15";
kernRight = "15";
lastChange = "2023-11-20 22:50:55 +0000";
layers = (
{
anchors = (
{
name = top;
pos = (313,808);
}
);
hints = (
{
horizontal = 1;
place = (715, 72);
place = (715, 72);
type = Stem;
},
{
horizontal = 1;
place = (659, 116);
place = (659, 116);
type = Stem;
},
{
horizontal = 1;
place = (659, 72);
place = (659, 72);
type = Stem;
}
);
layerId = "49F060A0-2273-4F54-8B81-08E0B15B03EC";
shapes = (
{
ref = o;
},
{
closed = 1;
nodes = (
(345,632,o),
(397,620,o),
(449,652,cs),
(497,683,o),
(514,733,o),
(489,773,cs),
(474,796,o),
(447,802,o),
(425,788,cs),
(414,781,o),
(391,759,o),
(380,751,cs),
(362,741,o),
(349,740,o),
(337,749,cs),
(255,813,o),
(203,825,o),
(150,790,cs),
(102,762,o),
(85,711,o),
(110,671,cs),
(124,649,o),
(151,642,o),
(174,656,cs),
(184,663,o),
(208,685,o),
(219,691,cs),
(236,704,o),
(248,704,o),
(262,695,cs)
);
}
);
width = 626;
}
);
unicode = 213;
},
{
glyphname = OE;
lastChange = "2023-12-05 00:23:20 +0000";
layers = (
{
associatedMasterId = "49F060A0-2273-4F54-8B81-08E0B15B03EC";
layerId = "7E9B54FC-74F7-45A6-88B0-C407002235AA";
name = "2 Dec 23 at 18:53";
shapes = (
{
closed = 1;
nodes = (
(334,94,o),
(287,156,o),
(287,275,cs),
(287,390,o),
(334,455,o),
(433,455,cs),
(526,455,o),
(573,390,o),
(573,275,cs),
(573,156,o),
(526,94,o),
(433,94,cs)
);
},
{
closed = 1;
nodes = (
(658,-14,o),
(840,170,o),
(840,448,cs),
(840,679,o),
(690,811,o),
(429,811,cs),
(169,811,o),
(20,680,o),
(20,451,cs),
(20,171,o),
(207,-14,o),
(437,-14,cs)
);
},
{
closed = 1;
nodes = (
(1080,-12,o),
(1142,-1,o),
(1180,16,cs),
(1243,46,o),
(1257,84,o),
(1243,116,cs),
(1232,141,o),
(1191,169,o),
(1145,138,cs),
(1104,109,o),
(1078,93,o),
(1032,93,cs),
(958,93,o),
(876,134,o),
(876,211,cs),
(876,223,o),
(885,232,o),
(898,232,cs),
(944,232,o),
(971,232,o),
(1033,232,cs),
(1076,232,o),
(1099,255,o),
(1099,285,cs),
(1099,315,o),
(1076,338,o),
(1033,338,cs),
(971,338,o),
(944,338,o),
(898,338,cs),
(885,338,o),
(876,347,o),
(876,359,cs),
(876,434,o),
(953,478,o),
(1018,478,cs),
(1078,478,o),
(1120,448,o),
(1176,448,cs),
(1272,448,o),
(1335,526,o),
(1335,599,cs),
(1335,746,o),
(1204,814,o),
(1053,814,cs),
(847,814,o),
(603,687,o),
(603,401,cs),
(603,159,o),
(802,-12,o),
(1021,-12,cs)
);
}
);
width = 1358;
},
{
associatedMasterId = "49F060A0-2273-4F54-8B81-08E0B15B03EC";
layerId = "B1296737-C75A-430C-AE6C-20946B23DD4C";
name = "2 Dec 23 at 20:43";
shapes = (
{
closed = 1;
nodes = (
(334,94,o),
(287,156,o),
(287,275,cs),
(287,390,o),
(334,455,o),
(433,455,cs),
(526,455,o),
(573,390,o),
(573,275,cs),
(573,156,o),
(526,94,o),
(433,94,cs)
);
},
{
closed = 1;
nodes = (
(723,5,o),
(790,-13,o),
(860,-13,cs),
(919,-13,o),
(981,-2,o),
(1019,15,cs),
(1082,45,o),
(1096,83,o),
(1082,115,cs),
(1071,140,o),
(1030,168,o),
(984,137,cs),
(943,108,o),
(917,92,o),
(871,92,cs),
(797,92,o),
(715,133,o),
(715,210,cs),
(715,222,o),
(724,231,o),
(737,231,cs),
(872,231,ls),
(915,231,o),
(938,254,o),
(938,284,cs),
(938,314,o),
(915,337,o),
(872,337,cs),
(737,337,ls),
(724,337,o),
(715,346,o),
(715,358,cs),
(715,433,o),
(792,477,o),
(857,477,cs),
(917,477,o),
(959,447,o),
(1015,447,cs),
(1111,447,o),
(1174,525,o),
(1174,598,cs),
(1174,745,o),
(1043,813,o),
(892,813,cs),
(822,813,o),
(746,799,o),
(679,769,cs),
(669,765,o),
(659,765,o),
(649,769,cs),
(589,797,o),
(515,811,o),
(429,811,cs),
(169,811,o),
(20,680,o),
(20,451,cs),
(20,171,o),
(207,-14,o),
(437,-14,cs),
(506,-14,o),
(570,4,o),
(627,36,cs),
(639,43,o),
(652,43,o),
(663,37,cs)
);
}
);
width = 1190;
},
{
layerId = "49F060A0-2273-4F54-8B81-08E0B15B03EC";
name = Regular;
shapes = (
{
closed = 1;
nodes = (
(334,94,o),
(287,156,o),
(287,275,cs),
(287,390,o),
(334,455,o),
(433,455,cs),
(526,455,o),
(573,390,o),
(573,275,cs),
(573,156,o),
(526,94,o),
(433,94,cs)
);
},
{
closed = 1;
nodes = (
(797,445,o),
(874,478,o),
(939,478,cs),
(999,478,o),
(1041,448,o),
(1097,448,cs),
(1193,448,o),
(1256,526,o),
(1256,599,cs),
(1256,746,o),
(1125,814,o),
(974,814,cs),
(890,814,o),
(800,794,o),
(723,751,cs),
(710,744,o),
(696,744,o),
(684,751,cs),
(618,790,o),
(532,811,o),
(429,811,cs),
(169,811,o),
(20,680,o),
(20,451,cs),
(20,171,o),
(207,-14,o),
(437,-14,cs),
(519,-14,o),
(596,11,o),
(660,58,cs),
(675,69,o),
(692,69,o),
(707,59,cs),
(775,12,o),
(856,-12,o),
(942,-12,cs),
(1001,-12,o),
(1063,-1,o),
(1101,16,cs),
(1164,46,o),
(1178,84,o),
(1164,116,cs),
(1153,141,o),
(1112,169,o),
(1066,138,cs),
(1025,109,o),
(999,93,o),
(953,93,cs),
(879,93,o),
(797,134,o),
(797,211,cs),
(797,257,o),
(900,233,o),
(941,233,cs),
(986,233,o),
(1019,245,o),
(1019,288,cs),
(1019,331,o),
(986,343,o),
(941,343,cs),
(904,343,o),
(797,321,o),
(797,370,cs)
);
}
);
width = 1272;
}
);
unicode = 338;
},
{
color = 10;
glyphname = P;
lastChange = "2023-12-07 03:16:51 +0000";
layers = (
{
associatedMasterId = "49F060A0-2273-4F54-8B81-08E0B15B03EC";
layerId = "4E5DD427-09B5-4FF3-AF8B-7E98CD572F38";
name = "3 Dec 23 at 00:42";
shapes = (
{
closed = 1;
nodes = (
(25,300,o),
(110,73,o),
(246,-4,cs),
(269,-16,o),
(289,-18,o),
(299,-18,cs),
(317,-18,o),
(330,-4,o),
(330,18,cs),
(330,80,ls),
(330,174,o),
(383,177,o),
(426,177,cs),
(506,177,o),
(574,179,o),
(631,197,cs),
(773,243,o),
(841,349,o),
(841,467,cs),
(841,635,o),
(698,808,o),
(423,808,cs),
(181,808,o),
(25,675,o),
(25,469,cs)
);
},
{
closed = 1;
nodes = (
(354,283,o),
(300,315,o),
(300,376,cs),
(300,446,o),
(369,472,o),
(427,472,cs),
(501,472,o),
(554,429,o),
(554,370,cs),
(554,306,o),
(491,283,o),
(428,283,cs)
);
}
);
visible = 1;
width = 851;
},
{
associatedMasterId = "49F060A0-2273-4F54-8B81-08E0B15B03EC";
layerId = "47E5EBD4-6989-45E2-8F91-3C6551288858";
name = "3 Dec 23 at 00:44";
shapes = (
{
closed = 1;
nodes = (
(355,284,o),
(302,316,o),
(302,376,cs),
(302,445,o),
(370,471,o),
(427,471,cs),
(500,471,o),
(553,429,o),
(553,370,cs),
(553,307,o),
(490,284,o),
(428,284,cs)
);
},
{
closed = 1;
nodes = (
(257,-9,o),
(280,-23,o),
(307,-10,cs),
(333,3,o),
(340,34,o),
(330,64,cs),
(299,171,o),
(335,177,o),
(426,180,cs),
(660,186,o),
(836,240,o),
(836,466,cs),
(836,632,o),
(695,803,o),
(423,803,cs),
(184,803,o),
(30,672,o),
(30,468,cs),
(30,308,o),
(108,96,o),
(233,10,c)
);
}
);
width = 850;
},
{
layerId = "49F060A0-2273-4F54-8B81-08E0B15B03EC";
name = Regular;
shapes = (
{
closed = 1;
nodes = (
(355,284,o),
(302,319,o),
(302,379,cs),
(302,446,o),
(370,472,o),
(427,472,cs),
(500,472,o),
(553,431,o),
(553,373,cs),
(553,311,o),
(490,284,o),
(428,284,cs)
);
},
{
closed = 1;
nodes = (
(165,-15,o),
(284,-15,cs),
(328,-15,o),
(340,24,o),
(330,64,cs),
(327,76,o),
(319,102,o),
(319,125,cs),
(319,174,o),
(357,186,o),
(427,180,cs),
(653,161,o),
(841,261,o),
(841,460,cs),
(841,635,o),
(695,807,o),
(423,807,cs),
(184,807,o),
(24,674,o),
(24,465,cs),
(24,268,o)
);
}
);
width = 851;
}
);
unicode = 80;
},
{
glyphname = Thorn;
lastChange = "2023-12-11 04:54:08 +0000";
layers = (
{
associatedMasterId = "49F060A0-2273-4F54-8B81-08E0B15B03EC";
layerId = "2A28D590-2EAD-4482-84A5-2166346DCBCF";
name = "1 Dec 23 at 04:37";
shapes = (
{
closed = 1;
nodes = (
(232,-19,o),
(253,14,o),
(277,81,cs),
(286,105,o),
(300,160,o),
(314,191,cs),
(318,200,o),
(324,206,o),
(333,206,cs),
(341,206,o),
(349,199,o),
(359,191,cs),
(377,177,o),
(405,167,o),
(428,167,cs),
(483,167,o),
(526,207,o),
(568,259,cs),
(617,319,o),
(640,404,o),
(640,475,cs),
(640,578,o),
(583,658,o),
(505,677,cs),
(459,688,o),
(408,666,o),
(387,635,cs),
(377,620,o),
(373,615,o),
(366,615,cs),
(358,615,o),
(352,619,o),
(350,629,cs),
(344,652,o),
(341,674,o),
(332,698,cs),
(305,770,o),
(246,807,o),
(183,807,cs),
(92,807,o),
(14,729,o),
(14,587,cs),
(14,396,o),
(55,200,o),
(89,81,cs),
(108,18,o),
(134,-19,o),
(183,-19,cs)
);
},
{
closed = 1;
nodes = (
(348,302,o),
(333,307,o),
(326,318,cs),
(317,333,o),
(321,358,o),
(326,397,cs),
(329,423,o),
(349,438,o),
(379,438,cs),
(416,438,o),
(446,429,o),
(446,388,cs),
(446,357,o),
(418,302,o),
(376,302,cs)
);
}
);
width = 650;
},
{
layerId = "49F060A0-2273-4F54-8B81-08E0B15B03EC";
name = Regular;
shapes = (
{
closed = 1;
nodes = (
(328,246,o),
(314,272,o),
(314,324,cs),
(314,372,o),
(341,391,o),
(380,391,cs),
(425,391,o),
(445,368,o),
(445,331,cs),
(445,306,o),
(420,246,o),
(365,246,cs)
);
},
{
closed = 1;
nodes = (
(303,162,o),
(311,167,o),
(320,167,cs),
(328,167,o),
(336,161,o),
(348,151,cs),
(366,137,o),
(386,130,o),
(409,130,cs),
(472,130,o),
(519,175,o),
(559,224,cs),
(609,286,o),
(641,374,o),
(641,449,cs),
(641,577,o),
(572,658,o),
(468,658,cs),
(429,658,o),
(395,649,o),
(371,632,cs),
(366,628,o),
(360,624,o),
(352,624,cs),
(345,624,o),
(338,629,o),
(338,642,cs),
(338,740,o),
(281,809,o),
(183,809,cs),
(92,809,o),
(14,731,o),
(14,589,cs),
(14,398,o),
(55,202,o),
(89,83,cs),
(108,20,o),
(134,-17,o),
(183,-17,cs),
(232,-17,o),
(253,16,o),
(277,83,cs),
(283,99,o),
(292,128,o),
(298,147,cs)
);
}
);
width = 653;
}
);
unicode = 222;
},
{
color = 10;
glyphname = Q;
kernLeft = "15";
kernRight = "15";
lastChange = "2023-12-07 03:51:15 +0000";
layers = (
{
associatedMasterId = "49F060A0-2273-4F54-8B81-08E0B15B03EC";
layerId = "BF472FDD-441C-4058-A62C-31B72D3DD3DC";
name = "22 Nov 23 at 09:22";
shapes = (
{
closed = 1;
nodes = (
(662,-14,o),
(844,170,o),
(844,448,cs),
(844,679,o),
(694,811,o),
(433,811,cs),
(173,811,o),
(24,680,o),
(24,451,cs),
(24,171,o),
(211,-14,o),
(441,-14,cs)
);
},
{
closed = 1;
nodes = (
(641,-201,o),
(665,-177,o),
(668,-148,cs),
(674,-109,o),
(644,-80,o),
(576,-53,cs),
(540,-40,o),
(509,-32,o),
(477,-28,cs),
(412,-17,o),
(354,-28,o),
(311,-49,cs),
(289,-61,o),
(283,-74,o),
(286,-84,cs),
(292,-102,o),
(309,-102,o),
(329,-99,cs),
(350,-95,o),
(374,-87,o),
(394,-91,cs),
(430,-96,o),
(477,-112,o),
(532,-154,c),
(557,-171,o),
(584,-193,o),
(604,-196,cs)
);
},
{
closed = 1;
nodes = (
(338,94,o),
(291,156,o),
(291,275,cs),
(291,390,o),
(338,455,o),
(437,455,cs),
(530,455,o),
(577,390,o),
(577,275,cs),
(577,156,o),
(530,94,o),
(437,94,cs)
);
}
);
visible = 1;
width = 853;
},
{
associatedMasterId = "49F060A0-2273-4F54-8B81-08E0B15B03EC";
layerId = "3B4B08E0-E047-442D-A63F-538096629541";
name = "23 Nov 23 at 01:45";
shapes = (
{
closed = 1;
nodes = (
(339,96,o),
(292,158,o),
(292,277,cs),
(292,392,o),
(339,457,o),
(438,457,cs),
(531,457,o),
(578,392,o),
(578,277,cs),
(578,158,o),
(531,96,o),
(438,96,cs)
);
},
{
closed = 1;
nodes = (
(497,-11,o),
(572,0,o),
(606,0,cs),
(658,0,o),
(738,-15,o),
(759,-15,cs),
(818,-15,o),
(837,8,o),
(837,40,cs),
(837,93,o),
(781,98,o),
(732,93,cs),
(721,92,o),
(715,95,o),
(715,101,cs),
(715,106,o),
(717,108,o),
(723,114,c),
(799,194,o),
(845,310,o),
(845,450,cs),
(845,681,o),
(695,813,o),
(434,813,cs),
(174,813,o),
(25,682,o),
(25,453,cs),
(25,173,o),
(212,-12,o),
(437,-12,cs)
);
}
);
width = 870;
},
{
associatedMasterId = "49F060A0-2273-4F54-8B81-08E0B15B03EC";
layerId = "45AA5BAD-8B57-4C49-86AB-E7072AFD29CB";
name = "23 Nov 23 at 01:46";
shapes = (
{
closed = 1;
nodes = (
(809,-95,o),
(833,-56,o),
(829,-16,cs),
(824,28,o),
(792,54,o),
(730,70,cs),
(711,75,o),
(706,92,o),
(718,105,cs),
(796,186,o),
(844,305,o),
(844,448,cs),
(844,679,o),
(694,811,o),
(433,811,cs),
(173,811,o),
(24,680,o),
(24,451,cs),
(24,235,o),
(135,75,o),
(291,14,cs),
(309,8,o),
(318,-7,o),
(301,-22,cs),
(279,-40,o),
(266,-60,o),
(268,-75,cs),
(268,-80,o),
(270,-84,o),
(273,-86,c),
(277,-92,o),
(284,-94,o),
(289,-93,cs),
(297,-92,o),
(308,-85,o),
(328,-74,cs),
(350,-60,o),
(386,-36,o),
(444,-30,cs),
(494,-25,o),
(561,-32,o),
(650,-69,cs),
(687,-82,o),
(731,-103,o),
(760,-100,cs)
);
},
{
closed = 1;
nodes = (
(291,390,o),
(338,455,o),
(437,455,cs),
(530,455,o),
(577,390,o),
(577,275,cs),
(577,156,o),
(530,94,o),
(437,94,cs),
(338,94,o),
(291,156,o),
(291,275,cs)
);
}
);
visible = 1;
width = 862;
},
{
layerId = "49F060A0-2273-4F54-8B81-08E0B15B03EC";
name = Regular;
shapes = (
{
closed = 1;
nodes = (
(188,-165,o),
(213,-146,cs),
(233,-131,o),
(271,-108,o),
(329,-102,cs),
(379,-97,o),
(446,-104,o),
(535,-141,cs),
(572,-154,o),
(616,-172,o),
(645,-172,cs),
(694,-172,o),
(718,-128,o),
(714,-88,cs),
(709,-44,o),
(676,-17,o),
(611,-1,cs),
(591,4,o),
(588,17,o),
(607,26,cs),
(744,94,o),
(840,246,o),
(840,448,cs),
(840,679,o),
(690,811,o),
(429,811,cs),
(169,811,o),
(20,680,o),
(20,451,cs),
(20,234,o),
(133,73,o),
(291,12,cs),
(307,6,o),
(308,-7,o),
(291,-15,cs),
(256,-31,o),
(221,-53,o),
(191,-78,cs),
(161,-104,o),
(138,-133,o),
(152,-152,cs),
(167,-173,o)
);
},
{
closed = 1;
nodes = (
(287,390,o),
(334,455,o),
(433,455,cs),
(526,455,o),
(573,390,o),
(573,275,cs),
(573,156,o),
(526,91,o),
(433,91,cs),
(334,91,o),
(287,156,o),
(287,275,cs)
);
}
);
visible = 1;
width = 860;
}
);
unicode = 81;
},
{
color = 10;
glyphname = R;
lastChange = "2023-12-07 03:17:28 +0000";
layers = (
{
associatedMasterId = "49F060A0-2273-4F54-8B81-08E0B15B03EC";
layerId = "B6832C63-FE6B-4D93-84F1-CAD089955EE3";
name = "3 Dec 23 at 00:53";
width = 855;
},
{
associatedMasterId = "49F060A0-2273-4F54-8B81-08E0B15B03EC";
layerId = "DA361D3A-1711-49DC-B7D5-E060D36968A2";
name = "3 Dec 23 at 01:08";
shapes = (
{
closed = 1;
nodes = (
(359,284,o),
(305,316,o),
(305,378,cs),
(305,448,o),
(374,475,o),
(433,475,cs),
(508,475,o),
(561,431,o),
(561,372,cs),
(561,307,o),
(498,284,o),
(434,284,cs)
);
},
{
closed = 1;
nodes = (
(26,301,o),
(134,77,o),
(269,0,cs),
(286,-9,o),
(300,-15,o),
(313,-15,cs),
(352,-15,o),
(357,26,o),
(349,56,cs),
(329,132,o),
(326,182,o),
(400,182,cs),
(457,182,o),
(493,128,o),
(499,119,cs),
(524,82,o),
(578,-15,o),
(627,-15,cs),
(661,-15,o),
(709,32,o),
(650,202,cs),
(647,212,o),
(651,220,o),
(660,223,cs),
(766,251,o),
(846,349,o),
(846,467,cs),
(846,468,ls),
(846,636,o),
(702,811,o),
(426,811,cs),
(185,811,o),
(26,677,o),
(26,471,cs)
);
}
);
width = 855;
},
{
associatedMasterId = "49F060A0-2273-4F54-8B81-08E0B15B03EC";
layerId = "BCA43443-1C7A-4EDC-AC3E-543C38DE481E";
name = "3 Dec 23 at 01:19";
shapes = (
{
closed = 1;
nodes = (
(359,282,o),
(304,315,o),
(304,377,cs),
(304,447,o),
(374,474,o),
(433,474,cs),
(508,474,o),
(562,430,o),
(562,371,cs),
(562,306,o),
(498,282,o),
(434,282,cs)
);
},
{
closed = 1;
nodes = (
(667,130,o),
(633,159,o),
(604,189,cs),
(601,192,o),
(593,198,o),
(593,207,c),
(593,215,o),
(600,220,o),
(607,221,cs),
(616,222,o),
(848,242,o),
(848,466,cs),
(848,467,ls),
(848,636,o),
(703,812,o),
(426,812,cs),
(184,812,o),
(24,677,o),
(24,470,cs),
(24,309,o),
(118,104,o),
(241,14,cs),
(261,-1,o),
(279,-14,o),
(298,-14,cs),
(325,-14,o),
(347,11,o),
(347,42,cs),
(347,62,o),
(327,114,o),
(327,147,cs),
(327,167,o),
(336,192,o),
(352,203,cs),
(362,210,o),
(377,214,o),
(392,214,cs),
(419,214,o),
(448,201,o),
(468,168,cs),
(491,130,o),
(551,41,o),
(565,25,cs),
(582,4,o),
(611,-14,o),
(641,-14,cs),
(655,-14,o),
(670,-10,o),
(684,1,cs),
(698,12,o),
(713,32,o),
(713,57,cs),
(713,75,o),
(705,96,o),
(682,117,c)
);
}
);
width = 855;
},
{
guides = (
{
pos = (412,284);
},
{
pos = (433,483);
}
);
layerId = "49F060A0-2273-4F54-8B81-08E0B15B03EC";
name = Regular;
shapes = (
{
closed = 1;
nodes = (
(359,285,o),
(304,320,o),
(304,380,cs),
(304,448,o),
(374,471,o),
(433,471,cs),
(508,471,o),
(562,431,o),
(562,374,cs),
(562,311,o),
(498,285,o),
(434,285,cs)
);
},
{
closed = 1;
nodes = (
(339,-13,o),
(350,27,o),
(340,66,cs),
(328,112,o),
(308,180,o),
(392,180,cs),
(419,180,o),
(445,167,o),
(468,141,cs),
(508,95,o),
(562,-14,o),
(641,-14,cs),
(701,-14,o),
(744,60,o),
(682,117,c),
(667,130,o),
(633,159,o),
(604,189,cs),
(601,192,o),
(593,198,o),
(593,207,cs),
(593,215,o),
(600,220,o),
(607,221,cs),
(616,222,o),
(848,242,o),
(848,467,cs),
(848,636,o),
(703,812,o),
(426,812,cs),
(184,812,o),
(24,677,o),
(24,470,cs),
(24,244,o),
(207,-13,o),
(298,-13,cs)
);
}
);
width = 855;
}
);
unicode = 82;
},
{
glyphname = Racute;
lastChange = "2023-11-20 22:50:27 +0000";
layers = (
{
layerId = "49F060A0-2273-4F54-8B81-08E0B15B03EC";
shapes = (
{
ref = R;
},
{
closed = 1;
nodes = (
(440,891,o),
(387,866,o),
(343,860,cs),
(313,856,o),
(284,858,o),
(271,883,cs),
(255,915,o),
(275,939,o),
(315,959,cs),
(380,992,o),
(385,1045,o),
(431,1071,cs),
(461,1088,o),
(496,1083,o),
(521,1050,cs),
(552,1009,o),
(533,961,o),
(480,921,cs)
);
}
);
width = 848;
}
);
unicode = 340;
},
{
glyphname = Rcaron;
lastChange = "2023-11-24 14:29:12 +0000";
layers = (
{
anchors = (
{
name = top;
pos = (400,1082);
}
);
layerId = "49F060A0-2273-4F54-8B81-08E0B15B03EC";
shapes = (
{
pos = (2,0);
ref = R;
},
{
closed = 1;
nodes = (
(420,984,o),
(430,993,o),
(448,1006,cs),
(469,1021,o),
(493,1039,o),
(506,1049,cs),
(540,1073,o),
(565,1091,o),
(584,1073,cs),
(599,1057,o),
(585,1038,o),
(567,1000,cs),
(554,975,o),
(537,943,o),
(517,908,cs),
(490,860,o),
(454,830,o),
(410,830,cs),
(366,830,o),
(330,860,o),
(303,908,cs),
(283,943,o),
(266,975,o),
(253,1000,cs),
(235,1038,o),
(221,1057,o),
(236,1073,cs),
(255,1091,o),
(280,1073,o),
(314,1049,c),
(367,1010,ls),
(391,993,o),
(400,984,o),
(410,984,cs)
);
}
);
width = 850;
}
);
unicode = 344;
},
{
glyphname = Rcommaaccent;
lastChange = "2023-11-20 22:30:22 +0000";
layers = (
{
anchors = (
{
name = bottom;
pos = (383,-33);
}
);
layerId = "49F060A0-2273-4F54-8B81-08E0B15B03EC";
shapes = (
{
ref = R;
},
{
closed = 1;
nodes = (
(418,-225,o),
(365,-250,o),
(321,-256,cs),
(291,-260,o),
(262,-258,o),
(249,-233,cs),
(233,-201,o),
(253,-177,o),
(293,-157,cs),
(358,-124,o),
(363,-71,o),
(409,-45,cs),
(439,-28,o),
(474,-33,o),
(499,-66,cs),
(530,-107,o),
(511,-155,o),
(458,-195,cs)
);
}
);
width = 848;
}
);
unicode = 342;
},
{
color = 10;
glyphname = S;
lastChange = "2023-12-16 15:33:02 +0000";
layers = (
{
associatedMasterId = "49F060A0-2273-4F54-8B81-08E0B15B03EC";
guides = (
{
pos = (675,706);
}
);
hints = (
{
horizontal = 1;
place = (700, -20);
target = down;
type = TopGhost;
}
);
layerId = "7D607833-7CC4-451C-91FA-D20CE39492CB";
name = "4 Dec 23 at 21:34";
shapes = (
{
closed = 1;
nodes = (
(88,185,o),
(10,327,o),
(10,468,cs),
(10,708,o),
(238,800,o),
(427,800,cs),
(593,800,o),
(725,729,o),
(725,590,cs),
(725,503,o),
(673,433,o),
(581,433,cs),
(515,433,o),
(458,469,o),
(388,469,cs),
(327,469,o),
(313,442,o),
(313,410,cs),
(313,369,o),
(336,341,o),
(385,343,cs),
(555,350,o),
(656,302,o),
(656,184,cs),
(656,69,o),
(561,-14,o),
(340,-14,cs),
(246,-14,o),
(194,1,o),
(163,14,cs),
(113,35,o),
(103,58,o),
(103,82,cs),
(103,130,o),
(142,145,o),
(201,132,cs),
(228,126,o),
(296,105,o),
(359,105,cs),
(431,105,o),
(467,132,o),
(467,165,cs),
(467,185,o),
(453,199,o),
(380,199,c)
);
}
);
width = 735;
},
{
guides = (
{
pos = (625,706);
}
);
hints = (
{
horizontal = 1;
place = (700, -20);
target = down;
type = TopGhost;
}
);
layerId = "49F060A0-2273-4F54-8B81-08E0B15B03EC";
name = Regular;
shapes = (
{
closed = 1;
nodes = (
(157,202,o),
(10,282,o),
(10,488,cs),
(10,673,o),
(152,811,o),
(386,811,cs),
(595,811,o),
(701,735,o),
(701,586,cs),
(701,492,o),
(654,444,o),
(561,444,cs),
(497,444,o),
(443,469,o),
(370,469,cs),
(310,469,o),
(270,451,o),
(270,389,cs),
(270,341,o),
(297,307,o),
(358,307,cs),
(517,307,o),
(614,276,o),
(614,172,cs),
(614,34,o),
(448,-15,o),
(324,-15,cs),
(236,-15,o),
(49,10,o),
(49,89,cs),
(49,120,o),
(72,143,o),
(101,143,cs),
(112,143,o),
(124,140,o),
(137,133,cs),
(197,104,o),
(262,89,o),
(324,89,cs),
(399,89,o),
(460,116,o),
(460,159,cs),
(460,176,o),
(451,202,o),
(377,202,cs)
);
}
);
width = 711;
}
);
unicode = 83;
},
{
glyphname = Sacute;
lastChange = "2023-11-16 23:28:50 +0000";
layers = (
{
layerId = "49F060A0-2273-4F54-8B81-08E0B15B03EC";
shapes = (
{
ref = S;
},
{
closed = 1;
nodes = (
(459,889,o),
(406,864,o),
(362,858,cs),
(332,854,o),
(303,856,o),
(290,881,cs),
(274,913,o),
(294,937,o),
(334,957,cs),
(399,990,o),
(404,1043,o),
(450,1069,cs),
(480,1086,o),
(515,1081,o),
(540,1048,cs),
(571,1007,o),
(552,959,o),
(499,919,cs)
);
}
);
width = 787;
}
);
unicode = 346;
},
{
glyphname = Scaron;
lastChange = "2023-11-16 23:28:50 +0000";
layers = (
{
anchors = (
{
name = top;
pos = (292,884);
}
);
layerId = "49F060A0-2273-4F54-8B81-08E0B15B03EC";
shapes = (
{
ref = s;
},
{
closed = 1;
nodes = (
(302,788,o),
(312,797,o),
(330,810,cs),
(351,825,o),
(375,843,o),
(388,853,cs),
(422,877,o),
(447,895,o),
(466,877,cs),
(481,861,o),
(467,842,o),
(449,804,cs),
(436,779,o),
(419,747,o),
(399,712,cs),
(372,664,o),
(336,634,o),
(292,634,cs),
(248,634,o),
(212,664,o),
(185,712,cs),
(165,747,o),
(148,779,o),
(135,804,cs),
(117,842,o),
(103,861,o),
(118,877,cs),
(137,895,o),
(162,877,o),
(196,853,c),
(249,814,ls),
(273,797,o),
(282,788,o),
(292,788,cs)
);
}
);
width = 565;
}
);
unicode = 352;
},
{
glyphname = Scedilla;
lastChange = "2023-12-04 20:41:21 +0000";
layers = (
{
associatedMasterId = "49F060A0-2273-4F54-8B81-08E0B15B03EC";
layerId = "6FC7B6B5-1778-4BE2-AB4A-C4B49B3FCCB4";
name = " ";
shapes = (
{
closed = 1;
nodes = (
(374,-190,o),
(401,-188,o),
(421,-181,cs),
(449,-168,o),
(468,-148,o),
(468,-112,c),
(468,-103,o),
(467,-86,o),
(462,-73,cs),
(442,-9,o),
(373,21,o),
(339,-2,cs),
(328,-10,o),
(311,-27,o),
(311,-52,cs),
(311,-70,o),
(320,-81,o),
(333,-86,cs),
(346,-93,o),
(363,-96,o),
(373,-104,cs),
(381,-109,o),
(386,-116,o),
(386,-127,cs),
(386,-139,o),
(371,-148,o),
(340,-148,cs),
(325,-148,o),
(314,-156,o),
(314,-168,cs),
(314,-187,o),
(330,-190,o),
(355,-190,cs)
);
},
{
ref = S;
},
{
closed = 1;
nodes = (
(88,185,o),
(10,327,o),
(10,468,cs),
(10,708,o),
(238,800,o),
(427,800,cs),
(593,800,o),
(725,729,o),
(725,590,cs),
(725,503,o),
(673,433,o),
(581,433,cs),
(515,433,o),
(458,469,o),
(388,469,cs),
(327,469,o),
(313,442,o),
(313,410,cs),
(313,369,o),
(336,341,o),
(385,343,cs),
(555,350,o),
(656,302,o),
(656,184,cs),
(656,69,o),
(561,-14,o),
(340,-14,cs),
(246,-14,o),
(194,1,o),
(163,14,cs),
(113,35,o),
(103,58,o),
(103,82,cs),
(103,130,o),
(142,145,o),
(201,132,cs),
(228,126,o),
(296,105,o),
(359,105,cs),
(431,105,o),
(467,132,o),
(467,165,cs),
(467,185,o),
(453,199,o),
(380,199,c)
);
}
);
visible = 1;
width = 787;
},
{
associatedMasterId = "49F060A0-2273-4F54-8B81-08E0B15B03EC";
layerId = "50BEF374-B434-46DA-93CE-848E35A3B400";
name = "4 Dec 23 at 21:41";
shapes = (
{
closed = 1;
nodes = (
(362,-34,o),
(369,-44,cs),
(376,-54,o),
(388,-77,o),
(388,-97,cs),
(388,-110,o),
(378,-121,o),
(364,-121,cs),
(341,-121,o),
(338,-99,o),
(314,-99,cs),
(296,-99,o),
(282,-115,o),
(282,-139,cs),
(282,-172,o),
(317,-201,o),
(372,-201,cs),
(428,-201,o),
(468,-170,o),
(468,-124,cs),
(468,-92,o),
(448,-55,o),
(424,-30,cs),
(412,-18,o),
(414,-11,o),
(431,-9,cs),
(587,12,o),
(656,86,o),
(656,184,cs),
(656,302,o),
(555,350,o),
(385,343,cs),
(336,341,o),
(313,369,o),
(313,410,cs),
(313,442,o),
(327,469,o),
(388,469,cs),
(458,469,o),
(515,433,o),
(581,433,cs),
(673,433,o),
(725,503,o),
(725,590,cs),
(725,729,o),
(593,800,o),
(427,800,cs),
(238,800,o),
(10,708,o),
(10,468,cs),
(10,327,o),
(88,199,o),
(380,199,cs),
(453,199,o),
(467,185,o),
(467,165,cs),
(467,132,o),
(431,105,o),
(359,105,cs),
(296,105,o),
(228,126,o),
(201,132,cs),
(142,145,o),
(103,130,o),
(103,82,cs),
(103,58,o),
(113,35,o),
(163,14,cs),
(194,1,o),
(246,-14,o),
(333,-14,cs),
(351,-14,o)
);
}
);
width = 735;
},
{
layerId = "49F060A0-2273-4F54-8B81-08E0B15B03EC";
name = Regular;
shapes = (
{
closed = 1;
nodes = (
(396,-201,o),
(436,-170,o),
(436,-124,cs),
(436,-92,o),
(416,-55,o),
(392,-30,cs),
(382,-20,o),
(382,-12,o),
(393,-10,cs),
(502,5,o),
(614,58,o),
(614,172,cs),
(614,276,o),
(517,307,o),
(358,307,cs),
(297,307,o),
(270,336,o),
(270,369,cs),
(270,409,o),
(310,426,o),
(370,426,cs),
(443,426,o),
(497,401,o),
(561,401,cs),
(652,401,o),
(701,454,o),
(701,543,cs),
(701,712,o),
(574,811,o),
(386,811,cs),
(152,811,o),
(10,673,o),
(10,488,cs),
(10,282,o),
(157,202,o),
(377,202,cs),
(451,202,o),
(460,176,o),
(460,159,cs),
(460,116,o),
(399,90,o),
(324,90,cs),
(262,90,o),
(197,104,o),
(137,133,cs),
(124,140,o),
(112,143,o),
(101,143,cs),
(72,143,o),
(49,120,o),
(49,89,cs),
(49,15,o),
(214,-12,o),
(297,-14,cs),
(330,-16,o),
(356,-68,o),
(356,-97,cs),
(356,-110,o),
(346,-121,o),
(332,-121,cs),
(309,-121,o),
(306,-99,o),
(282,-99,cs),
(264,-99,o),
(250,-115,o),
(250,-139,cs),
(250,-172,o),
(285,-201,o),
(340,-201,cs)
);
}
);
width = 711;
}
);
unicode = 350;
},
{
glyphname = Scommaaccent;
lastChange = "2023-11-16 23:28:50 +0000";
layers = (
{
anchors = (
{
name = bottom;
pos = (381,-32);
}
);
layerId = "49F060A0-2273-4F54-8B81-08E0B15B03EC";
shapes = (
{
ref = S;
},
{
closed = 1;
nodes = (
(390,-232,o),
(337,-257,o),
(293,-263,cs),
(263,-267,o),
(234,-265,o),
(221,-240,cs),
(205,-208,o),
(225,-184,o),
(265,-164,cs),
(330,-131,o),
(335,-78,o),
(381,-52,cs),
(411,-35,o),
(446,-40,o),
(471,-73,cs),
(502,-114,o),
(483,-162,o),
(430,-202,cs)
);
}
);
width = 787;
}
);
unicode = 536;
},
{
glyphname = Germandbls;
lastChange = "2023-12-04 23:36:15 +0000";
layers = (
{
associatedMasterId = "49F060A0-2273-4F54-8B81-08E0B15B03EC";
layerId = "273E6037-D2AC-46AA-B8C1-CEE2E696137D";
name = "5 Dec 23 at 00:19";
shapes = (
{
closed = 1;
nodes = (
(722,440,o),
(704,306,o),
(597,296,cs),
(586,294,o),
(555,288,o),
(555,258,cs),
(555,229,o),
(585,221,o),
(596,220,cs),
(654,215,o),
(704,213,o),
(704,106,cs),
(704,28,o),
(639,-17,o),
(506,-17,cs),
(462,-17,o),
(318,-15,o),
(318,51,cs),
(318,78,o),
(343,108,o),
(382,96,cs),
(414,86,o),
(455,76,o),
(491,76,cs),
(540,76,o),
(580,88,o),
(580,123,cs),
(580,131,o),
(574,147,o),
(551,151,cs),
(511,159,o),
(378,147,o),
(378,245,cs),
(378,318,o),
(457,329,o),
(512,354,cs),
(551,372,o),
(549,410,o),
(549,435,cs),
(549,491,o),
(511,503,o),
(461,503,cs),
(408,503,o),
(311,502,o),
(293,393,cs),
(282,328,o),
(290,180,o),
(265,83,cs),
(249,22,o),
(220,-18,o),
(169,-18,cs),
(123,-18,o),
(99,14,o),
(77,83,cs),
(42,193,o),
(2,429,o),
(2,560,cs),
(2,744,o),
(80,808,o),
(191,808,cs),
(351,808,o),
(339,809,o),
(470,809,cs),
(694,809,o),
(722,665,o),
(722,533,cs)
);
}
);
width = 739;
},
{
associatedMasterId = "49F060A0-2273-4F54-8B81-08E0B15B03EC";
layerId = "07798477-5E94-43F5-A319-B6579C7CC6F6";
name = "5 Dec 23 at 00:35";
shapes = (
{
closed = 1;
nodes = (
(433,93,o),
(471,93,o),
(399,93,c),
(356,93,o),
(333,69,o),
(333,38,cs),
(333,8,o),
(356,-15,o),
(399,-15,c),
(463,-15,o),
(433,-15,o),
(475,-15,c),
(548,-15,o),
(609,-15,o),
(649,10,cs),
(693,38,o),
(700,92,o),
(700,139,cs),
(700,204,o),
(686,226,o),
(627,233,c),
(593,237,o),
(593,267,o),
(627,267,c),
(721,267,o),
(722,454,o),
(722,533,cs),
(722,665,o),
(694,809,o),
(470,809,cs),
(339,809,o),
(351,808,o),
(191,808,cs),
(80,808,o),
(2,744,o),
(2,560,cs),
(2,429,o),
(42,193,o),
(77,83,cs),
(99,14,o),
(123,-18,o),
(169,-18,cs),
(220,-18,o),
(249,22,o),
(265,83,cs),
(290,180,o),
(282,328,o),
(293,393,cs),
(311,502,o),
(408,503,o),
(461,503,cs),
(511,503,o),
(549,491,o),
(549,435,cs),
(549,410,o),
(537,392,o),
(512,379,c),
(466,355,o),
(445,324,o),
(445,279,c),
(445,247,o),
(467,222,o),
(517,183,c),
(529,174,o),
(537,162,o),
(537,149,c),
(537,116,o),
(536,93,o),
(471,93,c)
);
}
);
width = 752;
},
{
layerId = "49F060A0-2273-4F54-8B81-08E0B15B03EC";
name = Regular;
shapes = (
{
closed = 1;
nodes = (
(722,394,o),
(694,337,o),
(614,326,cs),
(601,324,o),
(569,321,o),
(569,287,cs),
(569,259,o),
(590,256,o),
(599,252,cs),
(644,233,o),
(655,196,o),
(655,142,cs),
(655,38,o),
(581,-17,o),
(469,-17,cs),
(439,-17,o),
(318,-13,o),
(318,50,cs),
(318,79,o),
(343,108,o),
(382,96,cs),
(431,81,o),
(534,78,o),
(534,144,cs),
(534,178,o),
(507,200,o),
(474,210,cs),
(435,222,o),
(392,226,o),
(392,283,cs),
(392,329,o),
(423,328,o),
(473,364,cs),
(513,393,o),
(526,417,o),
(526,445,cs),
(526,493,o),
(486,529,o),
(430,529,cs),
(374,529,o),
(309,493,o),
(293,393,cs),
(282,322,o),
(290,178,o),
(265,83,cs),
(249,22,o),
(220,-18,o),
(169,-18,cs),
(123,-18,o),
(99,14,o),
(77,83,cs),
(42,193,o),
(2,429,o),
(2,560,cs),
(2,744,o),
(80,808,o),
(191,808,cs),
(351,808,o),
(319,800,o),
(450,800,cs),
(690,800,o),
(722,650,o),
(722,518,cs)
);
}
);
width = 739;
}
);
unicode = 7838;
},
{
color = 10;
glyphname = T;
lastChange = "2023-11-20 16:43:04 +0000";
layers = (
{
layerId = "49F060A0-2273-4F54-8B81-08E0B15B03EC";
shapes = (
{
closed = 1;
nodes = (
(147,811,o),
(10,740,o),
(10,603,cs),
(10,510,o),
(73,440,o),
(178,440,cs),
(196,440,o),
(271,442,o),
(272,442,cs),
(309,441,o),
(325,426,o),
(329,375,cs),
(345,134,o),
(346,113,o),
(352,65,cs),
(359,8,o),
(378,-15,o),
(417,-15,cs),
(450,-15,o),
(469,8,o),
(476,65,cs),
(482,113,o),
(483,134,o),
(499,375,cs),
(503,426,o),
(519,441,o),
(556,442,cs),
(557,442,o),
(632,440,o),
(650,440,cs),
(755,440,o),
(818,510,o),
(818,603,cs),
(818,740,o),
(681,811,o),
(414,811,cs)
);
}
);
width = 828;
}
);
unicode = 84;
},
{
glyphname = Tcaron;
lastChange = "2023-11-24 13:01:29 +0000";
layers = (
{
anchors = (
{
name = top;
pos = (374,1079);
}
);
layerId = "49F060A0-2273-4F54-8B81-08E0B15B03EC";
shapes = (
{
ref = T;
},
{
closed = 1;
nodes = (
(427,986,o),
(437,995,o),
(455,1008,cs),
(476,1023,o),
(500,1041,o),
(513,1051,cs),
(547,1075,o),
(572,1093,o),
(591,1075,cs),
(606,1059,o),
(592,1040,o),
(574,1002,cs),
(561,977,o),
(544,945,o),
(524,910,cs),
(497,862,o),
(461,832,o),
(417,832,cs),
(373,832,o),
(337,862,o),
(310,910,cs),
(290,945,o),
(273,977,o),
(260,1002,cs),
(242,1040,o),
(228,1059,o),
(243,1075,cs),
(262,1093,o),
(287,1075,o),
(321,1051,c),
(374,1012,ls),
(398,995,o),
(407,986,o),
(417,986,cs)
);
}
);
width = 828;
}
);
unicode = 356;
},
{
glyphname = Tcommaaccent;
lastChange = "2023-11-16 23:28:50 +0000";
layers = (
{
anchors = (
{
name = bottom;
pos = (434,-39);
}
);
layerId = "49F060A0-2273-4F54-8B81-08E0B15B03EC";
shapes = (
{
ref = T;
},
{
closed = 1;
nodes = (
(404,-225,o),
(351,-250,o),
(307,-256,cs),
(277,-260,o),
(248,-258,o),
(235,-233,cs),
(219,-201,o),
(239,-177,o),
(279,-157,cs),
(344,-124,o),
(349,-71,o),
(395,-45,cs),
(425,-28,o),
(460,-33,o),
(485,-66,cs),
(516,-107,o),
(497,-155,o),
(444,-195,cs)
);
}
);
width = 856;
}
);
unicode = 538;
},
{
color = 10;
glyphname = U;
lastChange = "2023-12-16 15:33:40 +0000";
layers = (
{
layerId = "49F060A0-2273-4F54-8B81-08E0B15B03EC";
shapes = (
{
closed = 1;
nodes = (
(688,-15,o),
(858,203,o),
(858,462,cs),
(858,695,o),
(780,811,o),
(637,811,cs),
(582,811,o),
(491,774,o),
(491,668,cs),
(491,623,o),
(516,529,o),
(545,438,cs),
(562,384,o),
(587,300,o),
(587,232,cs),
(587,136,o),
(538,89,o),
(439,89,cs),
(340,89,o),
(291,136,o),
(291,232,cs),
(291,300,o),
(316,384,o),
(333,438,cs),
(362,529,o),
(387,623,o),
(387,668,cs),
(387,774,o),
(296,811,o),
(241,811,cs),
(98,811,o),
(20,695,o),
(20,462,cs),
(20,203,o),
(190,-15,o),
(439,-15,cs)
);
}
);
width = 878;
}
);
unicode = 85;
},
{
glyphname = Uacute;
lastChange = "2023-11-19 02:10:01 +0000";
layers = (
{
anchors = (
{
name = top;
pos = (502,957);
}
);
layerId = "49F060A0-2273-4F54-8B81-08E0B15B03EC";
shapes = (
{
ref = U;
},
{
closed = 1;
nodes = (
(497,891,o),
(444,866,o),
(400,860,cs),
(370,856,o),
(341,858,o),
(328,883,cs),
(312,915,o),
(332,939,o),
(372,959,cs),
(437,992,o),
(442,1045,o),
(488,1071,cs),
(518,1088,o),
(553,1083,o),
(578,1050,cs),
(609,1009,o),
(590,961,o),
(537,921,cs)
);
}
);
width = 870;
}
);
unicode = 218;
},
{
glyphname = Ubreve;
lastChange = "2023-12-04 01:50:17 +0000";
layers = (
{
anchors = (
{
name = _top;
pos = (429,1040);
}
);
layerId = "49F060A0-2273-4F54-8B81-08E0B15B03EC";
shapes = (
{
ref = U;
},
{
closed = 1;
nodes = (
(299,838,o),
(219,874,o),
(191,941,cs),
(166,1003,o),
(185,1060,o),
(237,1077,cs),
(281,1093,o),
(315,1057,o),
(327,1012,cs),
(344,951,o),
(381,939,o),
(430,939,cs),
(478,939,o),
(514,951,o),
(531,1012,cs),
(543,1057,o),
(576,1091,o),
(620,1077,cs),
(673,1060,o),
(692,1003,o),
(667,940,cs),
(639,872,o),
(555,838,o),
(430,838,cs)
);
}
);
width = 870;
}
);
unicode = 364;
},
{
glyphname = Ucircumflex;
lastChange = "2023-11-19 02:10:12 +0000";
layers = (
{
anchors = (
{
name = top;
pos = (424,1076);
}
);
layerId = "49F060A0-2273-4F54-8B81-08E0B15B03EC";
shapes = (
{
ref = U;
},
{
closed = 1;
nodes = (
(414,927,o),
(405,918,o),
(381,901,cs),
(328,862,l),
(294,838,o),
(269,820,o),
(250,838,cs),
(235,854,o),
(249,873,o),
(267,911,cs),
(280,936,o),
(297,968,o),
(317,1003,cs),
(344,1051,o),
(380,1081,o),
(424,1081,cs),
(468,1081,o),
(504,1051,o),
(531,1003,cs),
(551,968,o),
(568,936,o),
(581,911,cs),
(599,873,o),
(613,854,o),
(598,838,cs),
(579,820,o),
(554,838,o),
(520,862,cs),
(507,872,o),
(483,890,o),
(462,905,cs),
(444,918,o),
(434,927,o),
(424,927,cs)
);
}
);
width = 870;
}
);
unicode = 219;
},
{
glyphname = Udieresis;
lastChange = "2023-12-01 01:47:11 +0000";
layers = (
{
anchors = (
{
name = top;
pos = (425,965);
}
);
layerId = "49F060A0-2273-4F54-8B81-08E0B15B03EC";
shapes = (
{
ref = U;
},
{
closed = 1;
nodes = (
(251,920,o),
(281,891,o),
(327,891,cs),
(373,891,o),
(403,920,o),
(403,965,cs),
(403,1009,o),
(373,1037,o),
(327,1037,cs),
(281,1037,o),
(251,1009,o),
(251,965,cs)
);
},
{
closed = 1;
nodes = (
(447,920,o),
(477,891,o),
(523,891,cs),
(569,891,o),
(599,920,o),
(599,965,cs),
(599,1009,o),
(569,1037,o),
(523,1037,cs),
(477,1037,o),
(447,1009,o),
(447,965,cs)
);
}
);
width = 870;
}
);
unicode = 220;
},
{
glyphname = Ugrave;
lastChange = "2023-11-19 02:10:32 +0000";
layers = (
{
anchors = (
{
name = "new anchor";
pos = (380,1077);
}
);
layerId = "49F060A0-2273-4F54-8B81-08E0B15B03EC";
shapes = (
{
ref = U;
},
{
closed = 1;
nodes = (
(291,961,o),
(272,1009,o),
(303,1050,cs),
(328,1083,o),
(363,1088,o),
(393,1071,cs),
(439,1045,o),
(444,992,o),
(509,959,cs),
(549,939,o),
(569,915,o),
(553,883,cs),
(540,858,o),
(511,856,o),
(481,860,cs),
(437,866,o),
(384,891,o),
(344,921,cs)
);
}
);
width = 870;
}
);
unicode = 217;
},
{
glyphname = Uhungarumlaut;
lastChange = "2023-12-01 01:47:26 +0000";
layers = (
{
anchors = (
{
name = top;
pos = (432,1076);
}
);
layerId = "49F060A0-2273-4F54-8B81-08E0B15B03EC";
shapes = (
{
ref = U;
},
{
closed = 1;
nodes = (
(491,1038,o),
(494,999,o),
(452,953,cs),
(416,913,o),
(378,887,o),
(357,873,cs),
(308,841,o),
(286,836,o),
(269,850,cs),
(253,865,o),
(256,888,o),
(283,940,cs),
(295,962,o),
(317,1003,o),
(353,1043,cs),
(394,1089,o),
(433,1090,o),
(462,1064,cs)
);
},
{
closed = 1;
nodes = (
(697,1038,o),
(699,999,o),
(658,953,cs),
(622,913,o),
(583,887,o),
(563,873,cs),
(514,841,o),
(491,835,o),
(475,850,cs),
(458,865,o),
(462,887,o),
(489,940,cs),
(500,962,o),
(522,1002,o),
(558,1043,cs),
(600,1089,o),
(639,1090,o),
(668,1064,cs)
);
}
);
width = 870;
}
);
unicode = 368;
},
{
glyphname = Umacron;
lastChange = "2023-12-01 01:47:44 +0000";
layers = (
{
anchors = (
{
name = top;
pos = (396,1048);
}
);
layerId = "49F060A0-2273-4F54-8B81-08E0B15B03EC";
shapes = (
{
ref = U;
},
{
closed = 1;
nodes = (
(225,884,o),
(187,917,o),
(187,964,cs),
(187,1009,o),
(223,1045,o),
(351,1045,cs),
(458,1045,o),
(543,1031,o),
(565,1027,cs),
(651,1010,o),
(678,995,o),
(678,969,cs),
(678,943,o),
(648,923,o),
(571,907,cs),
(535,899,o),
(449,884,o),
(355,884,cs)
);
}
);
width = 870;
}
);
unicode = 362;
},
{
glyphname = Uogonek;
lastChange = "2023-12-06 04:04:36 +0000";
layers = (
{
anchors = (
{
name = bottom;
pos = (455,-15);
}
);
associatedMasterId = "49F060A0-2273-4F54-8B81-08E0B15B03EC";
layerId = "92D98AB5-4BEE-451D-BFDE-797B9239E29B";
name = "4 Dec 23 at 21:26";
shapes = (
{
ref = U;
},
{
closed = 1;
nodes = (
(515,-191,o),
(527,-183,o),
(527,-170,cs),
(527,-157,o),
(515,-150,o),
(497,-150,cs),
(467,-150,o),
(449,-139,o),
(449,-117,cs),
(449,-103,o),
(463,-92,o),
(475,-82,cs),
(498,-63,o),
(508,-39,o),
(482,-13,cs),
(461,6,o),
(424,-2,o),
(396,-33,cs),
(356,-78,o),
(362,-135,o),
(402,-170,cs),
(427,-192,o),
(457,-200,o),
(498,-194,c)
);
}
);
width = 870;
},
{
anchors = (
{
name = bottom;
pos = (455,-15);
}
);
associatedMasterId = "49F060A0-2273-4F54-8B81-08E0B15B03EC";
layerId = "357731C9-CA8D-4B77-B93F-185C36BAAFF1";
name = "6 Dec 23 at 05:04";
shapes = (
{
closed = 1;
nodes = (
(470,-36,o),
(474,-29,o),
(476,-23,cs),
(480,-14,o),
(485,-10,o),
(497,-8,cs),
(714,22,o),
(858,222,o),
(858,457,cs),
(858,686,o),
(780,800,o),
(637,800,cs),
(582,800,o),
(491,764,o),
(491,659,cs),
(491,615,o),
(516,523,o),
(545,433,cs),
(601,259,o),
(632,96,o),
(439,96,cs),
(246,96,o),
(277,259,o),
(333,433,cs),
(362,523,o),
(387,615,o),
(387,659,cs),
(387,764,o),
(296,800,o),
(241,800,cs),
(98,800,o),
(20,686,o),
(20,457,cs),
(20,216,o),
(172,12,o),
(398,-10,cs),
(414,-12,o),
(416,-18,o),
(404,-29,cs),
(379,-54,o),
(360,-91,o),
(360,-123,cs),
(360,-169,o),
(400,-200,o),
(456,-200,cs),
(511,-200,o),
(546,-171,o),
(546,-138,cs),
(546,-114,o),
(532,-98,o),
(514,-98,cs),
(490,-98,o),
(487,-120,o),
(464,-120,cs),
(450,-120,o),
(440,-109,o),
(440,-96,cs),
(440,-76,o),
(458,-53,o),
(465,-43,cs)
);
}
);
width = 870;
},
{
anchors = (
{
name = bottom;
pos = (455,-15);
}
);
layerId = "49F060A0-2273-4F54-8B81-08E0B15B03EC";
name = Regular;
shapes = (
{
closed = 1;
nodes = (
(382,-48,o),
(360,-84,o),
(360,-118,cs),
(360,-167,o),
(402,-200,o),
(462,-200,cs),
(520,-200,o),
(558,-169,o),
(558,-134,cs),
(558,-109,o),
(543,-92,o),
(524,-92,cs),
(498,-92,o),
(495,-115,o),
(470,-115,cs),
(456,-115,o),
(445,-103,o),
(445,-90,cs),
(445,-68,o),
(462,-13,o),
(497,-8,cs),
(712,23,o),
(858,222,o),
(858,457,cs),
(858,686,o),
(780,800,o),
(637,800,cs),
(582,800,o),
(491,764,o),
(491,659,cs),
(491,615,o),
(516,523,o),
(545,433,cs),
(601,259,o),
(632,96,o),
(439,96,cs),
(246,96,o),
(277,259,o),
(333,433,cs),
(362,523,o),
(387,615,o),
(387,659,cs),
(387,764,o),
(296,800,o),
(241,800,cs),
(98,800,o),
(20,686,o),
(20,457,cs),
(20,216,o),
(173,15,o),
(398,-10,cs),
(407,-11,o),
(413,-17,o),
(402,-28,cs)
);
}
);
width = 870;
}
);
unicode = 370;
},
{
glyphname = Uring;
lastChange = "2023-12-01 01:30:02 +0000";
layers = (
{
anchors = (
{
name = top;
pos = (435,1081);
}
);
layerId = "49F060A0-2273-4F54-8B81-08E0B15B03EC";
shapes = (
{
ref = U;
},
{
closed = 1;
nodes = (
(532,836,o),
(594,889,o),
(594,960,cs),
(594,1032,o),
(532,1083,o),
(443,1083,cs),
(358,1083,o),
(295,1032,o),
(295,960,cs),
(295,889,o),
(358,836,o),
(443,836,cs)
);
},
{
closed = 1;
nodes = (
(419,881,o),
(404,899,o),
(404,921,cs),
(404,945,o),
(419,964,o),
(445,964,cs),
(468,964,o),
(486,945,o),
(486,921,cs),
(486,899,o),
(468,881,o),
(445,881,cs)
);
}
);
width = 878;
},
{
anchors = (
{
name = top;
pos = (435,1081);
}
);
associatedMasterId = "49F060A0-2273-4F54-8B81-08E0B15B03EC";
layerId = "C8BF5F25-2501-48C9-9ADD-D12D2CD2CD1F";
name = "30 Nov 23 at 17:13";
shapes = (
{
ref = U;
},
{
closed = 1;
nodes = (
(514,834,o),
(570,887,o),
(570,958,cs),
(570,1030,o),
(514,1081,o),
(435,1081,cs),
(359,1081,o),
(302,1030,o),
(302,958,cs),
(302,887,o),
(359,834,o),
(435,834,cs)
);
},
{
closed = 1;
nodes = (
(416,879,o),
(403,897,o),
(403,919,cs),
(403,943,o),
(416,962,o),
(436,962,cs),
(455,962,o),
(469,943,o),
(469,919,cs),
(469,897,o),
(455,879,o),
(436,879,cs)
);
}
);
width = 870;
}
);
unicode = 366;
},
{
color = 10;
glyphname = V;
lastChange = "2023-12-16 15:34:00 +0000";
layers = (
{
layerId = "49F060A0-2273-4F54-8B81-08E0B15B03EC";
shapes = (
{
closed = 1;
nodes = (
(262,-15,o),
(98,223,o),
(37,446,cs),
(-27,684,o),
(60,811,o),
(201,811,cs),
(274,811,o),
(365,779,o),
(365,671,cs),
(365,613,o),
(340,513,o),
(340,434,cs),
(340,344,o),
(350,209,o),
(369,156,cs),
(380,124,o),
(399,88,o),
(429,88,cs),
(461,88,o),
(480,124,o),
(491,156,cs),
(510,209,o),
(520,344,o),
(520,434,cs),
(520,513,o),
(495,613,o),
(495,671,cs),
(495,779,o),
(586,811,o),
(659,811,cs),
(800,811,o),
(887,684,o),
(823,446,cs),
(762,223,o),
(598,-15,o),
(430,-15,cs)
);
}
);
width = 860;
},
{
associatedMasterId = "49F060A0-2273-4F54-8B81-08E0B15B03EC";
layerId = "7F796A00-EECF-4D6F-B602-CD86FD9445B2";
name = "3 Nov 23 at 01:24";
shapes = (
{
closed = 1;
nodes = (
(271,-17,o),
(110,216,o),
(51,435,cs),
(-12,668,o),
(73,793,o),
(211,793,cs),
(283,793,o),
(372,762,o),
(372,656,cs),
(372,599,o),
(348,501,o),
(348,423,cs),
(348,335,o),
(358,203,o),
(376,151,cs),
(387,119,o),
(406,96,o),
(435,96,cs),
(466,96,o),
(485,119,o),
(496,151,cs),
(514,203,o),
(524,335,o),
(524,423,cs),
(524,501,o),
(500,599,o),
(500,656,cs),
(500,762,o),
(589,793,o),
(661,793,cs),
(799,793,o),
(884,668,o),
(821,435,cs),
(762,216,o),
(601,-17,o),
(436,-17,cs)
);
}
);
width = 872;
}
);
unicode = 86;
},
{
color = 10;
glyphname = W;
lastChange = "2023-12-06 04:23:00 +0000";
layers = (
{
associatedMasterId = "49F060A0-2273-4F54-8B81-08E0B15B03EC";
layerId = "8FD88CA7-B8CE-4685-AC88-026BDD5F3EC9";
name = "6 Dec 23 at 05:23";
shapes = (
{
closed = 1;
nodes = (
(379,311,o),
(375,363,o),
(378,416,cs),
(384,537,o),
(416,600,o),
(482,600,cs),
(548,600,o),
(580,537,o),
(586,416,cs),
(589,365,o),
(586,312,o),
(590,284,cs),
(592,269,o),
(598,245,o),
(623,245,cs),
(649,245,o),
(658,275,o),
(660,282,cs),
(669,314,o),
(666,366,o),
(654,423,cs),
(632,528,o),
(591,594,o),
(591,674,cs),
(591,764,o),
(644,811,o),
(734,811,cs),
(864,811,o),
(948,712,o),
(948,516,cs),
(948,245,o),
(788,-13,o),
(621,-13,cs),
(565,-13,o),
(531,10,o),
(531,67,cs),
(531,95,o),
(524,266,o),
(524,273,cs),
(524,318,o),
(514,350,o),
(483,350,cs),
(452,350,o),
(442,315,o),
(442,273,cs),
(442,255,o),
(435,95,o),
(435,67,cs),
(435,11,o),
(401,-15,o),
(347,-15,cs),
(176,-15,o),
(16,244,o),
(16,516,cs),
(16,713,o),
(100,811,o),
(230,811,cs),
(320,811,o),
(373,764,o),
(373,674,cs),
(373,594,o),
(332,528,o),
(310,423,cs),
(293,343,o),
(299,300,o),
(304,282,cs),
(306,275,o),
(315,245,o),
(341,245,cs),
(367,245,o),
(373,272,o),
(374,283,c)
);
},
{
closed = 0;
nodes = (
(868,-105,l)
);
},
{
closed = 0;
nodes = (
(960,-105,l)
);
}
);
width = 964;
},
{
layerId = "49F060A0-2273-4F54-8B81-08E0B15B03EC";
name = Regular;
shapes = (
{
closed = 1;
nodes = (
(444,349,o),
(437,299,o),
(437,236,cs),
(437,190,o),
(441,136,o),
(441,92,cs),
(441,24,o),
(400,-15,o),
(344,-15,cs),
(176,-15,o),
(16,244,o),
(16,515,cs),
(16,712,o),
(100,811,o),
(230,811,cs),
(321,811,o),
(374,764,o),
(374,674,cs),
(374,593,o),
(288,408,o),
(288,261,cs),
(288,215,o),
(299,178,o),
(333,178,cs),
(379,178,o),
(376,364,o),
(379,415,cs),
(385,536,o),
(417,599,o),
(481,599,cs),
(545,599,o),
(577,536,o),
(583,415,cs),
(586,364,o),
(583,178,o),
(629,178,cs),
(663,178,o),
(674,215,o),
(674,261,cs),
(674,408,o),
(588,593,o),
(588,674,cs),
(588,764,o),
(641,811,o),
(732,811,cs),
(862,811,o),
(946,712,o),
(946,515,cs),
(946,244,o),
(786,-15,o),
(618,-15,cs),
(562,-15,o),
(521,24,o),
(521,92,cs),
(521,136,o),
(525,190,o),
(525,236,cs),
(525,299,o),
(518,349,o),
(481,349,cs)
);
}
);
width = 961;
}
);
unicode = 87;
},
{
glyphname = Wacute;
lastChange = "2023-11-16 23:28:50 +0000";
layers = (
{
layerId = "49F060A0-2273-4F54-8B81-08E0B15B03EC";
shapes = (
{
ref = W;
},
{
closed = 1;
nodes = (
(537,890,o),
(484,865,o),
(440,859,cs),
(410,855,o),
(381,857,o),
(368,882,cs),
(352,914,o),
(372,938,o),
(412,958,cs),
(477,991,o),
(482,1044,o),
(528,1070,cs),
(558,1087,o),
(593,1082,o),
(618,1049,cs),
(649,1008,o),
(630,960,o),
(577,920,cs)
);
}
);
width = 958;
}
);
unicode = 7810;
},
{
glyphname = Wcircumflex;
lastChange = "2023-11-24 12:39:40 +0000";
layers = (
{
anchors = (
{
name = top;
pos = (464,1082);
}
);
layerId = "49F060A0-2273-4F54-8B81-08E0B15B03EC";
shapes = (
{
ref = W;
},
{
closed = 1;
nodes = (
(464,929,o),
(455,920,o),
(431,903,cs),
(378,864,l),
(344,840,o),
(319,822,o),
(300,840,cs),
(285,856,o),
(299,875,o),
(317,913,cs),
(330,938,o),
(347,970,o),
(367,1005,cs),
(394,1053,o),
(430,1083,o),
(474,1083,cs),
(518,1083,o),
(554,1053,o),
(581,1005,cs),
(601,970,o),
(618,938,o),
(631,913,cs),
(649,875,o),
(663,856,o),
(648,840,cs),
(629,822,o),
(604,840,o),
(570,864,cs),
(557,874,o),
(533,892,o),
(512,907,cs),
(494,920,o),
(484,929,o),
(474,929,cs)
);
}
);
width = 958;
}
);
unicode = 372;
},
{
glyphname = Wdieresis;
lastChange = "2023-12-01 01:48:44 +0000";
layers = (
{
anchors = (
{
name = top;
pos = (481,969);
}
);
layerId = "49F060A0-2273-4F54-8B81-08E0B15B03EC";
shapes = (
{
ref = W;
},
{
closed = 1;
nodes = (
(307,922,o),
(337,893,o),
(383,893,cs),
(429,893,o),
(459,922,o),
(459,967,cs),
(459,1011,o),
(429,1039,o),
(383,1039,cs),
(337,1039,o),
(307,1011,o),
(307,967,cs)
);
},
{
closed = 1;
nodes = (
(503,922,o),
(533,893,o),
(579,893,cs),
(625,893,o),
(655,922,o),
(655,967,cs),
(655,1011,o),
(625,1039,o),
(579,1039,cs),
(533,1039,o),
(503,1011,o),
(503,967,cs)
);
}
);
width = 958;
}
);
unicode = 7812;
},
{
glyphname = Wgrave;
lastChange = "2023-11-16 23:28:50 +0000";
layers = (
{
layerId = "49F060A0-2273-4F54-8B81-08E0B15B03EC";
shapes = (
{
ref = W;
},
{
closed = 1;
nodes = (
(350,960,o),
(331,1008,o),
(362,1049,cs),
(387,1082,o),
(422,1087,o),
(452,1070,cs),
(498,1044,o),
(503,991,o),
(568,958,cs),
(608,938,o),
(628,914,o),
(612,882,cs),
(599,857,o),
(570,855,o),
(540,859,cs),
(496,865,o),
(443,890,o),
(403,920,cs)
);
}
);
width = 944;
}
);
unicode = 7808;
},
{
color = 10;
glyphname = X;
lastChange = "2023-12-07 19:01:01 +0000";
layers = (
{
associatedMasterId = "49F060A0-2273-4F54-8B81-08E0B15B03EC";
layerId = "73650C7A-5827-4757-8B84-509F379E88C8";
name = "6 Dec 23 at 05:51";
shapes = (
{
closed = 0;
nodes = (
(-484,810,l)
);
},
{
closed = 0;
nodes = (
(499,174,l)
);
},
{
closed = 1;
nodes = (
(490,183,o),
(495,180,o),
(499,174,cs),
(524,136,o),
(536,124,o),
(564,98,cs),
(636,34,o),
(727,0,o),
(810,-10,cs),
(857,-16,o),
(883,-10,o),
(895,10,cs),
(907,28,o),
(907,55,o),
(877,80,cs),
(842,109,o),
(774,128,o),
(711,196,cs),
(684,225,o),
(658,264,o),
(658,308,cs),
(658,357,o),
(689,407,o),
(774,426,cs),
(868,448,o),
(934,511,o),
(934,611,cs),
(934,733,o),
(837,810,o),
(739,810,cs),
(658,810,o),
(589,758,o),
(554,709,cs),
(545,697,o),
(529,673,o),
(521,650,cs),
(514,630,o),
(513,621,o),
(512,610,cs),
(511,595,o),
(499,586,o),
(485,586,cs),
(471,586,o),
(459,595,o),
(458,610,cs),
(457,621,o),
(456,630,o),
(449,650,cs),
(441,673,o),
(425,697,o),
(416,709,cs),
(381,758,o),
(312,810,o),
(231,810,cs),
(133,810,o),
(36,733,o),
(36,611,cs),
(36,511,o),
(102,448,o),
(196,426,cs),
(281,407,o),
(312,357,o),
(312,308,cs),
(312,264,o),
(286,225,o),
(259,196,cs),
(196,128,o),
(128,109,o),
(93,80,cs),
(63,55,o),
(63,28,o),
(75,10,cs),
(87,-10,o),
(113,-16,o),
(160,-10,cs),
(243,0,o),
(334,34,o),
(406,98,cs),
(434,124,o),
(446,136,o),
(471,174,cs),
(475,180,o),
(480,183,o),
(485,183,cs)
);
}
);
width = 970;
},
{
layerId = "49F060A0-2273-4F54-8B81-08E0B15B03EC";
name = Regular;
shapes = (
{
closed = 1;
nodes = (
(440,495,o),
(451,511,o),
(453,542,cs),
(466,734,o),
(579,811,o),
(675,811,cs),
(779,811,o),
(851,721,o),
(833,605,cs),
(800,399,o),
(521,376,o),
(529,241,cs),
(535,150,o),
(661,124,o),
(694,114,cs),
(734,102,o),
(745,77,o),
(745,56,cs),
(745,22,o),
(715,-15,o),
(663,-15,cs),
(590,-15,o),
(504,57,o),
(466,128,cs),
(451,156,o),
(448,175,o),
(423,175,cs),
(398,175,o),
(395,156,o),
(380,128,cs),
(342,57,o),
(256,-15,o),
(183,-15,cs),
(131,-15,o),
(101,22,o),
(101,56,cs),
(101,77,o),
(112,102,o),
(152,114,cs),
(185,124,o),
(311,150,o),
(317,241,cs),
(325,376,o),
(46,399,o),
(13,605,cs),
(-5,721,o),
(67,811,o),
(171,811,cs),
(267,811,o),
(380,734,o),
(393,542,cs),
(395,511,o),
(406,495,o),
(423,495,cs)
);
}
);
width = 846;
}
);
unicode = 88;
},
{
color = 10;
glyphname = Y;
lastChange = "2023-12-16 15:35:35 +0000";
layers = (
{
associatedMasterId = "49F060A0-2273-4F54-8B81-08E0B15B03EC";
guides = (
{
pos = (705,-79);
}
);
layerId = "14DB5A98-F06F-4F42-BACC-8AA4AEA725BB";
name = "4 Dec 23 at 23:44";
shapes = (
{
closed = 1;
nodes = (
(359,180,o),
(377,163,o),
(377,137,cs),
(377,111,o),
(358,90,o),
(308,90,cs),
(282,90,o),
(216,96,o),
(195,96,cs),
(158,96,o),
(136,77,o),
(136,47,cs),
(136,19,o),
(156,5,o),
(186,-2,cs),
(208,-7,o),
(267,-16,o),
(312,-16,cs),
(540,-16,o),
(635,217,o),
(674,377,cs),
(745,670,o),
(647,810,o),
(525,810,cs),
(473,810,o),
(407,785,o),
(407,704,cs),
(407,661,o),
(426,552,o),
(426,476,cs),
(426,423,o),
(417,357,o),
(404,322,cs),
(394,295,o),
(379,280,o),
(354,280,cs),
(329,280,o),
(314,296,o),
(304,322,cs),
(292,353,o),
(281,413,o),
(281,470,cs),
(281,545,o),
(300,660,o),
(300,704,cs),
(300,787,o),
(232,810,o),
(181,810,cs),
(75,810,o),
(15,712,o),
(15,559,cs),
(15,333,o),
(150,180,o),
(326,181,c)
);
}
);
width = 718;
},
{
associatedMasterId = "49F060A0-2273-4F54-8B81-08E0B15B03EC";
guides = (
{
pos = (705,-79);
}
);
layerId = "70F9C790-2BB2-4822-9E34-22986CDAB940";
name = "5 Dec 23 at 01:20";
shapes = (
{
closed = 1;
nodes = (
(359,180,o),
(377,163,o),
(377,137,cs),
(377,111,o),
(358,90,o),
(308,90,cs),
(282,90,o),
(216,96,o),
(195,96,cs),
(158,96,o),
(136,77,o),
(136,47,cs),
(136,19,o),
(156,5,o),
(186,-2,cs),
(208,-7,o),
(267,-16,o),
(312,-16,cs),
(540,-16,o),
(635,217,o),
(674,377,cs),
(745,670,o),
(647,810,o),
(525,810,cs),
(473,810,o),
(407,785,o),
(407,704,cs),
(407,661,o),
(426,552,o),
(426,476,cs),
(426,423,o),
(417,357,o),
(404,322,cs),
(394,295,o),
(379,280,o),
(354,280,cs),
(329,280,o),
(314,296,o),
(304,322,cs),
(292,353,o),
(281,413,o),
(281,470,cs),
(281,545,o),
(300,660,o),
(300,704,cs),
(300,787,o),
(232,810,o),
(181,810,cs),
(75,810,o),
(15,712,o),
(15,559,cs),
(15,333,o),
(150,180,o),
(326,181,c)
);
}
);
width = 718;
},
{
guides = (
{
pos = (719,-79);
}
);
layerId = "49F060A0-2273-4F54-8B81-08E0B15B03EC";
name = Regular;
shapes = (
{
closed = 1;
nodes = (
(471,122,o),
(389,90,o),
(343,88,cs),
(293,86,o),
(248,105,o),
(222,107,cs),
(180,111,o),
(152,84,o),
(152,52,cs),
(152,-20,o),
(288,-14,o),
(334,-14,cs),
(527,-14,o),
(664,147,o),
(722,378,cs),
(794,664,o),
(681,800,o),
(551,800,cs),
(508,800,o),
(421,785,o),
(421,702,cs),
(421,663,o),
(440,551,o),
(440,475,cs),
(440,423,o),
(431,357,o),
(418,322,cs),
(408,295,o),
(393,280,o),
(368,280,cs),
(343,280,o),
(328,296,o),
(318,322,cs),
(306,353,o),
(295,413,o),
(295,470,cs),
(295,545,o),
(314,660,o),
(314,705,cs),
(314,787,o),
(249,810,o),
(187,810,cs),
(60,810,o),
(15,712,o),
(15,574,cs),
(15,325,o),
(163,157,o),
(393,199,cs),
(437,207,o),
(466,196,o),
(468,165,cs)
);
}
);
width = 764;
}
);
unicode = 89;
},
{
glyphname = Yacute;
lastChange = "2023-11-20 22:31:10 +0000";
layers = (
{
anchors = (
{
name = top;
pos = (473,1058);
}
);
layerId = "49F060A0-2273-4F54-8B81-08E0B15B03EC";
shapes = (
{
ref = Y;
},
{
closed = 1;
nodes = (
(390,891,o),
(337,866,o),
(293,860,cs),
(263,856,o),
(234,858,o),
(221,883,cs),
(205,915,o),
(225,939,o),
(265,959,cs),
(330,992,o),
(335,1045,o),
(381,1071,cs),
(411,1088,o),
(446,1083,o),
(471,1050,cs),
(502,1009,o),
(483,961,o),
(430,921,cs)
);
}
);
width = 718;
}
);
unicode = 221;
},
{
glyphname = Ycircumflex;
lastChange = "2023-11-27 14:17:11 +0000";
layers = (
{
anchors = (
{
name = top;
pos = (335,1078);
}
);
layerId = "49F060A0-2273-4F54-8B81-08E0B15B03EC";
shapes = (
{
ref = Y;
},
{
closed = 1;
nodes = (
(355,928,o),
(346,919,o),
(322,902,cs),
(269,863,l),
(235,839,o),
(210,821,o),
(191,839,cs),
(176,855,o),
(190,874,o),
(208,912,cs),
(221,937,o),
(238,969,o),
(258,1004,cs),
(285,1052,o),
(321,1082,o),
(365,1082,cs),
(409,1082,o),
(445,1052,o),
(472,1004,cs),
(492,969,o),
(509,937,o),
(522,912,cs),
(540,874,o),
(554,855,o),
(539,839,cs),
(520,821,o),
(495,839,o),
(461,863,cs),
(436,881,o),
(374,928,o),
(365,928,cs)
);
}
);
width = 718;
}
);
unicode = 374;
},
{
glyphname = Ydieresis;
lastChange = "2023-12-01 01:48:03 +0000";
layers = (
{
anchors = (
{
name = top;
pos = (345,1080);
}
);
layerId = "49F060A0-2273-4F54-8B81-08E0B15B03EC";
shapes = (
{
ref = Y;
},
{
closed = 1;
nodes = (
(171,921,o),
(201,892,o),
(247,892,cs),
(293,892,o),
(323,921,o),
(323,966,cs),
(323,1010,o),
(293,1038,o),
(247,1038,cs),
(201,1038,o),
(171,1010,o),
(171,966,cs)
);
},
{
closed = 1;
nodes = (
(367,921,o),
(397,892,o),
(443,892,cs),
(489,892,o),
(519,921,o),
(519,966,cs),
(519,1010,o),
(489,1038,o),
(443,1038,cs),
(397,1038,o),
(367,1010,o),
(367,966,cs)
);
}
);
width = 718;
}
);
unicode = 376;
},
{
glyphname = Ygrave;
lastChange = "2023-11-20 22:31:03 +0000";
layers = (
{
layerId = "49F060A0-2273-4F54-8B81-08E0B15B03EC";
shapes = (
{
ref = Y;
},
{
closed = 1;
nodes = (
(213,961,o),
(194,1009,o),
(225,1050,cs),
(250,1083,o),
(285,1088,o),
(315,1071,cs),
(361,1045,o),
(366,992,o),
(431,959,cs),
(471,939,o),
(491,915,o),
(475,883,cs),
(462,858,o),
(433,856,o),
(403,860,cs),
(359,866,o),
(306,891,o),
(266,921,cs)
);
}
);
width = 718;
}
);
unicode = 7922;
},
{
color = 10;
glyphname = Z;
lastChange = "2023-12-07 02:16:28 +0000";
layers = (
{
associatedMasterId = "49F060A0-2273-4F54-8B81-08E0B15B03EC";
layerId = "712DE83D-3C55-4322-8598-BF52CEA251A9";
name = "23 Nov 23 at 01:43";
shapes = (
{
closed = 1;
nodes = (
(411,93,o),
(339,89,o),
(339,109,cs),
(339,119,o),
(347,124,o),
(363,132,cs),
(491,192,o),
(571,244,o),
(642,348,cs),
(684,410,o),
(696,487,o),
(696,537,cs),
(696,688,o),
(587,810,o),
(350,810,cs),
(150,810,o),
(10,725,o),
(10,584,cs),
(10,498,o),
(64,428,o),
(153,428,cs),
(217,428,o),
(288,465,o),
(352,465,cs),
(410,465,o),
(444,436,o),
(444,390,cs),
(444,364,o),
(433,348,o),
(416,330,cs),
(390,303,o),
(368,291,o),
(332,271,cs),
(158,174,o),
(135,139,o),
(135,94,cs),
(135,-2,o),
(242,-16,o),
(374,-16,cs),
(473,-16,o),
(516,-8,o),
(532,-4,cs),
(562,4,o),
(583,18,o),
(583,46,cs),
(583,76,o),
(559,97,o),
(516,97,cs),
(500,97,o),
(444,94,o),
(427,93,cs)
);
}
);
width = 706;
},
{
associatedMasterId = "49F060A0-2273-4F54-8B81-08E0B15B03EC";
layerId = "F1B9B8A8-93F7-4F9D-9C6F-D031477FEB70";
name = "24 Nov 23 at 01:30";
shapes = (
{
closed = 1;
nodes = (
(435,88,o),
(397,88,cs),
(347,86,o),
(355,118,o),
(372,135,cs),
(441,203,o),
(570,331,o),
(611,381,cs),
(658,440,o),
(696,487,o),
(696,555,cs),
(696,688,o),
(587,810,o),
(350,810,cs),
(150,810,o),
(10,725,o),
(10,584,cs),
(10,498,o),
(64,428,o),
(153,428,cs),
(217,428,o),
(288,470,o),
(352,470,cs),
(478,470,o),
(438,401,o),
(393,353,cs),
(277,232,o),
(155,112,o),
(108,63,cs),
(71,23,o),
(82,-14,o),
(135,-15,cs),
(160,-16,o),
(232,-17,o),
(374,-16,cs),
(473,-15,o),
(516,-8,o),
(532,-4,cs),
(562,4,o),
(583,18,o),
(583,46,cs),
(583,76,o),
(559,97,o),
(516,97,cs),
(480,97,o)
);
}
);
visible = 1;
width = 706;
},
{
layerId = "49F060A0-2273-4F54-8B81-08E0B15B03EC";
name = Regular;
shapes = (
{
closed = 1;
nodes = (
(18,799,o),
(15,753,o),
(15,618,cs),
(15,461,o),
(104,461,o),
(188,461,cs),
(216,461,o),
(301,469,o),
(347,469,cs),
(484,469,o),
(428,399,o),
(370,337,cs),
(298,260,o),
(135,82,o),
(111,57,cs),
(74,17,o),
(84,-18,o),
(138,-21,cs),
(158,-22,o),
(246,-22,o),
(377,-22,cs),
(476,-22,o),
(519,-14,o),
(535,-10,cs),
(567,-2,o),
(586,14,o),
(586,40,cs),
(586,70,o),
(562,91,o),
(520,91,cs),
(502,91,o),
(447,87,o),
(430,87,cs),
(405,87,ls),
(355,87,o),
(358,112,o),
(375,129,cs),
(387,141,o),
(548,298,o),
(600,359,cs),
(656,425,o),
(699,515,o),
(699,611,cs),
(699,765,o),
(590,804,o),
(309,804,cs),
(245,804,o),
(291,804,o),
(219,803,cs)
);
}
);
visible = 1;
width = 706;
},
{
associatedMasterId = "49F060A0-2273-4F54-8B81-08E0B15B03EC";
layerId = "9CF8BC02-D76E-4D2C-9DAC-ED07CDFA5067";
name = "7 Dec 23 at 03:14";
shapes = (
{
closed = 1;
nodes = (
(142,806,o),
(10,733,o),
(10,597,cs),
(10,513,o),
(61,448,o),
(166,448,cs),
(198,448,o),
(297,454,o),
(341,454,cs),
(409,454,o),
(433,439,o),
(433,407,cs),
(433,367,o),
(391,337,o),
(334,300,cs),
(229,230,o),
(99,148,o),
(99,64,cs),
(99,-12,o),
(203,-20,o),
(328,-20,cs),
(442,-20,o),
(486,-14,o),
(508,-9,cs),
(540,-1,o),
(562,12,o),
(562,42,cs),
(562,73,o),
(537,94,o),
(484,94,cs),
(441,94,o),
(395,79,o),
(355,79,cs),
(315,79,o),
(299,94,o),
(302,117,cs),
(315,191,o),
(516,247,o),
(637,393,cs),
(684,452,o),
(717,519,o),
(717,601,cs),
(717,753,o),
(601,806,o),
(391,806,cs)
);
}
);
width = 727;
}
);
unicode = 90;
},
{
glyphname = Zacute;
lastChange = "2023-11-28 13:31:03 +0000";
layers = (
{
anchors = (
{
name = top;
pos = (353,1080);
}
);
layerId = "49F060A0-2273-4F54-8B81-08E0B15B03EC";
shapes = (
{
ref = Z;
},
{
closed = 1;
nodes = (
(386,891,o),
(333,866,o),
(289,860,cs),
(259,856,o),
(230,858,o),
(217,883,cs),
(201,915,o),
(221,939,o),
(261,959,cs),
(326,992,o),
(331,1045,o),
(377,1071,cs),
(407,1088,o),
(442,1083,o),
(467,1050,cs),
(498,1009,o),
(479,961,o),
(426,921,cs)
);
}
);
width = 709;
}
);
unicode = 377;
},
{
glyphname = Zcaron;
lastChange = "2023-11-28 13:31:18 +0000";
layers = (
{
anchors = (
{
name = top;
pos = (359,1080);
}
);
layerId = "49F060A0-2273-4F54-8B81-08E0B15B03EC";
shapes = (
{
ref = Z;
},
{
closed = 1;
nodes = (
(354,985,o),
(364,994,o),
(382,1007,cs),
(403,1022,o),
(427,1040,o),
(440,1050,cs),
(474,1074,o),
(499,1092,o),
(518,1074,cs),
(533,1058,o),
(519,1039,o),
(501,1001,cs),
(488,976,o),
(471,944,o),
(451,909,cs),
(424,861,o),
(388,831,o),
(344,831,cs),
(300,831,o),
(264,861,o),
(237,909,cs),
(217,944,o),
(200,976,o),
(187,1001,cs),
(169,1039,o),
(155,1058,o),
(170,1074,cs),
(189,1092,o),
(214,1074,o),
(248,1050,c),
(301,1011,ls),
(325,994,o),
(334,985,o),
(344,985,cs)
);
}
);
width = 716;
}
);
unicode = 381;
},
{
glyphname = Zdotaccent;
lastChange = "2023-12-01 01:49:03 +0000";
layers = (
{
anchors = (
{
name = top;
pos = (314,1076);
}
);
layerId = "49F060A0-2273-4F54-8B81-08E0B15B03EC";
shapes = (
{
ref = Z;
},
{
closed = 1;
nodes = (
(244,920,o),
(274,891,o),
(320,891,cs),
(366,891,o),
(396,920,o),
(396,965,cs),
(396,1009,o),
(366,1037,o),
(320,1037,cs),
(274,1037,o),
(244,1009,o),
(244,965,cs)
);
}
);
width = 716;
}
);
unicode = 379;
},
{
color = 10;
glyphname = a;
lastChange = "2023-12-16 15:14:34 +0000";
layers = (
{
anchors = (
{
name = top;
pos = (356,600);
}
);
associatedMasterId = "49F060A0-2273-4F54-8B81-08E0B15B03EC";
layerId = "EDD2137E-6933-4C18-A0F0-92D66A302A66";
name = "23 Nov 23 at 22:33";
shapes = (
{
closed = 1;
nodes = (
(369,604,o),
(315,615,o),
(265,615,cs),
(143,615,o),
(48,508,o),
(48,339,cs),
(48,181,o),
(177,-14,o),
(324,-14,cs),
(369,-14,o),
(397,-4,o),
(429,23,cs),
(446,37,o),
(449,33,o),
(454,23,cs),
(461,10,o),
(475,-11,o),
(502,-11,cs),
(539,-11,o),
(559,17,o),
(573,65,cs),
(607,183,o),
(629,327,o),
(630,447,cs),
(630,554,o),
(602,613,o),
(533,613,cs),
(491,613,o),
(464,588,o),
(447,573,cs),
(440,568,o),
(432,567,o),
(424,571,cs)
);
},
{
closed = 1;
nodes = (
(283,117,o),
(252,190,o),
(252,222,cs),
(252,266,o),
(278,295,o),
(333,295,cs),
(382,295,o),
(404,272,o),
(416,211,cs),
(428,150,o),
(397,117,o),
(352,117,cs)
);
}
);
visible = 1;
width = 699;
},
{
anchors = (
{
name = bottom;
pos = (356,0);
},
{
name = ogonek;
pos = (650,10);
},
{
name = top;
pos = (356,600);
}
);
associatedMasterId = "49F060A0-2273-4F54-8B81-08E0B15B03EC";
layerId = "93FD3D0B-7B47-4054-8C59-435DD9045AAB";
name = "23 Nov 23 at 22:48";
shapes = (
{
closed = 1;
nodes = (
(344,136,o),
(315,184,o),
(313,216,cs),
(311,253,o),
(332,272,o),
(375,272,cs),
(414,274,o),
(430,255,o),
(437,209,cs),
(444,160,o),
(421,136,o),
(383,136,cs)
);
},
{
closed = 1;
nodes = (
(426,541,o),
(422,533,o),
(411,533,cs),
(401,533,o),
(395,541,o),
(389,548,cs),
(355,590,o),
(302,614,o),
(232,614,cs),
(106,614,o),
(24,518,o),
(24,361,cs),
(24,271,o),
(62,165,o),
(123,89,cs),
(170,31,o),
(230,-9,o),
(298,-12,cs),
(351,-14,o),
(398,9,o),
(429,50,cs),
(435,58,o),
(442,65,o),
(452,65,cs),
(463,65,o),
(471,59,o),
(474,50,cs),
(487,10,o),
(507,-14,o),
(542,-14,cs),
(579,-14,o),
(599,14,o),
(613,62,cs),
(640,153,o),
(671,301,o),
(671,447,cs),
(671,554,o),
(611,614,o),
(542,614,c),
(501,614,o),
(461,594,o),
(433,552,cs)
);
}
);
width = 699;
},
{
anchors = (
{
name = bottom;
pos = (356,0);
},
{
name = ogonek;
pos = (650,10);
},
{
name = top;
pos = (356,600);
}
);
associatedMasterId = "49F060A0-2273-4F54-8B81-08E0B15B03EC";
layerId = "0E409E87-305A-4610-A8E4-5732C0DBD6D6";
name = "23 Nov 23 at 23:58";
shapes = (
{
closed = 1;
nodes = (
(298,118,o),
(263,200,o),
(263,236,cs),
(263,286,o),
(292,319,o),
(354,319,cs),
(409,319,o),
(434,293,o),
(448,224,cs),
(462,155,o),
(427,118,o),
(376,118,cs)
);
},
{
closed = 1;
nodes = (
(426,541,o),
(422,533,o),
(411,533,cs),
(401,533,o),
(395,541,o),
(389,548,cs),
(355,590,o),
(302,614,o),
(232,614,cs),
(106,614,o),
(24,518,o),
(24,361,cs),
(24,271,o),
(62,165,o),
(123,89,cs),
(170,31,o),
(230,-9,o),
(298,-12,cs),
(351,-14,o),
(398,9,o),
(429,50,cs),
(435,58,o),
(442,65,o),
(452,65,cs),
(463,65,o),
(471,59,o),
(474,50,cs),
(487,10,o),
(507,-14,o),
(542,-14,cs),
(579,-14,o),
(599,14,o),
(613,62,cs),
(637,143,o),
(671,291,o),
(671,447,cs),
(671,554,o),
(611,614,o),
(542,614,cs),
(501,614,o),
(461,594,o),
(433,552,cs)
);
}
);
width = 699;
},
{
associatedMasterId = "49F060A0-2273-4F54-8B81-08E0B15B03EC";
backgroundImage = {
imagePath = "/Volumes/ADAM-DOC/DOCUMENTS/Google-project_african languages/20octobre/23 October2023/28 October2023/7decembre/Source-Glyphs/Scan 14.png";
locked = 1;
pos = (-329,-812);
scale = (2.3783,2.3783);
};
layerId = "8128A1CE-A9D8-44E1-BBD5-1E38E1A92DE7";
name = "1 Nov 23 at 23:38";
shapes = (
{
closed = 1;
nodes = (
(542,-16,o),
(578,117,o),
(578,263,cs),
(578,491,o),
(491,612,o),
(317,612,cs),
(189,612,o),
(30,546,o),
(30,413,cs),
(30,334,o),
(86,286,o),
(157,286,cs),
(201,286,o),
(246,304,o),
(314,304,cs),
(359,304,o),
(378,296,o),
(378,278,cs),
(378,251,o),
(336,251,o),
(301,251,cs),
(170,251,o),
(91,218,o),
(91,128,cs),
(91,44,o),
(159,-13,o),
(267,-13,cs),
(351,-13,o),
(388,21,o),
(415,81,c),
(435,12,o),
(457,-16,o),
(484,-16,cs)
);
},
{
closed = 1;
nodes = (
(310,85,o),
(302,125,o),
(302,150,cs),
(302,188,o),
(321,193,o),
(393,193,c),
(396,174,o),
(400,143,o),
(404,122,c),
(395,91,o),
(361,85,o),
(347,85,cs)
);
}
);
width = 618;
},
{
anchors = (
{
name = bottom;
pos = (356,0);
},
{
name = ogonek;
pos = (650,10);
},
{
name = top;
pos = (356,600);
}
);
associatedMasterId = "49F060A0-2273-4F54-8B81-08E0B15B03EC";
layerId = "7A6FD140-5E26-43EC-912C-29353AF1DF6C";
name = "7 Dec 23 at 05:00";
shapes = (
{
closed = 1;
nodes = (
(304,119,o),
(276,185,o),
(276,214,cs),
(276,254,o),
(299,280,o),
(349,280,cs),
(393,280,o),
(413,259,o),
(424,204,cs),
(435,149,o),
(407,119,o),
(366,119,cs)
);
},
{
closed = 1;
nodes = (
(426,541,o),
(422,533,o),
(411,533,cs),
(401,533,o),
(395,541,o),
(389,548,cs),
(355,590,o),
(302,614,o),
(232,614,cs),
(106,614,o),
(24,518,o),
(24,361,cs),
(24,271,o),
(62,165,o),
(123,89,cs),
(170,31,o),
(230,-9,o),
(298,-12,cs),
(351,-14,o),
(398,9,o),
(429,50,cs),
(435,58,o),
(442,65,o),
(452,65,cs),
(463,65,o),
(471,59,o),
(474,50,cs),
(487,10,o),
(507,-14,o),
(542,-14,cs),
(579,-14,o),
(599,14,o),
(613,62,cs),
(637,143,o),
(671,291,o),
(671,447,cs),
(671,554,o),
(611,614,o),
(542,614,cs),
(501,614,o),
(461,594,o),
(433,552,cs)
);
}
);
width = 699;
},
{
anchors = (
{
name = top;
pos = (332,600);
}
);
layerId = "49F060A0-2273-4F54-8B81-08E0B15B03EC";
name = Regular;
shapes = (
{
closed = 1;
nodes = (
(345,604,o),
(286,615,o),
(245,615,cs),
(107,615,o),
(24,491,o),
(24,349,cs),
(24,171,o),
(153,-14,o),
(306,-14,cs),
(342,-14,o),
(373,-4,o),
(405,23,cs),
(423,38,o),
(425,32,o),
(430,23,cs),
(443,-2,o),
(458,-13,o),
(480,-13,cs),
(515,-13,o),
(533,15,o),
(549,65,cs),
(577,151,o),
(606,327,o),
(606,442,cs),
(606,553,o),
(579,613,o),
(510,613,cs),
(461,613,o),
(435,582,o),
(423,573,cs),
(416,568,o),
(408,566,o),
(399,572,cs)
);
},
{
closed = 1;
nodes = (
(259,117,o),
(228,187,o),
(228,227,cs),
(228,263,o),
(254,295,o),
(308,295,cs),
(358,295,o),
(384,267,o),
(392,211,cs),
(401,144,o),
(373,117,o),
(329,117,cs)
);
}
);
width = 626;
},
{
anchors = (
{
name = top;
pos = (356,600);
}
);
associatedMasterId = "49F060A0-2273-4F54-8B81-08E0B15B03EC";
layerId = "6C1CB029-D193-45DD-BC90-D1901EE693A9";
name = "8 Dec 23 at 15:57";
shapes = (
{
closed = 1;
nodes = (
(369,604,o),
(315,615,o),
(265,615,cs),
(143,615,o),
(48,508,o),
(48,339,cs),
(48,181,o),
(177,-14,o),
(324,-14,cs),
(369,-14,o),
(397,-4,o),
(429,23,cs),
(446,37,o),
(449,33,o),
(454,23,cs),
(461,10,o),
(475,-11,o),
(502,-11,cs),
(539,-11,o),
(559,17,o),
(573,65,cs),
(607,183,o),
(629,327,o),
(630,447,cs),
(630,554,o),
(602,613,o),
(533,613,cs),
(491,613,o),
(464,588,o),
(447,573,cs),
(440,568,o),
(432,567,o),
(424,571,cs)
);
},
{
closed = 1;
nodes = (
(283,64,o),
(252,158,o),
(252,199,cs),
(252,255,o),
(278,293,o),
(333,293,cs),
(382,293,o),
(404,263,o),
(416,184,cs),
(428,106,o),
(397,64,o),
(352,64,cs)
);
}
);
width = 699;
}
);
unicode = 97;
},
{
glyphname = aacute;
lastChange = "2023-11-19 02:09:20 +0000";
layers = (
{
anchors = (
{
name = top;
pos = (425,889);
}
);
layerId = "49F060A0-2273-4F54-8B81-08E0B15B03EC";
shapes = (
{
ref = a;
},
{
closed = 1;
nodes = (
(404,692,o),
(351,667,o),
(307,661,cs),
(277,657,o),
(248,659,o),
(235,684,cs),
(219,716,o),
(239,740,o),
(279,760,cs),
(344,793,o),
(349,846,o),
(395,872,cs),
(425,889,o),
(460,884,o),
(485,851,cs),
(516,810,o),
(497,762,o),
(444,722,cs)
);
}
);
width = 704;
}
);
unicode = 225;
},
{
glyphname = abreve;
lastChange = "2023-12-04 01:37:50 +0000";
layers = (
{
anchors = (
{
name = top;
pos = (340,884);
}
);
layerId = "49F060A0-2273-4F54-8B81-08E0B15B03EC";
shapes = (
{
ref = a;
},
{
closed = 1;
nodes = (
(230,639,o),
(150,675,o),
(122,742,cs),
(97,804,o),
(116,861,o),
(168,878,cs),
(212,894,o),
(246,858,o),
(258,813,cs),
(275,752,o),
(312,740,o),
(361,740,cs),
(409,740,o),
(445,752,o),
(462,813,cs),
(474,858,o),
(507,892,o),
(551,878,cs),
(604,861,o),
(623,804,o),
(598,741,cs),
(570,673,o),
(486,639,o),
(361,639,cs)
);
}
);
width = 704;
}
);
unicode = 259;
},
{
glyphname = acircumflex;
lastChange = "2023-11-24 12:35:02 +0000";
layers = (
{
anchors = (
{
name = top;
pos = (375,881);
}
);
layerId = "49F060A0-2273-4F54-8B81-08E0B15B03EC";
shapes = (
{
ref = a;
},
{
closed = 1;
nodes = (
(350,730,o),
(341,721,o),
(317,704,cs),
(264,665,l),
(230,641,o),
(205,623,o),
(186,641,cs),
(171,657,o),
(185,676,o),
(203,714,cs),
(216,739,o),
(233,771,o),
(253,806,cs),
(280,854,o),
(316,884,o),
(360,884,cs),
(404,884,o),
(440,854,o),
(467,806,cs),
(487,771,o),
(504,739,o),
(517,714,cs),
(535,676,o),
(549,657,o),
(534,641,cs),
(515,623,o),
(490,641,o),
(456,665,cs),
(443,675,o),
(419,693,o),
(398,708,cs),
(380,721,o),
(370,730,o),
(360,730,cs)
);
}
);
width = 704;
}
);
unicode = 226;
},
{
glyphname = adieresis;
lastChange = "2023-12-01 01:57:54 +0000";
layers = (
{
anchors = (
{
name = top;
pos = (360,800);
}
);
layerId = "49F060A0-2273-4F54-8B81-08E0B15B03EC";
shapes = (
{
ref = a;
},
{
closed = 1;
nodes = (
(189,722,o),
(219,693,o),
(265,693,cs),
(311,693,o),
(341,722,o),
(341,767,cs),
(341,811,o),
(311,839,o),
(265,839,cs),
(219,839,o),
(189,811,o),
(189,767,cs)
);
},
{
closed = 1;
nodes = (
(385,722,o),
(415,693,o),
(461,693,cs),
(507,693,o),
(537,722,o),
(537,767,cs),
(537,811,o),
(507,839,o),
(461,839,cs),
(415,839,o),
(385,811,o),
(385,767,cs)
);
}
);
width = 704;
}
);
unicode = 228;
},
{
glyphname = agrave;
lastChange = "2023-12-01 01:57:07 +0000";
layers = (
{
layerId = "49F060A0-2273-4F54-8B81-08E0B15B03EC";
shapes = (
{
ref = a;
},
{
closed = 1;
nodes = (
(217,763,o),
(198,811,o),
(229,852,cs),
(254,885,o),
(289,890,o),
(319,873,cs),
(365,847,o),
(370,794,o),
(435,761,cs),
(475,741,o),
(495,717,o),
(479,685,cs),
(466,660,o),
(437,658,o),
(407,662,cs),
(363,668,o),
(310,693,o),
(270,723,cs)
);
}
);
width = 697;
}
);
unicode = 224;
},
{
glyphname = amacron;
lastChange = "2023-12-01 01:58:06 +0000";
layers = (
{
anchors = (
{
name = top;
pos = (353,873);
}
);
layerId = "49F060A0-2273-4F54-8B81-08E0B15B03EC";
shapes = (
{
ref = a;
},
{
closed = 1;
nodes = (
(162,692,o),
(124,725,o),
(124,772,cs),
(124,817,o),
(160,853,o),
(288,853,cs),
(395,853,o),
(480,839,o),
(502,835,cs),
(588,818,o),
(615,803,o),
(615,777,cs),
(615,751,o),
(585,731,o),
(508,715,cs),
(472,707,o),
(386,692,o),
(292,692,cs)
);
}
);
width = 697;
}
);
unicode = 257;
},
{
glyphname = aogonek;
lastChange = "2023-12-07 04:07:36 +0000";
layers = (
{
anchors = (
{
name = bottom;
pos = (393,-15);
}
);
associatedMasterId = "49F060A0-2273-4F54-8B81-08E0B15B03EC";
layerId = "86D092ED-52C0-4AEF-89BB-347BF7B82068";
name = "4 Dec 23 at 19:09";
shapes = (
{
ref = a;
},
{
closed = 1;
nodes = (
(574,-183,o),
(586,-175,o),
(586,-162,cs),
(586,-149,o),
(574,-142,o),
(556,-142,cs),
(526,-142,o),
(508,-131,o),
(508,-109,cs),
(508,-95,o),
(522,-84,o),
(534,-74,cs),
(557,-55,o),
(567,-31,o),
(541,-5,cs),
(520,14,o),
(483,6,o),
(455,-25,cs),
(415,-70,o),
(421,-127,o),
(461,-162,cs),
(486,-184,o),
(516,-192,o),
(557,-186,c)
);
}
);
width = 697;
},
{
anchors = (
{
name = bottom;
pos = (393,-15);
}
);
associatedMasterId = "49F060A0-2273-4F54-8B81-08E0B15B03EC";
layerId = "EC57AD49-16B0-48A1-B7C2-A8A63204FA18";
name = "7 Dec 23 at 05:07";
shapes = (
{
closed = 1;
nodes = (
(566,-29,o),
(570,-21,o),
(570,-15,cs),
(570,-9,o),
(575,-6,o),
(583,1,cs),
(596,14,o),
(605,35,o),
(613,61,cs),
(680,288,o),
(671,443,o),
(671,446,cs),
(671,553,o),
(611,613,o),
(542,613,cs),
(501,613,o),
(461,593,o),
(433,551,cs),
(426,540,o),
(422,532,o),
(411,532,cs),
(401,532,o),
(395,540,o),
(389,547,cs),
(355,589,o),
(302,613,o),
(232,613,cs),
(106,613,o),
(24,517,o),
(24,360,cs),
(24,205,o),
(143,-12,o),
(298,-12,cs),
(351,-12,o),
(398,8,o),
(429,49,cs),
(435,57,o),
(442,64,o),
(452,64,cs),
(463,64,o),
(471,58,o),
(474,49,cs),
(481,28,o),
(489,12,o),
(501,1,cs),
(511,-8,o),
(512,-14,o),
(502,-23,cs),
(474,-48,o),
(452,-88,o),
(452,-122,cs),
(452,-168,o),
(492,-199,o),
(548,-199,cs),
(603,-199,o),
(638,-170,o),
(638,-137,cs),
(638,-113,o),
(624,-97,o),
(606,-97,cs),
(582,-97,o),
(579,-119,o),
(556,-119,cs),
(542,-119,o),
(532,-108,o),
(532,-95,cs),
(532,-75,o),
(550,-52,o),
(557,-42,cs)
);
},
{
closed = 1;
nodes = (
(276,253,o),
(299,279,o),
(349,279,cs),
(393,279,o),
(413,258,o),
(424,203,cs),
(435,148,o),
(407,118,o),
(366,118,cs),
(304,118,o),
(276,184,o),
(276,213,cs)
);
}
);
width = 697;
},
{
anchors = (
{
name = bottom;
pos = (369,-15);
},
{
name = top;
pos = (332,600);
}
);
layerId = "49F060A0-2273-4F54-8B81-08E0B15B03EC";
name = Regular;
shapes = (
{
closed = 1;
nodes = (
(345,-14,o),
(373,-4,o),
(405,23,cs),
(422,37,o),
(425,33,o),
(430,23,cs),
(433,18,o),
(437,11,o),
(442,6,cs),
(451,-4,o),
(441,-17,o),
(422,-42,cs),
(404,-66,o),
(392,-95,o),
(392,-120,cs),
(392,-166,o),
(432,-199,o),
(488,-199,cs),
(543,-199,o),
(578,-168,o),
(578,-135,cs),
(578,-111,o),
(564,-95,o),
(546,-95,cs),
(522,-95,o),
(519,-117,o),
(496,-117,cs),
(482,-117,o),
(472,-106,o),
(472,-93,cs),
(472,-73,o),
(490,-50,o),
(497,-40,cs),
(503,-33,o),
(511,-19,o),
(511,-9,cs),
(511,-4,o),
(511,-1,o),
(515,2,cs),
(530,14,o),
(541,37,o),
(549,65,cs),
(583,183,o),
(605,327,o),
(606,447,cs),
(606,554,o),
(578,613,o),
(509,613,cs),
(467,613,o),
(440,588,o),
(423,573,cs),
(416,568,o),
(408,567,o),
(400,571,cs),
(345,604,o),
(291,615,o),
(241,615,cs),
(119,615,o),
(24,508,o),
(24,339,cs),
(24,181,o),
(153,-14,o),
(300,-14,cs)
);
},
{
closed = 1;
nodes = (
(228,266,o),
(254,295,o),
(309,295,cs),
(358,295,o),
(380,272,o),
(392,211,cs),
(404,150,o),
(373,117,o),
(328,117,cs),
(259,117,o),
(228,190,o),
(228,222,cs)
);
}
);
width = 630;
}
);
unicode = 261;
},
{
glyphname = aring;
lastChange = "2023-12-01 01:28:55 +0000";
layers = (
{
anchors = (
{
name = top;
pos = (382,884);
}
);
layerId = "49F060A0-2273-4F54-8B81-08E0B15B03EC";
shapes = (
{
ref = a;
},
{
closed = 1;
nodes = (
(472,639,o),
(534,692,o),
(534,763,cs),
(534,835,o),
(472,886,o),
(383,886,cs),
(298,886,o),
(235,835,o),
(235,763,cs),
(235,692,o),
(298,639,o),
(383,639,cs)
);
},
{
closed = 1;
nodes = (
(359,684,o),
(344,702,o),
(344,724,cs),
(344,748,o),
(359,767,o),
(385,767,cs),
(408,767,o),
(426,748,o),
(426,724,cs),
(426,702,o),
(408,684,o),
(385,684,cs)
);
}
);
width = 699;
}
);
unicode = 229;
},
{
glyphname = atilde;
lastChange = "2023-12-08 15:18:44 +0000";
layers = (
{
anchors = (
{
name = top;
pos = (273,877);
}
);
layerId = "49F060A0-2273-4F54-8B81-08E0B15B03EC";
shapes = (
{
ref = a;
},
{
closed = 1;
nodes = (
(385,621,o),
(450,606,o),
(515,647,cs),
(575,685,o),
(595,747,o),
(565,797,cs),
(546,825,o),
(512,834,o),
(485,816,cs),
(471,807,o),
(443,780,o),
(429,770,cs),
(406,757,o),
(390,756,o),
(375,768,cs),
(273,847,o),
(208,862,o),
(142,818,cs),
(82,784,o),
(61,720,o),
(92,670,cs),
(110,643,o),
(143,633,o),
(172,652,cs),
(184,660,o),
(214,687,o),
(228,695,cs),
(249,712,o),
(264,712,o),
(281,699,cs)
);
}
);
width = 629;
}
);
unicode = 227;
},
{
glyphname = ae;
lastChange = "2023-12-04 01:49:19 +0000";
layers = (
{
associatedMasterId = "49F060A0-2273-4F54-8B81-08E0B15B03EC";
layerId = "EB84308B-74A0-442E-8D71-A44A9F159C3F";
name = "29 Nov 23 at 16:38";
shapes = (
{
closed = 1;
nodes = (
(340,137,o),
(316,185,o),
(313,217,cs),
(310,252,o),
(332,273,o),
(373,273,cs),
(414,273,o),
(433,252,o),
(437,210,cs),
(442,160,o),
(421,137,o),
(388,137,cs)
);
},
{
closed = 1;
nodes = (
(733,615,o),
(694,604,o),
(651,579,cs),
(633,568,o),
(629,573,o),
(617,585,cs),
(597,605,o),
(569,614,o),
(541,614,cs),
(494,614,o),
(455,586,o),
(433,552,cs),
(427,543,o),
(423,533,o),
(411,533,cs),
(401,533,o),
(395,541,o),
(389,548,cs),
(354,589,o),
(302,614,o),
(236,614,cs),
(99,614,o),
(24,508,o),
(24,368,cs),
(24,274,o),
(58,170,o),
(123,89,cs),
(169,31,o),
(230,-12,o),
(301,-12,cs),
(350,-12,o),
(398,9,o),
(429,50,cs),
(435,58,o),
(442,65,o),
(452,65,cs),
(463,65,o),
(471,59,o),
(474,50,cs),
(487,10,o),
(508,-13,o),
(541,-13,cs),
(576,-13,o),
(600,13,o),
(613,62,cs),
(616,74,o),
(617,78,o),
(618,80,cs),
(619,82,o),
(620,83,o),
(622,83,cs),
(625,83,o),
(626,82,o),
(628,80,c),
(675,34,o),
(751,-13,o),
(853,-13,cs),
(897,-13,o),
(950,-4,o),
(984,14,cs),
(1018,32,o),
(1035,60,o),
(1024,83,cs),
(1017,98,o),
(993,124,o),
(951,100,cs),
(930,88,o),
(909,65,o),
(864,65,cs),
(821,65,o),
(781,86,o),
(761,118,cs),
(756,126,o),
(755,130,o),
(759,134,cs),
(765,141,o),
(773,137,o),
(775,136,cs),
(793,129,o),
(810,121,o),
(849,121,cs),
(984,121,o),
(1109,220,o),
(1109,364,cs),
(1109,494,o),
(1008,615,o),
(810,615,cs)
);
},
{
closed = 1;
nodes = (
(761,214,o),
(742,242,o),
(742,274,cs),
(742,310,o),
(766,349,o),
(808,349,cs),
(840,349,o),
(860,327,o),
(860,296,cs),
(860,262,o),
(835,214,o),
(793,214,cs)
);
}
);
width = 1124;
},
{
associatedMasterId = "49F060A0-2273-4F54-8B81-08E0B15B03EC";
backgroundImage = {
imagePath = "/Volumes/ADAM-DOC/DOCUMENTS/Google-project_african languages/20octobre/23 October2023/28 October2023/maremasie2/correctionlisa23-12-1/Screenshot 2023-12-02 at 13.37.40.png";
locked = 1;
pos = (-229,-336);
scale = (9.3247,9.3247);
};
layerId = "8C4F2489-B151-4CC3-B248-FBBA6EC53DFB";
name = "2 Dec 23 at 13:48";
shapes = (
{
closed = 1;
nodes = (
(284,126,o),
(276,166,o),
(276,191,c),
(276,229,o),
(295,234,o),
(367,234,c),
(370,215,o),
(374,184,o),
(378,163,c),
(369,132,o),
(335,126,o),
(321,126,cs)
);
},
{
closed = 1;
nodes = (
(572,226,o),
(553,253,o),
(553,283,cs),
(553,317,o),
(576,353,o),
(615,353,cs),
(646,353,o),
(664,332,o),
(664,303,cs),
(664,270,o),
(640,226,o),
(602,226,cs)
);
},
{
closed = 1;
nodes = (
(357,100,o),
(456,-20,o),
(661,-20,cs),
(720,-20,o),
(745,-10,o),
(775,4,cs),
(819,24,o),
(829,61,o),
(819,83,cs),
(810,103,o),
(782,120,o),
(750,99,cs),
(718,78,o),
(692,70,o),
(662,66,cs),
(618,60,o),
(549,61,o),
(549,106,cs),
(549,121,o),
(557,138,o),
(587,138,cs),
(807,138,o),
(904,253,o),
(904,358,cs),
(904,501,o),
(803,611,o),
(614,611,cs),
(419,611,o),
(357,475,o),
(357,309,cs)
);
},
{
closed = 0;
nodes = (
(236,81,l)
);
},
{
closed = 0;
nodes = (
(513,289,l),
(526,517,o),
(402,612,o),
(228,612,cs),
(100,612,o),
(-11,565,o),
(-11,459,cs),
(-11,288,o),
(128,383,o),
(273,383,cs),
(318,383,o),
(339,367,o),
(339,349,cs),
(339,315,o),
(294,315,o),
(257,315,cs),
(116,315,o),
(11,246,o),
(11,132,c),
(11,25,o),
(84,-36,o),
(200,-36,cs),
(290,-36,o),
(453,-28,o),
(502,141,c)
);
},
{
closed = 1;
nodes = (
(564,-520,o),
(541,-496,o),
(548,-447,cs),
(555,-401,o),
(571,-383,o),
(610,-383,cs),
(653,-383,o),
(672,-403,o),
(672,-440,cs),
(672,-472,o),
(641,-520,o),
(602,-520,cs)
);
},
{
closed = 1;
nodes = (
(417,-144,o),
(369,-137,o),
(312,-137,cs),
(113,-137,o),
(24,-234,o),
(24,-412,cs),
(24,-626,o),
(156,-767,o),
(318,-767,cs),
(365,-767,o),
(410,-754,o),
(449,-730,cs),
(462,-722,o),
(476,-722,o),
(489,-730,cs),
(533,-754,o),
(588,-766,o),
(655,-766,cs),
(714,-766,o),
(739,-756,o),
(769,-742,cs),
(813,-722,o),
(823,-685,o),
(813,-663,cs),
(804,-643,o),
(776,-626,o),
(744,-647,cs),
(712,-668,o),
(686,-676,o),
(656,-680,cs),
(612,-686,o),
(543,-685,o),
(543,-640,cs),
(543,-625,o),
(551,-608,o),
(581,-608,cs),
(801,-608,o),
(898,-493,o),
(898,-388,cs),
(898,-245,o),
(797,-137,o),
(608,-137,cs),
(559,-137,o),
(513,-150,o),
(486,-159,cs),
(476,-162,o),
(466,-163,o),
(456,-160,cs)
);
},
{
closed = 1;
nodes = (
(273,-636,o),
(253,-604,o),
(253,-546,cs),
(253,-490,o),
(273,-458,o),
(314,-458,cs),
(353,-458,o),
(373,-490,o),
(373,-546,cs),
(373,-604,o),
(353,-636,o),
(314,-636,cs)
);
}
);
width = 1124;
},
{
associatedMasterId = "49F060A0-2273-4F54-8B81-08E0B15B03EC";
layerId = "34272916-1B45-4621-AC4B-B8D272D63C77";
name = "4 Dec 23 at 02:42";
shapes = (
{
closed = 1;
nodes = (
(340,136,o),
(313,184,o),
(313,216,cs),
(313,251,o),
(332,272,o),
(373,272,cs),
(414,272,o),
(437,251,o),
(437,209,cs),
(437,159,o),
(421,136,o),
(388,136,cs)
);
},
{
closed = 1;
nodes = (
(733,614,o),
(694,603,o),
(651,578,cs),
(633,567,o),
(629,572,o),
(617,584,cs),
(597,604,o),
(569,613,o),
(541,613,cs),
(494,613,o),
(455,585,o),
(433,551,cs),
(427,542,o),
(423,532,o),
(411,532,cs),
(401,532,o),
(395,540,o),
(389,547,cs),
(354,588,o),
(302,613,o),
(236,613,cs),
(99,613,o),
(24,507,o),
(24,367,cs),
(24,273,o),
(58,169,o),
(123,88,cs),
(169,30,o),
(230,-13,o),
(301,-13,cs),
(350,-13,o),
(398,8,o),
(429,49,cs),
(435,57,o),
(442,64,o),
(452,64,cs),
(463,64,o),
(471,58,o),
(474,49,cs),
(487,9,o),
(508,-14,o),
(541,-14,cs),
(576,-14,o),
(600,12,o),
(613,61,cs),
(616,73,o),
(617,77,o),
(618,79,cs),
(619,81,o),
(620,82,o),
(622,82,cs),
(625,82,o),
(626,81,o),
(628,79,c),
(675,33,o),
(751,-14,o),
(853,-14,cs),
(897,-14,o),
(950,-5,o),
(984,13,cs),
(1018,31,o),
(1035,59,o),
(1024,82,cs),
(1017,97,o),
(993,123,o),
(951,99,cs),
(930,87,o),
(909,64,o),
(864,64,cs),
(814,64,o),
(736,110,o),
(759,133,cs),
(765,140,o),
(778,134,o),
(780,133,cs),
(798,126,o),
(814,120,o),
(849,120,cs),
(984,120,o),
(1109,219,o),
(1109,363,cs),
(1109,493,o),
(1008,614,o),
(810,614,cs)
);
},
{
closed = 1;
nodes = (
(761,213,o),
(742,241,o),
(742,273,cs),
(742,309,o),
(766,348,o),
(808,348,cs),
(840,348,o),
(860,326,o),
(860,295,cs),
(860,261,o),
(835,213,o),
(793,213,cs)
);
}
);
width = 1124;
},
{
layerId = "49F060A0-2273-4F54-8B81-08E0B15B03EC";
name = Regular;
shapes = (
{
closed = 1;
nodes = (
(605,229,o),
(586,256,o),
(586,285,cs),
(586,319,o),
(609,354,o),
(648,354,cs),
(678,354,o),
(696,333,o),
(696,305,cs),
(696,272,o),
(672,229,o),
(635,229,cs)
);
},
{
closed = 1;
nodes = (
(329,124,o),
(310,171,o),
(310,192,cs),
(310,220,o),
(326,239,o),
(362,239,cs),
(393,239,o),
(407,224,o),
(415,186,cs),
(421,157,o),
(412,124,o),
(374,124,cs)
);
},
{
closed = 1;
nodes = (
(477,44,o),
(482,46,o),
(488,46,cs),
(492,46,o),
(496,45,o),
(500,42,cs),
(548,6,o),
(612,-14,o),
(693,-14,cs),
(751,-14,o),
(776,-4,o),
(805,10,cs),
(839,25,o),
(863,58,o),
(849,88,cs),
(838,112,o),
(808,121,o),
(781,104,cs),
(731,71,o),
(686,68,o),
(658,68,cs),
(621,68,o),
(583,78,o),
(583,111,cs),
(583,125,o),
(590,142,o),
(620,142,cs),
(837,142,o),
(933,256,o),
(933,359,cs),
(933,500,o),
(833,612,o),
(647,612,cs),
(573,612,o),
(518,589,o),
(479,555,cs),
(475,551,o),
(470,549,o),
(465,549,cs),
(461,549,o),
(456,551,o),
(452,554,cs),
(404,592,o),
(340,612,o),
(266,612,cs),
(140,612,o),
(30,563,o),
(30,459,cs),
(30,381,o),
(62,361,o),
(112,361,cs),
(164,361,o),
(237,384,o),
(310,384,cs),
(355,384,o),
(376,368,o),
(376,350,cs),
(376,317,o),
(331,317,o),
(295,317,cs),
(156,317,o),
(62,266,o),
(62,154,cs),
(62,55,o),
(180,-15,o),
(291,-15,cs),
(352,-15,o),
(404,-17,o),
(473,40,c)
);
}
);
width = 961;
},
{
associatedMasterId = "49F060A0-2273-4F54-8B81-08E0B15B03EC";
layerId = "DA4F3A80-6C6D-4586-8E45-92BF4E3516A1";
name = "4 Dec 23 at 02:46";
shapes = (
{
closed = 1;
nodes = (
(605,229,o),
(586,256,o),
(586,285,cs),
(586,319,o),
(609,354,o),
(648,354,cs),
(678,354,o),
(696,333,o),
(696,305,cs),
(696,272,o),
(672,229,o),
(635,229,cs)
);
},
{
closed = 1;
nodes = (
(329,124,o),
(310,171,o),
(310,192,cs),
(310,220,o),
(326,239,o),
(362,239,cs),
(393,239,o),
(407,224,o),
(415,186,cs),
(423,145,o),
(402,124,o),
(374,124,cs)
);
},
{
closed = 0;
nodes = (
(38,458,l)
);
},
{
closed = 1;
nodes = (
(355,384,o),
(376,368,o),
(376,350,cs),
(376,317,o),
(331,317,o),
(295,317,cs),
(156,317,o),
(62,266,o),
(62,154,cs),
(62,55,o),
(180,-18,o),
(291,-18,cs),
(352,-18,o),
(404,-17,o),
(473,40,c),
(481,48,o),
(492,48,o),
(500,42,cs),
(548,6,o),
(612,-14,o),
(693,-14,cs),
(751,-14,o),
(776,-4,o),
(805,10,cs),
(849,30,o),
(859,66,o),
(849,88,cs),
(840,108,o),
(812,124,o),
(781,104,cs),
(749,83,o),
(724,75,o),
(694,71,cs),
(651,65,o),
(583,66,o),
(583,111,cs),
(583,125,o),
(590,142,o),
(620,142,cs),
(837,142,o),
(933,256,o),
(933,359,cs),
(933,500,o),
(833,609,o),
(647,609,cs),
(573,609,o),
(518,589,o),
(479,555,cs),
(471,548,o),
(461,547,o),
(452,554,cs),
(404,592,o),
(340,610,o),
(266,610,cs),
(140,610,o),
(30,563,o),
(30,459,cs),
(30,400,o),
(87,367,o),
(144,367,cs),
(185,367,o),
(226,384,o),
(299,384,cs)
);
}
);
width = 961;
}
);
unicode = 230;
},
{
color = 10;
glyphname = b;
lastChange = "2023-12-08 15:06:06 +0000";
layers = (
{
associatedMasterId = "49F060A0-2273-4F54-8B81-08E0B15B03EC";
hints = (
{
horizontal = 1;
place = (674, 22);
place = (674, 22);
type = Stem;
}
);
layerId = "12709F5B-4EA1-4AD9-9FB4-A03B351795FF";
name = "23 Nov 23 at 22:50";
shapes = (
{
closed = 1;
nodes = (
(330,737,o),
(264,808,o),
(186,808,cs),
(107,808,o),
(29,737,o),
(29,595,cs),
(29,403,o),
(64,205,o),
(92,84,cs),
(107,21,o),
(130,-16,o),
(173,-16,cs),
(207,-16,o),
(228,7,o),
(243,47,cs),
(247,57,o),
(255,63,o),
(266,63,cs),
(276,63,o),
(283,56,o),
(289,48,cs),
(320,7,o),
(367,-16,o),
(420,-14,cs),
(488,-11,o),
(548,29,o),
(595,87,cs),
(656,163,o),
(694,269,o),
(694,359,cs),
(694,516,o),
(612,612,o),
(486,612,cs),
(440,612,o),
(399,602,o),
(370,581,c),
(364,576,o),
(359,571,o),
(351,571,cs),
(340,571,o),
(330,577,o),
(330,593,cs)
);
},
{
closed = 1;
nodes = (
(297,134,o),
(274,158,o),
(281,207,cs),
(288,253,o),
(304,272,o),
(343,270,cs),
(386,270,o),
(407,251,o),
(405,214,cs),
(403,182,o),
(374,134,o),
(335,134,cs)
);
}
);
width = 710;
},
{
associatedMasterId = "49F060A0-2273-4F54-8B81-08E0B15B03EC";
hints = (
{
horizontal = 1;
place = (674, 22);
place = (674, 22);
type = Stem;
}
);
layerId = "3423CD08-56F4-43DE-B1C3-92ACE9432932";
name = "7 Dec 23 at 19:39";
shapes = (
{
closed = 1;
nodes = (
(322,737,o),
(256,808,o),
(178,808,cs),
(99,808,o),
(21,737,o),
(21,595,cs),
(21,403,o),
(56,205,o),
(84,84,cs),
(99,21,o),
(122,-16,o),
(165,-16,cs),
(199,-16,o),
(220,7,o),
(235,47,cs),
(239,57,o),
(247,63,o),
(258,63,cs),
(268,63,o),
(275,56,o),
(281,48,cs),
(312,7,o),
(359,-14,o),
(412,-14,cs),
(480,-14,o),
(540,29,o),
(587,87,cs),
(648,163,o),
(686,269,o),
(686,359,cs),
(686,516,o),
(604,612,o),
(478,612,cs),
(432,612,o),
(391,602,o),
(362,581,c),
(356,576,o),
(351,571,o),
(343,571,cs),
(332,571,o),
(322,577,o),
(322,593,cs)
);
},
{
closed = 1;
nodes = (
(288,117,o),
(257,150,o),
(269,211,cs),
(281,272,o),
(303,295,o),
(352,295,cs),
(407,295,o),
(433,266,o),
(433,222,cs),
(433,190,o),
(402,117,o),
(333,117,cs)
);
}
);
width = 702;
},
{
hints = (
{
horizontal = 1;
place = (674, 22);
place = (674, 22);
type = Stem;
}
);
layerId = "49F060A0-2273-4F54-8B81-08E0B15B03EC";
name = Regular;
shapes = (
{
closed = 1;
nodes = (
(279,737,o),
(227,812,o),
(149,812,cs),
(70,812,o),
(16,737,o),
(16,595,cs),
(16,403,o),
(47,205,o),
(75,84,cs),
(90,21,o),
(108,-16,o),
(140,-16,cs),
(170,-16,o),
(189,7,o),
(204,47,cs),
(208,57,o),
(216,63,o),
(227,63,cs),
(237,63,o),
(244,56,o),
(250,48,cs),
(281,7,o),
(328,-14,o),
(381,-14,cs),
(508,-14,o),
(632,151,o),
(632,360,cs),
(632,517,o),
(545,612,o),
(438,612,cs),
(342,612,o),
(337,571,o),
(307,571,cs),
(296,571,o),
(279,577,o),
(279,593,c)
);
},
{
closed = 1;
nodes = (
(242,117,o),
(229,167,o),
(238,211,cs),
(250,272,o),
(272,295,o),
(321,295,cs),
(376,295,o),
(402,266,o),
(402,222,cs),
(402,190,o),
(371,117,o),
(302,117,cs)
);
}
);
width = 656;
}
);
unicode = 98;
},
{
color = 10;
glyphname = c;
lastChange = "2023-12-18 04:27:06 +0000";
layers = (
{
layerId = "49F060A0-2273-4F54-8B81-08E0B15B03EC";
shapes = (
{
closed = 1;
nodes = (
(596,542,o),
(494,615,o),
(353,615,cs),
(211,615,o),
(24,520,o),
(24,306,cs),
(24,113,o),
(176,-15,o),
(346,-15,cs),
(389,-15,o),
(435,-7,o),
(466,7,cs),
(502,23,o),
(517,47,o),
(517,67,cs),
(517,90,o),
(495,111,o),
(470,111,cs),
(461,111,o),
(451,108,o),
(440,101,cs),
(404,77,o),
(386,71,o),
(353,71,cs),
(278,71,o),
(215,121,o),
(215,185,cs),
(215,231,o),
(248,293,o),
(314,293,cs),
(373,293,o),
(386,245,o),
(452,245,cs),
(536,245,o),
(596,323,o),
(596,418,cs)
);
}
);
width = 597;
}
);
unicode = 99;
},
{
glyphname = cacute;
lastChange = "2023-11-19 08:25:18 +0000";
layers = (
{
layerId = "49F060A0-2273-4F54-8B81-08E0B15B03EC";
shapes = (
{
ref = c;
},
{
closed = 1;
nodes = (
(342,697,o),
(289,672,o),
(245,666,cs),
(215,662,o),
(186,664,o),
(173,689,cs),
(157,721,o),
(177,745,o),
(217,765,cs),
(282,798,o),
(287,851,o),
(333,877,cs),
(363,894,o),
(398,889,o),
(423,856,cs),
(454,815,o),
(435,767,o),
(382,727,cs)
);
}
);
width = 595;
}
);
unicode = 263;
},
{
glyphname = ccaron;
lastChange = "2023-11-24 12:39:17 +0000";
layers = (
{
anchors = (
{
name = top;
pos = (288,877);
}
);
layerId = "49F060A0-2273-4F54-8B81-08E0B15B03EC";
shapes = (
{
ref = c;
},
{
closed = 1;
nodes = (
(332,791,o),
(342,800,o),
(360,813,cs),
(381,828,o),
(405,846,o),
(418,856,cs),
(452,880,o),
(477,898,o),
(496,880,cs),
(511,864,o),
(497,845,o),
(479,807,cs),
(466,782,o),
(449,750,o),
(429,715,cs),
(402,667,o),
(366,637,o),
(322,637,cs),
(278,637,o),
(242,667,o),
(215,715,cs),
(195,750,o),
(178,782,o),
(165,807,cs),
(147,845,o),
(133,864,o),
(148,880,cs),
(167,898,o),
(192,880,o),
(226,856,c),
(279,817,ls),
(303,800,o),
(312,791,o),
(322,791,cs)
);
}
);
width = 595;
}
);
unicode = 269;
},
{
glyphname = ccedilla;
lastChange = "2023-12-04 19:57:41 +0000";
layers = (
{
associatedMasterId = "49F060A0-2273-4F54-8B81-08E0B15B03EC";
layerId = "C6E446DB-F3EA-4091-8BB0-504BA33604DA";
name = "4 Dec 23 at 20:57";
shapes = (
{
closed = 1;
nodes = (
(322,-196,o),
(346,-194,o),
(366,-186,cs),
(393,-175,o),
(412,-153,o),
(412,-118,c),
(412,-104,o),
(410,-91,o),
(406,-78,cs),
(386,-15,o),
(317,14,o),
(283,-8,cs),
(274,-14,o),
(255,-32,o),
(255,-57,cs),
(255,-74,o),
(263,-86,o),
(276,-92,cs),
(285,-96,o),
(305,-102,o),
(316,-109,cs),
(325,-115,o),
(330,-123,o),
(330,-131,cs),
(330,-146,o),
(314,-154,o),
(284,-154,cs),
(270,-154,o),
(258,-161,o),
(258,-176,cs),
(258,-193,o),
(275,-196,o),
(301,-196,cs)
);
},
{
ref = c;
}
);
width = 595;
},
{
layerId = "49F060A0-2273-4F54-8B81-08E0B15B03EC";
name = Regular;
shapes = (
{
closed = 1;
nodes = (
(319,-53,o),
(332,-76,o),
(332,-96,cs),
(332,-109,o),
(322,-120,o),
(308,-120,cs),
(285,-120,o),
(282,-98,o),
(258,-98,cs),
(240,-98,o),
(226,-114,o),
(226,-138,cs),
(226,-171,o),
(261,-200,o),
(316,-200,cs),
(372,-200,o),
(412,-169,o),
(412,-123,cs),
(412,-94,o),
(396,-61,o),
(374,-36,cs),
(363,-23,o),
(365,-16,o),
(382,-14,cs),
(414,-11,o),
(444,-4,o),
(466,6,cs),
(512,27,o),
(524,60,o),
(513,83,cs),
(503,104,o),
(473,122,o),
(440,100,cs),
(404,76,o),
(386,65,o),
(353,65,cs),
(278,65,o),
(215,120,o),
(215,184,cs),
(215,230,o),
(248,292,o),
(314,292,cs),
(373,292,o),
(386,244,o),
(452,244,cs),
(536,244,o),
(596,322,o),
(596,417,cs),
(596,541,o),
(494,615,o),
(353,615,cs),
(211,615,o),
(24,519,o),
(24,305,cs),
(24,139,o),
(137,21,o),
(276,-9,cs),
(294,-13,o),
(305,-33,o),
(312,-43,cs)
);
}
);
width = 595;
}
);
unicode = 231;
},
{
glyphname = cdotaccent;
lastChange = "2023-12-01 01:58:27 +0000";
layers = (
{
anchors = (
{
name = top;
pos = (312,841);
}
);
layerId = "49F060A0-2273-4F54-8B81-08E0B15B03EC";
shapes = (
{
ref = c;
},
{
closed = 1;
nodes = (
(236,724,o),
(266,695,o),
(312,695,cs),
(358,695,o),
(388,724,o),
(388,769,cs),
(388,813,o),
(358,841,o),
(312,841,cs),
(266,841,o),
(236,813,o),
(236,769,cs)
);
}
);
width = 595;
}
);
unicode = 267;
},
{
color = 10;
glyphname = d;
lastChange = "2023-12-16 15:15:50 +0000";
layers = (
{
associatedMasterId = "49F060A0-2273-4F54-8B81-08E0B15B03EC";
layerId = "060D5839-A15B-47EE-9375-A00DAE4CFDE6";
name = "23 Nov 23 at 22:51";
shapes = (
{
closed = 1;
nodes = (
(388,580,o),
(378,574,o),
(367,574,cs),
(359,574,o),
(354,579,o),
(348,584,c),
(319,605,o),
(278,615,o),
(232,615,cs),
(106,615,o),
(24,519,o),
(24,362,cs),
(24,272,o),
(62,166,o),
(123,90,cs),
(170,32,o),
(230,-8,o),
(298,-11,cs),
(351,-13,o),
(398,10,o),
(429,51,cs),
(435,59,o),
(442,66,o),
(452,66,cs),
(463,66,o),
(471,60,o),
(475,50,cs),
(490,10,o),
(511,-13,o),
(545,-13,cs),
(588,-13,o),
(611,24,o),
(626,87,cs),
(654,208,o),
(689,406,o),
(689,598,cs),
(689,740,o),
(611,811,o),
(532,811,cs),
(454,811,o),
(388,740,o),
(388,596,cs)
);
},
{
closed = 1;
nodes = (
(343,136,o),
(314,184,o),
(312,216,cs),
(310,253,o),
(331,272,o),
(374,272,cs),
(413,274,o),
(429,255,o),
(436,209,cs),
(443,160,o),
(420,136,o),
(382,136,cs)
);
}
);
width = 718;
},
{
associatedMasterId = "49F060A0-2273-4F54-8B81-08E0B15B03EC";
layerId = "5E7621BB-D3F6-48AD-933A-EFEA7E93A9BF";
name = "9 Dec 23 at 09:09";
shapes = (
{
closed = 1;
nodes = (
(388,580,o),
(378,574,o),
(367,574,cs),
(359,574,o),
(354,579,o),
(348,584,c),
(319,605,o),
(278,615,o),
(232,615,cs),
(106,615,o),
(24,519,o),
(24,362,cs),
(24,272,o),
(62,166,o),
(123,90,cs),
(170,32,o),
(230,-11,o),
(298,-11,cs),
(351,-11,o),
(398,10,o),
(429,51,cs),
(435,59,o),
(442,66,o),
(452,66,cs),
(463,66,o),
(471,60,o),
(475,50,cs),
(490,10,o),
(511,-13,o),
(545,-13,cs),
(588,-13,o),
(611,24,o),
(626,87,cs),
(654,208,o),
(689,406,o),
(689,598,cs),
(689,740,o),
(611,811,o),
(532,811,cs),
(454,811,o),
(388,740,o),
(388,596,cs)
);
},
{
closed = 1;
nodes = (
(308,119,o),
(277,191,o),
(277,223,cs),
(277,267,o),
(302,295,o),
(357,295,cs),
(405,295,o),
(427,272,o),
(439,212,cs),
(451,152,o),
(420,119,o),
(376,119,cs)
);
}
);
width = 705;
},
{
layerId = "49F060A0-2273-4F54-8B81-08E0B15B03EC";
name = Regular;
shapes = (
{
closed = 1;
nodes = (
(288,119,o),
(257,188,o),
(257,228,cs),
(257,264,o),
(282,295,o),
(335,295,cs),
(385,295,o),
(411,267,o),
(419,212,cs),
(428,146,o),
(400,119,o),
(357,119,cs)
);
},
{
closed = 1;
nodes = (
(377,577,o),
(360,571,o),
(349,571,cs),
(322,571,o),
(305,612,o),
(226,612,cs),
(105,612,o),
(24,517,o),
(24,353,cs),
(24,151,o),
(148,-14,o),
(279,-14,cs),
(326,-14,o),
(375,7,o),
(406,48,cs),
(412,56,o),
(419,63,o),
(429,63,cs),
(440,63,o),
(448,57,o),
(452,47,cs),
(467,8,o),
(486,-16,o),
(514,-16,cs),
(549,-16,o),
(566,21,o),
(581,84,cs),
(602,172,o),
(640,403,o),
(640,562,cs),
(640,737,o),
(594,812,o),
(511,812,cs),
(427,812,o),
(377,736,o),
(377,593,c)
);
}
);
width = 669;
}
);
unicode = 100;
},
{
glyphname = dcaron;
lastChange = "2023-11-18 23:50:44 +0000";
layers = (
{
anchors = (
{
name = top;
pos = (792,828);
}
);
layerId = "49F060A0-2273-4F54-8B81-08E0B15B03EC";
shapes = (
{
ref = d;
},
{
closed = 1;
nodes = (
(828,812,o),
(856,785,o),
(856,723,cs),
(856,669,o),
(845,624,o),
(839,600,cs),
(824,543,o),
(811,524,o),
(789,524,cs),
(767,524,o),
(754,543,o),
(739,600,cs),
(733,624,o),
(722,669,o),
(722,723,cs),
(722,785,o),
(750,812,o),
(789,812,cs)
);
}
);
width = 876;
}
);
unicode = 271;
},
{
glyphname = dcroat;
lastChange = "2023-12-08 15:12:20 +0000";
layers = (
{
associatedMasterId = "49F060A0-2273-4F54-8B81-08E0B15B03EC";
layerId = "029F95D6-763D-4086-B206-28ADD5C2014C";
name = "24 Nov 23 at 14:53";
shapes = (
{
closed = 1;
nodes = (
(614,791,o),
(572,811,o),
(530,811,cs),
(493,811,o),
(458,795,o),
(432,762,cs),
(428,757,o),
(425,757,o),
(420,757,cs),
(324,757,o),
(295,717,o),
(295,677,cs),
(295,642,o),
(316,615,o),
(379,603,cs),
(384,602,o),
(386,601,o),
(386,596,cs),
(386,580,o),
(376,574,o),
(365,574,cs),
(357,574,o),
(352,579,o),
(346,584,c),
(317,605,o),
(276,615,o),
(230,615,cs),
(104,615,o),
(22,519,o),
(22,362,cs),
(22,272,o),
(60,166,o),
(121,90,cs),
(168,32,o),
(228,-8,o),
(296,-11,cs),
(349,-13,o),
(396,10,o),
(427,51,cs),
(433,59,o),
(440,66,o),
(450,66,cs),
(461,66,o),
(469,60,o),
(473,50,cs),
(488,10,o),
(509,-13,o),
(543,-13,cs),
(586,-13,o),
(609,24,o),
(624,87,cs),
(652,208,o),
(687,406,o),
(687,598,cs),
(687,603,o),
(687,607,o),
(687,613,cs),
(687,619,o),
(688,622,o),
(693,623,cs),
(760,639,o),
(786,658,o),
(786,682,cs),
(786,708,o),
(759,723,o),
(673,740,cs),
(669,741,o),
(664,742,o),
(657,743,c),
(651,744,o),
(648,744,o),
(643,751,c)
);
},
{
closed = 0;
nodes = (
(657,743,l)
);
},
{
closed = 1;
nodes = (
(342,136,o),
(313,184,o),
(311,216,cs),
(309,253,o),
(330,272,o),
(373,272,cs),
(412,274,o),
(428,255,o),
(435,209,cs),
(442,160,o),
(419,136,o),
(381,136,cs)
);
},
{
closed = 1;
nodes = (
(308,119,o),
(277,191,o),
(277,223,cs),
(277,267,o),
(302,295,o),
(357,295,cs),
(405,295,o),
(427,272,o),
(439,212,cs),
(451,152,o),
(420,119,o),
(376,119,cs)
);
}
);
width = 803;
},
{
layerId = "49F060A0-2273-4F54-8B81-08E0B15B03EC";
name = Regular;
shapes = (
{
closed = 1;
nodes = (
(184,-14,o),
(309,-14,cs),
(352,-14,o),
(393,6,o),
(427,51,cs),
(433,59,o),
(440,66,o),
(448,66,cs),
(453,66,o),
(462,64,o),
(467,50,cs),
(483,7,o),
(509,-14,o),
(533,-14,cs),
(639,-14,o),
(665,405,o),
(665,548,cs),
(665,560,o),
(672,568,o),
(685,571,cs),
(745,585,o),
(769,602,o),
(769,622,cs),
(769,645,o),
(746,657,o),
(676,672,cs),
(663,674,o),
(657,681,o),
(654,693,cs),
(635,782,o),
(595,813,o),
(547,813,cs),
(500,813,o),
(463,786,o),
(442,710,cs),
(438,697,o),
(431,691,o),
(417,691,cs),
(313,687,o),
(283,656,o),
(283,618,cs),
(283,581,o),
(310,556,o),
(398,549,cs),
(413,548,o),
(437,544,o),
(444,518,cs),
(453,486,o),
(460,418,o),
(420,418,cs),
(378,418,o),
(368,536,o),
(225,536,cs),
(113,536,o),
(45,444,o),
(45,318,cs),
(45,150,o)
);
},
{
closed = 1;
nodes = (
(338,140,o),
(314,195,o),
(314,220,cs),
(314,254,o),
(333,275,o),
(376,275,cs),
(428,275,o),
(441,228,o),
(441,192,cs),
(441,158,o),
(419,140,o),
(391,140,cs)
);
}
);
width = 803;
}
);
unicode = 273;
},
{
glyphname = eth;
lastChange = "2023-12-03 20:52:15 +0000";
layers = (
{
associatedMasterId = "49F060A0-2273-4F54-8B81-08E0B15B03EC";
layerId = "D48CB2AE-C32A-4A8D-996D-B22F0A3E9624";
name = "24 Nov 23 at 16:24";
shapes = (
{
closed = 0;
nodes = (
(256,495,l)
);
},
{
closed = 1;
nodes = (
(249,501,o),
(251,500,o),
(256,495,cs),
(264,487,o),
(270,479,o),
(276,469,cs),
(297,434,o),
(296,426,o),
(292,421,cs),
(282,409,o),
(271,425,o),
(256,436,cs),
(237,450,o),
(207,454,o),
(183,454,cs),
(82,454,o),
(22,383,o),
(22,271,cs),
(22,195,o),
(50,120,o),
(94,65,cs),
(130,20,o),
(178,-12,o),
(267,-12,cs),
(351,-12,o),
(426,16,o),
(502,111,cs),
(572,199,o),
(639,343,o),
(597,533,cs),
(586,582,o),
(570,624,o),
(556,650,cs),
(549,662,o),
(549,667,o),
(553,672,c),
(556,674,o),
(564,681,o),
(566,683,cs),
(611,721,o),
(617,756,o),
(604,774,cs),
(586,800,o),
(498,769,o),
(477,761,cs),
(468,758,o),
(464,759,o),
(459,764,cs),
(423,802,o),
(357,817,o),
(292,795,cs),
(222,771,o),
(174,711,o),
(186,649,cs),
(188,636,o),
(180,632,o),
(176,629,cs),
(119,588,o),
(111,551,o),
(131,517,cs),
(147,490,o),
(179,467,o),
(236,495,cs)
);
},
{
closed = 1;
nodes = (
(239,121,o),
(213,164,o),
(212,194,cs),
(210,227,o),
(229,245,o),
(268,245,cs),
(303,247,o),
(318,229,o),
(325,188,cs),
(331,143,o),
(310,121,o),
(275,121,cs)
);
}
);
width = 620;
},
{
layerId = "49F060A0-2273-4F54-8B81-08E0B15B03EC";
name = Regular;
shapes = (
{
closed = 0;
nodes = (
(256,495,l)
);
},
{
closed = 1;
nodes = (
(249,501,o),
(251,500,o),
(256,495,cs),
(264,487,o),
(270,479,o),
(276,469,cs),
(297,434,o),
(296,426,o),
(292,421,cs),
(282,409,o),
(271,425,o),
(256,436,cs),
(237,450,o),
(207,454,o),
(183,454,cs),
(82,454,o),
(22,383,o),
(22,271,cs),
(22,195,o),
(50,120,o),
(94,65,cs),
(130,20,o),
(178,-12,o),
(267,-12,cs),
(351,-12,o),
(426,16,o),
(502,111,cs),
(572,199,o),
(639,343,o),
(597,533,cs),
(586,582,o),
(570,624,o),
(556,650,cs),
(549,662,o),
(549,667,o),
(553,672,c),
(556,674,o),
(564,681,o),
(566,683,cs),
(611,721,o),
(617,756,o),
(604,774,cs),
(586,800,o),
(498,769,o),
(477,761,cs),
(468,758,o),
(464,759,o),
(459,764,cs),
(423,802,o),
(357,817,o),
(292,795,cs),
(222,771,o),
(174,711,o),
(186,649,cs),
(188,636,o),
(180,632,o),
(176,629,cs),
(119,588,o),
(111,551,o),
(131,517,cs),
(147,490,o),
(179,467,o),
(236,495,cs)
);
},
{
closed = 1;
nodes = (
(224,116,o),
(200,172,o),
(200,197,cs),
(200,231,o),
(219,252,o),
(262,252,cs),
(299,252,o),
(316,235,o),
(325,188,cs),
(335,142,o),
(310,116,o),
(277,116,cs)
);
}
);
width = 620;
},
{
associatedMasterId = "49F060A0-2273-4F54-8B81-08E0B15B03EC";
layerId = "3CA786F4-98CC-4956-A366-82F0A213C0E6";
name = "3 Dec 23 at 06:00";
shapes = (
{
closed = 0;
nodes = (
(256,495,l)
);
},
{
closed = 1;
nodes = (
(249,501,o),
(251,500,o),
(256,495,cs),
(264,487,o),
(270,479,o),
(276,469,cs),
(297,434,o),
(296,426,o),
(292,421,cs),
(282,409,o),
(271,425,o),
(256,436,cs),
(237,450,o),
(207,454,o),
(183,454,cs),
(82,454,o),
(22,383,o),
(22,271,cs),
(22,195,o),
(50,120,o),
(94,65,cs),
(130,20,o),
(178,-12,o),
(267,-12,cs),
(351,-12,o),
(426,16,o),
(502,111,cs),
(572,199,o),
(639,343,o),
(597,533,cs),
(586,582,o),
(570,624,o),
(556,650,cs),
(549,662,o),
(549,667,o),
(553,672,c),
(556,674,o),
(564,681,o),
(566,683,cs),
(611,721,o),
(617,756,o),
(604,774,cs),
(586,800,o),
(498,769,o),
(477,761,cs),
(468,758,o),
(464,759,o),
(459,764,cs),
(423,802,o),
(357,817,o),
(292,795,cs),
(222,771,o),
(174,711,o),
(186,649,cs),
(188,636,o),
(180,632,o),
(176,629,cs),
(119,588,o),
(111,551,o),
(131,517,cs),
(147,490,o),
(179,467,o),
(236,495,cs)
);
},
{
closed = 1;
nodes = (
(224,116,o),
(200,172,o),
(200,197,cs),
(200,231,o),
(219,252,o),
(262,252,cs),
(299,252,o),
(316,235,o),
(325,188,cs),
(335,142,o),
(310,116,o),
(277,116,cs)
);
}
);
width = 620;
},
{
associatedMasterId = "49F060A0-2273-4F54-8B81-08E0B15B03EC";
layerId = "437F8B44-2EBB-4FB1-8993-FFB6BE6885FD";
name = "3 Dec 23 at 20:06";
shapes = (
{
closed = 1;
nodes = (
(351,-12,o),
(426,16,o),
(502,111,cs),
(561,186,o),
(583,285,o),
(583,377,cs),
(583,475,o),
(559,566,o),
(529,617,cs),
(523,627,o),
(521,634,o),
(521,639,cs),
(521,655,o),
(539,661,o),
(566,683,cs),
(595,706,o),
(622,742,o),
(604,769,cs),
(583,800,o),
(499,767,o),
(477,761,cs),
(468,758,o),
(461,757,o),
(456,757,cs),
(442,757,o),
(440,764,o),
(433,770,cs),
(386,812,o),
(335,816,o),
(291,795,cs),
(258,775,o),
(241,746,o),
(241,694,cs),
(241,657,o),
(239,654,o),
(182,629,cs),
(130,606,o),
(100,558,o),
(131,512,cs),
(157,473,o),
(203,472,o),
(236,495,cs),
(270,519,o),
(292,527,o),
(307,527,cs),
(336,527,o),
(377,448,o),
(346,433,cs),
(296,411,o),
(237,454,o),
(183,454,cs),
(82,454,o),
(22,383,o),
(22,271,cs),
(22,164,o),
(79,-12,o),
(267,-12,cs)
);
},
{
closed = 1;
nodes = (
(224,116,o),
(200,172,o),
(200,197,cs),
(200,231,o),
(219,252,o),
(262,252,cs),
(299,252,o),
(316,235,o),
(325,188,cs),
(332,155,o),
(320,116,o),
(277,116,cs)
);
}
);
width = 620;
}
);
unicode = 240;
},
{
color = 10;
glyphname = e;
lastChange = "2023-12-08 15:06:43 +0000";
layers = (
{
associatedMasterId = "49F060A0-2273-4F54-8B81-08E0B15B03EC";
layerId = "B7D7E82B-DF8C-4018-977C-E49B44DCF1C8";
name = "16 Nov 23 at 18:25";
shapes = (
{
closed = 0;
nodes = (
(274,113,l)
);
},
{
closed = 1;
nodes = (
(249,207,o),
(227,213,o),
(215,241,cs),
(212,249,o),
(213,256,o),
(214,263,cs),
(220,304,ls),
(223,325,o),
(239,343,o),
(278,343,cs),
(315,343,o),
(340,333,o),
(340,287,cs),
(340,255,o),
(309,207,o),
(270,207,cs)
);
},
{
closed = 1;
nodes = (
(411,-15,o),
(466,-8,o),
(497,9,cs),
(534,29,o),
(547,56,o),
(537,78,cs),
(529,97,o),
(498,117,o),
(463,95,cs),
(431,72,o),
(411,60,o),
(377,60,cs),
(333,60,o),
(296,80,o),
(274,113,cs),
(270,118,o),
(268,125,o),
(272,129,cs),
(277,134,o),
(283,133,o),
(288,131,cs),
(311,121,o),
(334,116,o),
(359,116,cs),
(499,116,o),
(600,217,o),
(600,352,cs),
(600,491,o),
(522,616,o),
(297,616,cs),
(122,616,o),
(40,515,o),
(40,358,cs),
(40,268,o),
(55,178,o),
(116,102,cs),
(163,44,o),
(246,-15,o),
(369,-15,cs)
);
}
);
width = 634;
},
{
associatedMasterId = "49F060A0-2273-4F54-8B81-08E0B15B03EC";
backgroundImage = {
imagePath = "/Volumes/ADAM-DOC/DOCUMENTS/Google-project_african languages/20octobre/23 October2023/28 October2023/maremasie2/correctionlisa23-12-1/Screenshot 2023-12-02 at 13.33.24.png";
locked = 1;
pos = (-31,-250);
scale = (4.4196,4.4196);
};
layerId = "5D673BD8-33B0-4379-8F3E-7E03007FC4FE";
name = "2 Dec 23 at 15:24";
shapes = (
{
closed = 1;
nodes = (
(258,231,o),
(239,257,o),
(239,288,cs),
(239,322,o),
(262,359,o),
(302,359,cs),
(332,359,o),
(351,338,o),
(351,309,cs),
(351,276,o),
(327,231,o),
(288,231,cs)
);
},
{
closed = 1;
nodes = (
(349,61,o),
(245,39,o),
(245,93,cs),
(245,130,o),
(295,127,o),
(334,130,cs),
(489,143,o),
(608,257,o),
(608,385,cs),
(608,495,o),
(505,613,o),
(316,613,cs),
(119,613,o),
(48,485,o),
(48,290,cs),
(48,151,o),
(84,-14,o),
(340,-14,cs),
(393,-14,o),
(434,-7,o),
(462,6,cs),
(506,26,o),
(517,58,o),
(507,79,cs),
(497,100,o),
(468,115,o),
(436,94,cs),
(404,73,o),
(387,67,o),
(355,62,cs)
);
}
);
width = 619;
},
{
associatedMasterId = "49F060A0-2273-4F54-8B81-08E0B15B03EC";
layerId = "884C538D-154D-411F-9FD0-C1C2296707DE";
name = "2 Dec 23 at 15:39";
shapes = (
{
closed = 1;
nodes = (
(256,213,o),
(237,241,o),
(237,273,cs),
(237,309,o),
(261,348,o),
(303,348,cs),
(335,348,o),
(355,326,o),
(355,295,cs),
(355,261,o),
(330,213,o),
(288,213,cs)
);
},
{
closed = 1;
nodes = (
(393,-14,o),
(444,-7,o),
(477,10,cs),
(512,28,o),
(527,57,o),
(517,78,cs),
(508,98,o),
(477,117,o),
(444,95,cs),
(408,71,o),
(391,61,o),
(359,61,cs),
(314,61,o),
(275,81,o),
(255,113,cs),
(250,121,o),
(249,125,o),
(253,129,cs),
(258,134,o),
(264,133,o),
(269,131,cs),
(285,125,o),
(302,116,o),
(343,116,cs),
(479,116,o),
(604,215,o),
(604,359,cs),
(604,489,o),
(501,617,o),
(301,617,cs),
(103,617,o),
(24,474,o),
(24,335,cs),
(24,102,o),
(198,-14,o),
(354,-14,cs)
);
}
);
width = 619;
},
{
associatedMasterId = "49F060A0-2273-4F54-8B81-08E0B15B03EC";
layerId = "B048A72E-0C15-4E22-A5A1-A5E2A7C19909";
name = "2 Dec 23 at 19:07";
shapes = (
{
closed = 1;
nodes = (
(259,231,o),
(240,258,o),
(240,288,cs),
(240,322,o),
(263,358,o),
(302,358,cs),
(333,358,o),
(351,337,o),
(351,308,cs),
(351,275,o),
(327,231,o),
(289,231,cs)
);
},
{
closed = 1;
nodes = (
(305,65,o),
(236,66,o),
(236,111,cs),
(236,126,o),
(244,143,o),
(274,143,cs),
(494,143,o),
(591,258,o),
(591,363,cs),
(591,506,o),
(490,616,o),
(301,616,cs),
(106,616,o),
(44,480,o),
(44,314,cs),
(44,105,o),
(143,-15,o),
(348,-15,cs),
(407,-15,o),
(432,-5,o),
(462,9,cs),
(506,29,o),
(516,66,o),
(506,88,cs),
(497,108,o),
(469,125,o),
(437,104,cs),
(405,83,o),
(379,75,o),
(349,71,cs)
);
}
);
width = 619;
},
{
layerId = "49F060A0-2273-4F54-8B81-08E0B15B03EC";
name = Regular;
shapes = (
{
closed = 1;
nodes = (
(285,65,o),
(216,66,o),
(216,111,cs),
(216,126,o),
(224,143,o),
(254,143,cs),
(474,143,o),
(571,258,o),
(571,363,cs),
(571,506,o),
(470,616,o),
(281,616,cs),
(86,616,o),
(24,480,o),
(24,314,cs),
(24,105,o),
(123,-15,o),
(328,-15,cs),
(387,-15,o),
(412,-5,o),
(442,9,cs),
(486,29,o),
(496,66,o),
(486,88,cs),
(477,108,o),
(449,125,o),
(417,104,cs),
(385,83,o),
(359,75,o),
(329,71,cs)
);
},
{
closed = 1;
nodes = (
(237,231,o),
(214,255,o),
(221,304,cs),
(228,350,o),
(244,368,o),
(283,368,cs),
(326,368,o),
(345,348,o),
(345,311,cs),
(345,279,o),
(314,231,o),
(275,231,cs)
);
}
);
width = 589;
}
);
unicode = 101;
},
{
glyphname = eacute;
lastChange = "2023-12-01 01:58:43 +0000";
layers = (
{
anchors = (
{
name = top;
pos = (329,814);
}
);
layerId = "49F060A0-2273-4F54-8B81-08E0B15B03EC";
shapes = (
{
ref = e;
},
{
closed = 1;
nodes = (
(333,691,o),
(280,666,o),
(236,660,cs),
(206,656,o),
(177,658,o),
(164,683,cs),
(148,715,o),
(168,739,o),
(208,759,cs),
(273,792,o),
(278,845,o),
(324,871,cs),
(354,888,o),
(389,883,o),
(414,850,cs),
(445,809,o),
(426,761,o),
(373,721,cs)
);
}
);
width = 619;
}
);
unicode = 233;
},
{
glyphname = ecaron;
lastChange = "2023-11-19 02:08:19 +0000";
layers = (
{
anchors = (
{
name = top;
pos = (281,796);
}
);
layerId = "49F060A0-2273-4F54-8B81-08E0B15B03EC";
shapes = (
{
ref = e;
},
{
closed = 1;
nodes = (
(301,789,o),
(311,798,o),
(329,811,cs),
(350,826,o),
(374,844,o),
(387,854,cs),
(421,878,o),
(446,896,o),
(465,878,cs),
(480,862,o),
(466,843,o),
(448,805,cs),
(435,780,o),
(418,748,o),
(398,713,cs),
(371,665,o),
(335,635,o),
(291,635,cs),
(247,635,o),
(211,665,o),
(184,713,cs),
(164,748,o),
(147,780,o),
(134,805,cs),
(116,843,o),
(102,862,o),
(117,878,cs),
(136,896,o),
(161,878,o),
(195,854,c),
(248,815,ls),
(272,798,o),
(281,789,o),
(291,789,cs)
);
}
);
width = 619;
}
);
unicode = 283;
},
{
glyphname = ecircumflex;
lastChange = "2023-11-28 13:44:30 +0000";
layers = (
{
anchors = (
{
name = top;
pos = (300,884);
}
);
guides = (
{
pos = (4070,1487);
}
);
layerId = "49F060A0-2273-4F54-8B81-08E0B15B03EC";
shapes = (
{
ref = e;
},
{
closed = 1;
nodes = (
(290,730,o),
(281,721,o),
(257,704,cs),
(204,665,l),
(170,641,o),
(145,623,o),
(126,641,cs),
(111,657,o),
(125,676,o),
(143,714,cs),
(156,739,o),
(173,771,o),
(193,806,cs),
(220,854,o),
(256,884,o),
(300,884,cs),
(344,884,o),
(380,854,o),
(407,806,cs),
(427,771,o),
(444,739,o),
(457,714,cs),
(475,676,o),
(489,657,o),
(474,641,cs),
(455,623,o),
(430,641,o),
(396,665,cs),
(383,675,o),
(359,693,o),
(338,708,cs),
(320,721,o),
(310,730,o),
(300,730,cs)
);
}
);
width = 619;
}
);
unicode = 234;
},
{
glyphname = edieresis;
lastChange = "2023-12-01 01:58:56 +0000";
layers = (
{
anchors = (
{
name = top;
pos = (310,814);
}
);
layerId = "49F060A0-2273-4F54-8B81-08E0B15B03EC";
shapes = (
{
ref = e;
},
{
closed = 1;
nodes = (
(133,723,o),
(163,694,o),
(209,694,cs),
(255,694,o),
(285,723,o),
(285,768,cs),
(285,812,o),
(255,840,o),
(209,840,cs),
(163,840,o),
(133,812,o),
(133,768,cs)
);
},
{
closed = 1;
nodes = (
(329,723,o),
(359,694,o),
(405,694,cs),
(451,694,o),
(481,723,o),
(481,768,cs),
(481,812,o),
(451,840,o),
(405,840,cs),
(359,840,o),
(329,812,o),
(329,768,cs)
);
}
);
width = 619;
}
);
unicode = 235;
},
{
glyphname = edotaccent;
lastChange = "2023-12-01 01:59:09 +0000";
layers = (
{
anchors = (
{
name = top;
pos = (328,842);
}
);
layerId = "49F060A0-2273-4F54-8B81-08E0B15B03EC";
shapes = (
{
ref = e;
},
{
closed = 1;
nodes = (
(252,725,o),
(282,696,o),
(328,696,cs),
(374,696,o),
(404,725,o),
(404,770,cs),
(404,814,o),
(374,842,o),
(328,842,cs),
(282,842,o),
(252,814,o),
(252,770,cs)
);
}
);
width = 619;
}
);
unicode = 279;
},
{
glyphname = egrave;
lastChange = "2023-12-01 01:59:17 +0000";
layers = (
{
anchors = (
{
name = top;
pos = (250,933);
}
);
layerId = "49F060A0-2273-4F54-8B81-08E0B15B03EC";
shapes = (
{
ref = e;
},
{
closed = 1;
nodes = (
(180,761,o),
(161,809,o),
(192,850,cs),
(217,883,o),
(252,888,o),
(282,871,cs),
(328,845,o),
(333,792,o),
(398,759,cs),
(438,739,o),
(458,715,o),
(442,683,cs),
(429,658,o),
(400,656,o),
(370,660,cs),
(326,666,o),
(273,691,o),
(233,721,cs)
);
}
);
width = 619;
}
);
unicode = 232;
},
{
glyphname = emacron;
lastChange = "2023-12-01 01:59:29 +0000";
layers = (
{
anchors = (
{
name = top;
pos = (282,885);
}
);
layerId = "49F060A0-2273-4F54-8B81-08E0B15B03EC";
shapes = (
{
ref = e;
},
{
closed = 1;
nodes = (
(108,689,o),
(70,722,o),
(70,769,cs),
(70,814,o),
(106,850,o),
(234,850,cs),
(341,850,o),
(426,836,o),
(448,832,cs),
(534,815,o),
(561,800,o),
(561,774,cs),
(561,748,o),
(531,728,o),
(454,712,cs),
(418,704,o),
(332,689,o),
(238,689,cs)
);
}
);
width = 619;
}
);
unicode = 275;
},
{
glyphname = eogonek;
lastChange = "2023-12-04 18:24:19 +0000";
layers = (
{
anchors = (
{
name = bottom;
pos = (357,0);
}
);
associatedMasterId = "49F060A0-2273-4F54-8B81-08E0B15B03EC";
layerId = "4811ACAA-8122-4AD1-A870-D724475F36A4";
name = "4 Dec 23 at 19:24";
shapes = (
{
ref = e;
},
{
closed = 1;
nodes = (
(417,-176,o),
(428,-168,o),
(428,-156,cs),
(428,-144,o),
(417,-137,o),
(400,-137,cs),
(372,-137,o),
(356,-127,o),
(356,-107,cs),
(356,-94,o),
(369,-83,o),
(380,-74,cs),
(401,-56,o),
(411,-34,o),
(386,-10,cs),
(367,8,o),
(332,1,o),
(306,-28,cs),
(269,-70,o),
(275,-123,o),
(312,-156,cs),
(335,-177,o),
(363,-184,o),
(401,-178,c)
);
}
);
width = 619;
},
{
anchors = (
{
name = bottom;
pos = (357,0);
}
);
layerId = "49F060A0-2273-4F54-8B81-08E0B15B03EC";
name = Regular;
shapes = (
{
closed = 1;
nodes = (
(355,-37,o),
(359,-31,o),
(361,-26,cs),
(365,-19,o),
(370,-15,o),
(383,-14,cs),
(418,-11,o),
(439,-2,o),
(462,9,cs),
(506,29,o),
(516,66,o),
(506,88,cs),
(497,108,o),
(469,125,o),
(437,104,cs),
(405,83,o),
(379,75,o),
(349,71,cs),
(305,65,o),
(236,66,o),
(236,111,cs),
(236,126,o),
(244,143,o),
(274,143,cs),
(494,143,o),
(591,258,o),
(591,363,cs),
(591,506,o),
(490,616,o),
(301,616,cs),
(106,616,o),
(44,480,o),
(44,314,cs),
(44,129,o),
(122,13,o),
(282,-10,cs),
(298,-12,o),
(299,-19,o),
(289,-30,cs),
(264,-56,o),
(246,-92,o),
(246,-123,cs),
(246,-169,o),
(286,-200,o),
(342,-200,cs),
(397,-200,o),
(432,-171,o),
(432,-138,cs),
(432,-114,o),
(418,-98,o),
(400,-98,cs),
(376,-98,o),
(373,-120,o),
(350,-120,cs),
(336,-120,o),
(326,-109,o),
(326,-96,cs),
(326,-76,o),
(344,-53,o),
(351,-43,cs)
);
},
{
closed = 1;
nodes = (
(248,350,o),
(264,368,o),
(303,368,cs),
(346,368,o),
(365,348,o),
(365,311,cs),
(365,279,o),
(334,231,o),
(295,231,cs),
(257,231,o),
(234,255,o),
(241,304,cs)
);
}
);
width = 619;
}
);
unicode = 281;
},
{
color = 10;
glyphname = f;
lastChange = "2023-12-04 22:19:24 +0000";
layers = (
{
associatedMasterId = "49F060A0-2273-4F54-8B81-08E0B15B03EC";
layerId = "D8C286A1-9F74-454D-8DF4-F2B27FEC23C4";
name = "24 Nov 23 at 02:11";
shapes = (
{
closed = 1;
nodes = (
(10,400,o),
(48,174,o),
(69,83,cs),
(85,14,o),
(101,-17,o),
(135,-17,cs),
(171,-17,o),
(190,19,o),
(203,83,cs),
(216,147,o),
(234,227,o),
(242,329,cs),
(244,354,o),
(260,372,o),
(284,368,cs),
(290,367,o),
(371,353,o),
(411,353,cs),
(462,353,o),
(487,374,o),
(487,408,cs),
(487,440,o),
(464,460,o),
(418,463,cs),
(384,465,o),
(304,459,o),
(291,459,cs),
(269,459,o),
(256,476,o),
(255,492,cs),
(252,545,o),
(248,603,o),
(272,634,cs),
(283,648,o),
(299,656,o),
(318,656,cs),
(358,656,o),
(387,620,o),
(387,579,cs),
(387,524,o),
(420,493,o),
(471,493,cs),
(529,493,o),
(561,534,o),
(561,608,cs),
(561,806,o),
(334,806,o),
(218,806,cs),
(94,806,o),
(10,747,o),
(10,591,c)
);
}
);
width = 562;
},
{
associatedMasterId = "49F060A0-2273-4F54-8B81-08E0B15B03EC";
layerId = "C2545F96-8A80-40D1-872F-E813FCAB5ED7";
name = "4 Dec 23 at 22:14";
shapes = (
{
closed = 1;
nodes = (
(228,-18,o),
(250,13,o),
(250,63,cs),
(250,65,o),
(238,219,o),
(238,328,cs),
(238,353,o),
(257,371,o),
(281,367,cs),
(287,366,o),
(353,353,o),
(393,353,cs),
(444,353,o),
(469,374,o),
(469,408,cs),
(469,440,o),
(444,461,o),
(400,463,cs),
(364,465,o),
(286,459,o),
(274,459,cs),
(250,459,o),
(238,476,o),
(237,492,cs),
(232,571,o),
(227,656,o),
(305,656,cs),
(354,656,o),
(387,622,o),
(387,579,cs),
(387,524,o),
(420,493,o),
(469,493,cs),
(525,493,o),
(561,535,o),
(561,596,cs),
(561,745,o),
(343,806,o),
(218,806,cs),
(88,806,o),
(9,741,o),
(9,567,cs),
(9,444,o),
(48,200,o),
(85,85,cs),
(107,16,o),
(132,-18,o),
(181,-18,cs)
);
}
);
width = 561;
},
{
layerId = "49F060A0-2273-4F54-8B81-08E0B15B03EC";
name = Regular;
shapes = (
{
closed = 1;
nodes = (
(202,441,o),
(227,551,o),
(333,543,cs),
(445,534,o),
(496,556,o),
(496,634,cs),
(496,767,o),
(345,815,o),
(243,815,cs),
(93,815,o),
(10,711,o),
(10,508,cs),
(10,437,o),
(20,206,o),
(55,86,cs),
(74,22,o),
(101,-13,o),
(150,-13,cs),
(234,-13,o),
(214,169,o),
(222,267,cs),
(224,289,o),
(228,329,o),
(256,329,cs),
(268,329,o),
(315,322,o),
(344,322,cs),
(399,322,o),
(423,347,o),
(423,383,cs),
(423,463,o),
(304,441,o),
(269,441,cs)
);
}
);
width = 497;
}
);
unicode = 102;
},
{
color = 10;
glyphname = g;
lastChange = "2023-12-08 15:15:26 +0000";
layers = (
{
associatedMasterId = "49F060A0-2273-4F54-8B81-08E0B15B03EC";
layerId = "E8DB0691-68D0-431B-B1F1-83C4658121A8";
name = "2 Nov 23 at 01:11";
shapes = (
{
closed = 1;
nodes = (
(275,171,o),
(285,180,o),
(323,183,cs),
(342,185,o),
(355,184,o),
(377,182,c),
(381,147,o),
(384,112,o),
(389,81,c),
(371,55,o),
(336,52,o),
(322,53,cs),
(279,56,o),
(271,106,o),
(273,140,cs)
);
},
{
closed = 0;
nodes = (
(399,38,l)
);
},
{
closed = 1;
nodes = (
(423,-41,o),
(350,-78,o),
(322,-78,cs),
(308,-78,o),
(282,-67,o),
(269,-67,cs),
(254,-67,o),
(241,-80,o),
(241,-104,cs),
(241,-148,o),
(284,-200,o),
(364,-200,cs),
(559,-200,o),
(617,112,o),
(617,328,cs),
(617,500,o),
(591,616,o),
(497,616,cs),
(465,616,o),
(441,602,o),
(423,578,c),
(386,602,o),
(339,616,o),
(279,616,cs),
(108,616,o),
(48,505,o),
(31,404,cs),
(19,333,o),
(21,225,o),
(69,133,cs),
(120,35,o),
(203,-2,o),
(281,-2,cs),
(325,-2,o),
(363,9,o),
(399,38,c)
);
},
{
closed = 1;
nodes = (
(275,171,o),
(285,180,o),
(323,183,cs),
(342,185,o),
(355,184,o),
(377,182,c),
(381,147,o),
(384,112,o),
(389,81,c),
(371,55,o),
(336,52,o),
(322,53,cs),
(279,56,o),
(271,106,o),
(273,140,cs)
);
},
{
closed = 0;
nodes = (
(399,38,l)
);
},
{
closed = 1;
nodes = (
(423,-41,o),
(350,-78,o),
(322,-78,cs),
(308,-78,o),
(282,-67,o),
(269,-67,cs),
(254,-67,o),
(241,-80,o),
(241,-104,cs),
(241,-148,o),
(284,-200,o),
(364,-200,cs),
(559,-200,o),
(617,112,o),
(617,328,cs),
(617,500,o),
(591,616,o),
(497,616,cs),
(465,616,o),
(441,602,o),
(423,578,c),
(386,602,o),
(339,616,o),
(279,616,cs),
(108,616,o),
(48,505,o),
(31,404,cs),
(19,333,o),
(21,225,o),
(69,133,cs),
(120,35,o),
(203,-2,o),
(281,-2,cs),
(325,-2,o),
(363,9,o),
(399,38,c)
);
}
);
width = 652;
},
{
associatedMasterId = "49F060A0-2273-4F54-8B81-08E0B15B03EC";
layerId = "BB26B213-7598-48E8-8EB9-C2D651D88BDE";
name = "24 Nov 23 at 00:13";
shapes = (
{
closed = 1;
nodes = (
(362,-183,o),
(390,-199,o),
(427,-199,cs),
(643,-200,o),
(686,117,o),
(686,333,cs),
(686,505,o),
(656,614,o),
(542,614,cs),
(501,614,o),
(461,594,o),
(433,552,cs),
(426,541,o),
(422,533,o),
(411,533,cs),
(401,533,o),
(395,541,o),
(389,548,cs),
(355,590,o),
(302,614,o),
(232,614,cs),
(106,614,o),
(24,518,o),
(24,361,cs),
(24,271,o),
(62,165,o),
(123,89,cs),
(170,31,o),
(230,-11,o),
(298,-11,cs),
(351,-11,o),
(398,9,o),
(426,50,cs),
(432,58,o),
(438,65,o),
(447,65,cs),
(457,65,o),
(467,59,o),
(468,45,cs),
(474,-3,o),
(468,-34,o),
(450,-53,cs),
(429,-75,o),
(399,-79,o),
(382,-73,cs),
(348,-60,o),
(321,-76,o),
(312,-101,cs),
(303,-128,o),
(315,-149,o),
(343,-169,cs)
);
},
{
closed = 1;
nodes = (
(344,136,o),
(315,184,o),
(313,216,cs),
(311,253,o),
(332,272,o),
(375,272,cs),
(414,274,o),
(430,255,o),
(437,209,cs),
(444,160,o),
(421,136,o),
(383,136,cs)
);
}
);
width = 711;
},
{
associatedMasterId = "49F060A0-2273-4F54-8B81-08E0B15B03EC";
layerId = "D3816EA6-E74E-46B0-9EF1-65BF981A4203";
name = "2 Dec 23 at 14:51";
shapes = (
{
closed = 1;
nodes = (
(362,-183,o),
(390,-199,o),
(427,-199,cs),
(643,-199,o),
(686,117,o),
(686,333,cs),
(686,505,o),
(656,614,o),
(542,614,cs),
(501,614,o),
(461,594,o),
(433,552,cs),
(426,541,o),
(422,533,o),
(411,533,cs),
(401,533,o),
(395,541,o),
(389,548,cs),
(355,590,o),
(302,614,o),
(232,614,cs),
(106,614,o),
(24,518,o),
(24,361,cs),
(24,271,o),
(62,165,o),
(123,89,cs),
(170,31,o),
(230,-11,o),
(298,-11,cs),
(351,-11,o),
(398,9,o),
(426,50,cs),
(432,58,o),
(438,65,o),
(447,65,cs),
(457,65,o),
(467,59,o),
(468,45,cs),
(474,-3,o),
(468,-34,o),
(450,-53,cs),
(429,-75,o),
(399,-79,o),
(382,-73,cs),
(348,-60,o),
(321,-76,o),
(312,-101,cs),
(303,-128,o),
(315,-149,o),
(343,-169,cs)
);
},
{
closed = 1;
nodes = (
(303,119,o),
(272,191,o),
(272,223,cs),
(272,267,o),
(297,295,o),
(352,295,cs),
(400,295,o),
(422,272,o),
(434,212,cs),
(446,152,o),
(415,119,o),
(371,119,cs)
);
}
);
width = 711;
},
{
layerId = "49F060A0-2273-4F54-8B81-08E0B15B03EC";
name = Regular;
shapes = (
{
closed = 1;
nodes = (
(303,120,o),
(272,192,o),
(272,224,cs),
(272,268,o),
(297,296,o),
(352,296,cs),
(417,296,o),
(437,237,o),
(437,188,cs),
(437,144,o),
(409,120,o),
(371,120,cs)
);
},
{
closed = 1;
nodes = (
(439,-120,o),
(332,-120,cs),
(299,-120,o),
(281,-109,o),
(245,-85,cs),
(234,-78,o),
(224,-75,o),
(215,-75,cs),
(191,-75,o),
(168,-95,o),
(168,-119,cs),
(168,-139,o),
(183,-163,o),
(219,-179,cs),
(250,-193,o),
(296,-201,o),
(339,-201,cs),
(621,-201,o),
(686,80,o),
(686,334,cs),
(686,506,o),
(656,615,o),
(542,615,cs),
(501,615,o),
(461,595,o),
(433,553,cs),
(426,542,o),
(422,534,o),
(411,534,cs),
(401,534,o),
(395,542,o),
(389,549,cs),
(355,591,o),
(302,615,o),
(232,615,cs),
(106,615,o),
(24,519,o),
(24,362,cs),
(24,272,o),
(62,166,o),
(123,90,cs),
(170,32,o),
(230,-10,o),
(298,-10,cs),
(351,-10,o),
(398,10,o),
(426,51,cs),
(432,59,o),
(438,66,o),
(447,66,cs),
(457,66,o),
(467,60,o),
(468,46,cs),
(481,-36,o)
);
}
);
width = 704;
}
);
unicode = 103;
},
{
glyphname = gbreve;
lastChange = "2023-12-04 01:50:00 +0000";
layers = (
{
anchors = (
{
name = top;
pos = (369,882);
}
);
layerId = "49F060A0-2273-4F54-8B81-08E0B15B03EC";
shapes = (
{
ref = g;
},
{
closed = 1;
nodes = (
(254,639,o),
(174,675,o),
(146,742,cs),
(121,804,o),
(140,861,o),
(192,878,cs),
(236,894,o),
(270,858,o),
(282,813,cs),
(299,752,o),
(336,740,o),
(385,740,cs),
(433,740,o),
(469,752,o),
(486,813,cs),
(498,858,o),
(531,892,o),
(575,878,cs),
(628,861,o),
(647,804,o),
(622,741,cs),
(594,673,o),
(510,639,o),
(385,639,cs)
);
}
);
width = 719;
}
);
unicode = 287;
},
{
glyphname = gcommaaccent;
lastChange = "2023-12-01 01:59:36 +0000";
layers = (
{
anchors = (
{
name = top;
pos = (331,882);
}
);
layerId = "49F060A0-2273-4F54-8B81-08E0B15B03EC";
shapes = (
{
ref = g;
},
{
closed = 1;
nodes = (
(417,691,o),
(364,666,o),
(320,660,cs),
(290,656,o),
(261,658,o),
(248,683,cs),
(232,715,o),
(252,739,o),
(292,759,cs),
(357,792,o),
(362,845,o),
(408,871,cs),
(438,888,o),
(473,883,o),
(498,850,cs),
(529,809,o),
(510,761,o),
(457,721,cs)
);
}
);
width = 719;
}
);
unicode = 291;
},
{
glyphname = gdotaccent;
lastChange = "2023-12-01 01:59:45 +0000";
layers = (
{
anchors = (
{
name = top;
pos = (399,873);
}
);
layerId = "49F060A0-2273-4F54-8B81-08E0B15B03EC";
shapes = (
{
ref = g;
},
{
closed = 1;
nodes = (
(316,724,o),
(346,695,o),
(392,695,cs),
(438,695,o),
(468,724,o),
(468,769,cs),
(468,813,o),
(438,841,o),
(392,841,cs),
(346,841,o),
(316,813,o),
(316,769,cs)
);
}
);
width = 719;
}
);
unicode = 289;
},
